G04 #@! TF.GenerationSoftware,KiCad,Pcbnew,8.0.6-8.0.6-0~ubuntu22.04.1*
G04 #@! TF.CreationDate,2025-01-19T18:25:12+00:00*
G04 #@! TF.ProjectId,PSU-addon,5053552d-6164-4646-9f6e-2e6b69636164,rev?*
G04 #@! TF.SameCoordinates,Original*
G04 #@! TF.FileFunction,Copper,L1,Top*
G04 #@! TF.FilePolarity,Positive*
%FSLAX46Y46*%
G04 Gerber Fmt 4.6, Leading zero omitted, Abs format (unit mm)*
G04 Created by KiCad (PCBNEW 8.0.6-8.0.6-0~ubuntu22.04.1) date 2025-01-19 18:25:12*
%MOMM*%
%LPD*%
G01*
G04 APERTURE LIST*
G04 #@! TA.AperFunction,ComponentPad*
%ADD10C,2.000000*%
G04 #@! TD*
G04 #@! TA.AperFunction,ComponentPad*
%ADD11R,2.200000X2.200000*%
G04 #@! TD*
G04 #@! TA.AperFunction,ComponentPad*
%ADD12O,2.200000X2.200000*%
G04 #@! TD*
G04 #@! TA.AperFunction,ComponentPad*
%ADD13O,6.700000X4.200000*%
G04 #@! TD*
G04 #@! TA.AperFunction,ComponentPad*
%ADD14C,1.600000*%
G04 #@! TD*
G04 #@! TA.AperFunction,ComponentPad*
%ADD15O,1.600000X1.600000*%
G04 #@! TD*
G04 #@! TA.AperFunction,ComponentPad*
%ADD16R,1.800000X1.800000*%
G04 #@! TD*
G04 #@! TA.AperFunction,ComponentPad*
%ADD17C,1.800000*%
G04 #@! TD*
G04 #@! TA.AperFunction,ComponentPad*
%ADD18R,2.400000X2.400000*%
G04 #@! TD*
G04 #@! TA.AperFunction,ComponentPad*
%ADD19C,2.400000*%
G04 #@! TD*
G04 #@! TA.AperFunction,ComponentPad*
%ADD20R,3.000000X3.000000*%
G04 #@! TD*
G04 #@! TA.AperFunction,ComponentPad*
%ADD21C,3.000000*%
G04 #@! TD*
G04 #@! TA.AperFunction,ComponentPad*
%ADD22R,2.000000X1.905000*%
G04 #@! TD*
G04 #@! TA.AperFunction,ComponentPad*
%ADD23O,2.000000X1.905000*%
G04 #@! TD*
G04 #@! TA.AperFunction,ComponentPad*
%ADD24R,1.600000X1.600000*%
G04 #@! TD*
G04 #@! TA.AperFunction,Conductor*
%ADD25C,1.000000*%
G04 #@! TD*
G04 APERTURE END LIST*
D10*
X92000000Y-59312755D03*
D11*
X87100000Y-59332755D03*
D12*
X87100000Y-69492755D03*
D10*
X34600000Y-37212755D03*
X92000000Y-39812755D03*
D13*
X30000000Y-27700000D03*
D11*
X54500000Y-57132755D03*
D12*
X54500000Y-67292755D03*
D13*
X76000000Y-27700000D03*
D14*
X83800000Y-66922755D03*
D15*
X83800000Y-59302755D03*
D11*
X54700000Y-42292755D03*
D12*
X54700000Y-32132755D03*
D16*
X93300000Y-66112755D03*
D17*
X90760000Y-66112755D03*
D18*
X44600000Y-62212755D03*
D19*
X44600000Y-54712755D03*
D13*
X30000000Y-71700000D03*
D20*
X30000000Y-54792755D03*
D21*
X30000000Y-49712755D03*
X30000000Y-44632755D03*
D10*
X34700000Y-62212755D03*
D18*
X44600000Y-44712755D03*
D19*
X44600000Y-37212755D03*
D20*
X92000000Y-44632755D03*
D21*
X92000000Y-49712755D03*
X92000000Y-54792755D03*
D14*
X84000000Y-38720000D03*
D15*
X84000000Y-31100000D03*
D13*
X76000000Y-71700000D03*
D16*
X93375000Y-33712755D03*
D17*
X90835000Y-33712755D03*
D22*
X57700000Y-59672755D03*
D23*
X57700000Y-62212755D03*
X57700000Y-64752755D03*
D11*
X87200000Y-30132755D03*
D12*
X87200000Y-40292755D03*
D24*
X58000000Y-28412755D03*
D14*
X60000000Y-28412755D03*
D24*
X59600000Y-71312755D03*
D14*
X57600000Y-71312755D03*
D10*
X84900000Y-49700000D03*
D22*
X57800000Y-34672755D03*
D23*
X57800000Y-37212755D03*
X57800000Y-39752755D03*
D25*
X30000000Y-57512755D02*
X34700000Y-62212755D01*
X54500000Y-57132755D02*
X54500000Y-59672755D01*
X47140000Y-59672755D02*
X54500000Y-59672755D01*
X34700000Y-62212755D02*
X44600000Y-62212755D01*
X47140000Y-59672755D02*
X44600000Y-62212755D01*
X30000000Y-54792755D02*
X30000000Y-57512755D01*
X54500000Y-59672755D02*
X57700000Y-59672755D01*
X34600000Y-37212755D02*
X30000000Y-41812755D01*
X30000000Y-41812755D02*
X30000000Y-44632755D01*
X54700000Y-32132755D02*
X54700000Y-37212755D01*
X44600000Y-37212755D02*
X54700000Y-37212755D01*
X44600000Y-37212755D02*
X34600000Y-37212755D01*
X54700000Y-37212755D02*
X57800000Y-37212755D01*
X92000000Y-54792755D02*
X92000000Y-59312755D01*
X57700000Y-64752755D02*
X57040000Y-64752755D01*
X83800000Y-59302755D02*
X63150000Y-59302755D01*
X63150000Y-59302755D02*
X57700000Y-64752755D01*
X57040000Y-64752755D02*
X54500000Y-67292755D01*
X91990000Y-59302755D02*
X92000000Y-59312755D01*
X83800000Y-59302755D02*
X91990000Y-59302755D01*
X59600000Y-71312755D02*
X59600000Y-66652755D01*
X59600000Y-66652755D02*
X57700000Y-64752755D01*
X57240000Y-39752755D02*
X54700000Y-42292755D01*
X57800000Y-39752755D02*
X57240000Y-39752755D01*
X58340000Y-40292755D02*
X57800000Y-39752755D01*
X91520000Y-40292755D02*
X92000000Y-39812755D01*
X93375000Y-38437755D02*
X92000000Y-39812755D01*
X57800000Y-39752755D02*
X60000000Y-37552755D01*
X93375000Y-33712755D02*
X93375000Y-38437755D01*
X92000000Y-39812755D02*
X92000000Y-44632755D01*
X60000000Y-37552755D02*
X60000000Y-28412755D01*
X87200000Y-40292755D02*
X91520000Y-40292755D01*
X87200000Y-40292755D02*
X58340000Y-40292755D01*
X84610000Y-66112755D02*
X83800000Y-66922755D01*
X90760000Y-66112755D02*
X84610000Y-66112755D01*
X90835000Y-33712755D02*
X89087245Y-33712755D01*
X84080000Y-38720000D02*
X84000000Y-38720000D01*
X89087245Y-33712755D02*
X84080000Y-38720000D01*
G04 #@! TA.AperFunction,Conductor*
G36*
X95917539Y-24757940D02*
G01*
X95963294Y-24810744D01*
X95974500Y-24862255D01*
X95974500Y-74563255D01*
X95954815Y-74630294D01*
X95902011Y-74676049D01*
X95850500Y-74687255D01*
X26149500Y-74687255D01*
X26082461Y-74667570D01*
X26036706Y-74614766D01*
X26025500Y-74563255D01*
X26025500Y-72515771D01*
X26045185Y-72448732D01*
X26097989Y-72402977D01*
X26167147Y-72393033D01*
X26230703Y-72422058D01*
X26266541Y-72474816D01*
X26344129Y-72696548D01*
X26470831Y-72959648D01*
X26626199Y-73206914D01*
X26808274Y-73435230D01*
X27014769Y-73641725D01*
X27243085Y-73823800D01*
X27490351Y-73979168D01*
X27753451Y-74105870D01*
X28029081Y-74202318D01*
X28029089Y-74202321D01*
X28313798Y-74267303D01*
X28313812Y-74267306D01*
X28603980Y-74299999D01*
X28603984Y-74300000D01*
X29750000Y-74300000D01*
X29750000Y-73200000D01*
X30250000Y-73200000D01*
X30250000Y-74300000D01*
X31396016Y-74300000D01*
X31396019Y-74299999D01*
X31686187Y-74267306D01*
X31686201Y-74267303D01*
X31970910Y-74202321D01*
X31970918Y-74202318D01*
X32246548Y-74105870D01*
X32509648Y-73979168D01*
X32756914Y-73823800D01*
X32985230Y-73641725D01*
X33191725Y-73435230D01*
X33373800Y-73206914D01*
X33529168Y-72959648D01*
X33655870Y-72696548D01*
X33752318Y-72420918D01*
X33752321Y-72420910D01*
X33817303Y-72136201D01*
X33817305Y-72136189D01*
X33838284Y-71950000D01*
X32729102Y-71950000D01*
X32750000Y-71818053D01*
X32750000Y-71581947D01*
X32729102Y-71450000D01*
X33838284Y-71450000D01*
X33817305Y-71263810D01*
X33817303Y-71263798D01*
X33752321Y-70979089D01*
X33752318Y-70979081D01*
X33655870Y-70703451D01*
X33529168Y-70440351D01*
X33373800Y-70193085D01*
X33191725Y-69964769D01*
X32985230Y-69758274D01*
X32756914Y-69576199D01*
X32509648Y-69420831D01*
X32246548Y-69294129D01*
X31970918Y-69197681D01*
X31970910Y-69197678D01*
X31686201Y-69132696D01*
X31686187Y-69132693D01*
X31396019Y-69100000D01*
X30250000Y-69100000D01*
X30250000Y-70200000D01*
X29750000Y-70200000D01*
X29750000Y-69100000D01*
X28603980Y-69100000D01*
X28313812Y-69132693D01*
X28313798Y-69132696D01*
X28029089Y-69197678D01*
X28029081Y-69197681D01*
X27753451Y-69294129D01*
X27490351Y-69420831D01*
X27243085Y-69576199D01*
X27014769Y-69758274D01*
X26808274Y-69964769D01*
X26626199Y-70193085D01*
X26470831Y-70440351D01*
X26344129Y-70703451D01*
X26266541Y-70925183D01*
X26225819Y-70981959D01*
X26160867Y-71007706D01*
X26092305Y-70994249D01*
X26041902Y-70945862D01*
X26025500Y-70884228D01*
X26025500Y-53273002D01*
X28299500Y-53273002D01*
X28299500Y-56312507D01*
X28311131Y-56370984D01*
X28311132Y-56370985D01*
X28355447Y-56437307D01*
X28421769Y-56481622D01*
X28421770Y-56481623D01*
X28480247Y-56493254D01*
X28480250Y-56493255D01*
X28480252Y-56493255D01*
X29175500Y-56493255D01*
X29242539Y-56512940D01*
X29288294Y-56565744D01*
X29299500Y-56617255D01*
X29299500Y-57443761D01*
X29299500Y-57581749D01*
X29299500Y-57581751D01*
X29299499Y-57581751D01*
X29326418Y-57717077D01*
X29326421Y-57717087D01*
X29379222Y-57844562D01*
X29455887Y-57959300D01*
X29455888Y-57959301D01*
X33471427Y-61974839D01*
X33504912Y-62036162D01*
X33507217Y-62073960D01*
X33494357Y-62212753D01*
X33494357Y-62212755D01*
X33514884Y-62434290D01*
X33514885Y-62434292D01*
X33575769Y-62648278D01*
X33575775Y-62648293D01*
X33674938Y-62847438D01*
X33674943Y-62847446D01*
X33809020Y-63024993D01*
X33973437Y-63174878D01*
X33973439Y-63174880D01*
X34162595Y-63292000D01*
X34162596Y-63292000D01*
X34162599Y-63292002D01*
X34370060Y-63372373D01*
X34588757Y-63413255D01*
X34588759Y-63413255D01*
X34811241Y-63413255D01*
X34811243Y-63413255D01*
X35029940Y-63372373D01*
X35237401Y-63292002D01*
X35426562Y-63174879D01*
X35590981Y-63024991D01*
X35638151Y-62962528D01*
X35694260Y-62920892D01*
X35737105Y-62913255D01*
X43075500Y-62913255D01*
X43142539Y-62932940D01*
X43188294Y-62985744D01*
X43199500Y-63037255D01*
X43199500Y-63432507D01*
X43211131Y-63490984D01*
X43211132Y-63490985D01*
X43255447Y-63557307D01*
X43321769Y-63601622D01*
X43321770Y-63601623D01*
X43380247Y-63613254D01*
X43380250Y-63613255D01*
X43380252Y-63613255D01*
X45819750Y-63613255D01*
X45819751Y-63613254D01*
X45834568Y-63610307D01*
X45878229Y-63601623D01*
X45878229Y-63601622D01*
X45878231Y-63601622D01*
X45944552Y-63557307D01*
X45988867Y-63490986D01*
X45988867Y-63490984D01*
X45988868Y-63490984D01*
X46000499Y-63432507D01*
X46000500Y-63432505D01*
X46000500Y-61854273D01*
X46020185Y-61787234D01*
X46036819Y-61766592D01*
X47393837Y-60409574D01*
X47455160Y-60376089D01*
X47481518Y-60373255D01*
X54431007Y-60373255D01*
X54568993Y-60373255D01*
X56375500Y-60373255D01*
X56442539Y-60392940D01*
X56488294Y-60445744D01*
X56499500Y-60497255D01*
X56499500Y-60645007D01*
X56511131Y-60703484D01*
X56511132Y-60703485D01*
X56555447Y-60769807D01*
X56621769Y-60814122D01*
X56621770Y-60814123D01*
X56680247Y-60825754D01*
X56680250Y-60825755D01*
X56708769Y-60825755D01*
X56775808Y-60845440D01*
X56821563Y-60898244D01*
X56831507Y-60967402D01*
X56802482Y-61030958D01*
X56781654Y-61050073D01*
X56706263Y-61104847D01*
X56706257Y-61104852D01*
X56544597Y-61266512D01*
X56410211Y-61451478D01*
X56306417Y-61655184D01*
X56235765Y-61872626D01*
X56221491Y-61962755D01*
X57209252Y-61962755D01*
X57187482Y-62000463D01*
X57150000Y-62140346D01*
X57150000Y-62285164D01*
X57187482Y-62425047D01*
X57209252Y-62462755D01*
X56221491Y-62462755D01*
X56235765Y-62552883D01*
X56306417Y-62770325D01*
X56410211Y-62974031D01*
X56544597Y-63158997D01*
X56706257Y-63320657D01*
X56891223Y-63455043D01*
X57058623Y-63540338D01*
X57109419Y-63588313D01*
X57126214Y-63656134D01*
X57103677Y-63722268D01*
X57058625Y-63761307D01*
X57048195Y-63766621D01*
X56964426Y-63827483D01*
X56901371Y-63873296D01*
X56901369Y-63873298D01*
X56901368Y-63873298D01*
X56773043Y-64001623D01*
X56773043Y-64001624D01*
X56773041Y-64001626D01*
X56666366Y-64148451D01*
X56663503Y-64152392D01*
X56662212Y-64151454D01*
X56631840Y-64182993D01*
X56593462Y-64208637D01*
X56593451Y-64208646D01*
X54830369Y-65971727D01*
X54769046Y-66005212D01*
X54731881Y-66007574D01*
X54726680Y-66007119D01*
X54707171Y-66005412D01*
X54500002Y-65987287D01*
X54499998Y-65987287D01*
X54273313Y-66007119D01*
X54273302Y-66007121D01*
X54053511Y-66066013D01*
X54053502Y-66066016D01*
X53847267Y-66162186D01*
X53847265Y-66162187D01*
X53660858Y-66292709D01*
X53499954Y-66453613D01*
X53369432Y-66640020D01*
X53369431Y-66640022D01*
X53273261Y-66846257D01*
X53273258Y-66846266D01*
X53214366Y-67066057D01*
X53214364Y-67066068D01*
X53194532Y-67292753D01*
X53194532Y-67292756D01*
X53214364Y-67519441D01*
X53214366Y-67519452D01*
X53273258Y-67739243D01*
X53273261Y-67739252D01*
X53369431Y-67945487D01*
X53369432Y-67945489D01*
X53499954Y-68131896D01*
X53660858Y-68292800D01*
X53660861Y-68292802D01*
X53847266Y-68423323D01*
X54053504Y-68519494D01*
X54273308Y-68578390D01*
X54435230Y-68592556D01*
X54499998Y-68598223D01*
X54500000Y-68598223D01*
X54500002Y-68598223D01*
X54556673Y-68593264D01*
X54726692Y-68578390D01*
X54946496Y-68519494D01*
X55152734Y-68423323D01*
X55339139Y-68292802D01*
X55500047Y-68131894D01*
X55630568Y-67945489D01*
X55726739Y-67739251D01*
X55785635Y-67519447D01*
X55805468Y-67292755D01*
X55785635Y-67066063D01*
X55785633Y-67066058D01*
X55785180Y-67060872D01*
X55798946Y-66992372D01*
X55821024Y-66962386D01*
X56982059Y-65801351D01*
X57043380Y-65767868D01*
X57113072Y-65772852D01*
X57126033Y-65778549D01*
X57209904Y-65821283D01*
X57382501Y-65877363D01*
X57382502Y-65877363D01*
X57382505Y-65877364D01*
X57561757Y-65905755D01*
X57561758Y-65905755D01*
X57810981Y-65905755D01*
X57878020Y-65925440D01*
X57898662Y-65942074D01*
X58863181Y-66906593D01*
X58896666Y-66967916D01*
X58899500Y-66994274D01*
X58899500Y-70188255D01*
X58879815Y-70255294D01*
X58827011Y-70301049D01*
X58786142Y-70309939D01*
X58786312Y-70311658D01*
X58780247Y-70312255D01*
X58721770Y-70323886D01*
X58721769Y-70323887D01*
X58655447Y-70368202D01*
X58611132Y-70434524D01*
X58611131Y-70434525D01*
X58599500Y-70493002D01*
X58599500Y-70615446D01*
X58579815Y-70682485D01*
X58563181Y-70703127D01*
X58000000Y-71266308D01*
X58000000Y-71260094D01*
X57972741Y-71158361D01*
X57920080Y-71067149D01*
X57845606Y-70992675D01*
X57754394Y-70940014D01*
X57652661Y-70912755D01*
X57646445Y-70912755D01*
X58325472Y-70233729D01*
X58252478Y-70182618D01*
X58046331Y-70086490D01*
X58046317Y-70086485D01*
X57826610Y-70027615D01*
X57826599Y-70027613D01*
X57600002Y-70007789D01*
X57599998Y-70007789D01*
X57373400Y-70027613D01*
X57373389Y-70027615D01*
X57153682Y-70086485D01*
X57153673Y-70086489D01*
X56947516Y-70182621D01*
X56947512Y-70182623D01*
X56874526Y-70233728D01*
X56874526Y-70233729D01*
X57553553Y-70912755D01*
X57547339Y-70912755D01*
X57445606Y-70940014D01*
X57354394Y-70992675D01*
X57279920Y-71067149D01*
X57227259Y-71158361D01*
X57200000Y-71260094D01*
X57200000Y-71266307D01*
X56520974Y-70587281D01*
X56520973Y-70587281D01*
X56469868Y-70660267D01*
X56469866Y-70660271D01*
X56373734Y-70866428D01*
X56373730Y-70866437D01*
X56314860Y-71086144D01*
X56314858Y-71086155D01*
X56295034Y-71312752D01*
X56295034Y-71312757D01*
X56314858Y-71539354D01*
X56314860Y-71539365D01*
X56373730Y-71759072D01*
X56373735Y-71759086D01*
X56469863Y-71965233D01*
X56520974Y-72038227D01*
X57200000Y-71359201D01*
X57200000Y-71365416D01*
X57227259Y-71467149D01*
X57279920Y-71558361D01*
X57354394Y-71632835D01*
X57445606Y-71685496D01*
X57547339Y-71712755D01*
X57553553Y-71712755D01*
X56874526Y-72391780D01*
X56947513Y-72442887D01*
X56947521Y-72442891D01*
X57153668Y-72539019D01*
X57153682Y-72539024D01*
X57373389Y-72597894D01*
X57373400Y-72597896D01*
X57599998Y-72617721D01*
X57600002Y-72617721D01*
X57826599Y-72597896D01*
X57826610Y-72597894D01*
X58046317Y-72539024D01*
X58046331Y-72539019D01*
X58252478Y-72442891D01*
X58325471Y-72391779D01*
X57646447Y-71712755D01*
X57652661Y-71712755D01*
X57754394Y-71685496D01*
X57845606Y-71632835D01*
X57920080Y-71558361D01*
X57972741Y-71467149D01*
X58000000Y-71365416D01*
X58000000Y-71359201D01*
X58563181Y-71922382D01*
X58596666Y-71983705D01*
X58599500Y-72010063D01*
X58599500Y-72132507D01*
X58611131Y-72190984D01*
X58611132Y-72190985D01*
X58655447Y-72257307D01*
X58721769Y-72301622D01*
X58721770Y-72301623D01*
X58780247Y-72313254D01*
X58780250Y-72313255D01*
X58780252Y-72313255D01*
X60419750Y-72313255D01*
X60419751Y-72313254D01*
X60434568Y-72310307D01*
X60478229Y-72301623D01*
X60478229Y-72301622D01*
X60478231Y-72301622D01*
X60544552Y-72257307D01*
X60588867Y-72190986D01*
X60588867Y-72190984D01*
X60588868Y-72190984D01*
X60600499Y-72132507D01*
X60600500Y-72132505D01*
X60600500Y-71450000D01*
X72161716Y-71450000D01*
X73270898Y-71450000D01*
X73250000Y-71581947D01*
X73250000Y-71818053D01*
X73270898Y-71950000D01*
X72161716Y-71950000D01*
X72182694Y-72136189D01*
X72182696Y-72136201D01*
X72247678Y-72420910D01*
X72247681Y-72420918D01*
X72344129Y-72696548D01*
X72470831Y-72959648D01*
X72626199Y-73206914D01*
X72808274Y-73435230D01*
X73014769Y-73641725D01*
X73243085Y-73823800D01*
X73490351Y-73979168D01*
X73753451Y-74105870D01*
X74029081Y-74202318D01*
X74029089Y-74202321D01*
X74313798Y-74267303D01*
X74313812Y-74267306D01*
X74603980Y-74299999D01*
X74603984Y-74300000D01*
X75750000Y-74300000D01*
X75750000Y-73200000D01*
X76250000Y-73200000D01*
X76250000Y-74300000D01*
X77396016Y-74300000D01*
X77396019Y-74299999D01*
X77686187Y-74267306D01*
X77686201Y-74267303D01*
X77970910Y-74202321D01*
X77970918Y-74202318D01*
X78246548Y-74105870D01*
X78509648Y-73979168D01*
X78756914Y-73823800D01*
X78985230Y-73641725D01*
X79191725Y-73435230D01*
X79373800Y-73206914D01*
X79529168Y-72959648D01*
X79655870Y-72696548D01*
X79752318Y-72420918D01*
X79752321Y-72420910D01*
X79817303Y-72136201D01*
X79817305Y-72136189D01*
X79838284Y-71950000D01*
X78729102Y-71950000D01*
X78750000Y-71818053D01*
X78750000Y-71581947D01*
X78729102Y-71450000D01*
X79838284Y-71450000D01*
X79817305Y-71263810D01*
X79817303Y-71263798D01*
X79752321Y-70979089D01*
X79752318Y-70979081D01*
X79655870Y-70703451D01*
X79529168Y-70440351D01*
X79373800Y-70193085D01*
X79191725Y-69964769D01*
X78985230Y-69758274D01*
X78756914Y-69576199D01*
X78509648Y-69420831D01*
X78246548Y-69294129D01*
X78099728Y-69242754D01*
X85514728Y-69242754D01*
X85514729Y-69242755D01*
X86609252Y-69242755D01*
X86587482Y-69280463D01*
X86550000Y-69420346D01*
X86550000Y-69565164D01*
X86587482Y-69705047D01*
X86609252Y-69742755D01*
X85514728Y-69742755D01*
X85514811Y-69743822D01*
X85573603Y-69988711D01*
X85669980Y-70221386D01*
X85801568Y-70436117D01*
X85801571Y-70436122D01*
X85965130Y-70627624D01*
X86156632Y-70791183D01*
X86156637Y-70791186D01*
X86371368Y-70922774D01*
X86604043Y-71019151D01*
X86848932Y-71077943D01*
X86850000Y-71078026D01*
X86850000Y-69983502D01*
X86887708Y-70005273D01*
X87027591Y-70042755D01*
X87172409Y-70042755D01*
X87312292Y-70005273D01*
X87350000Y-69983502D01*
X87350000Y-71078026D01*
X87351067Y-71077943D01*
X87595956Y-71019151D01*
X87828631Y-70922774D01*
X88043362Y-70791186D01*
X88043367Y-70791183D01*
X88234869Y-70627624D01*
X88398428Y-70436122D01*
X88398431Y-70436117D01*
X88530019Y-70221386D01*
X88626396Y-69988711D01*
X88685188Y-69743822D01*
X88685272Y-69742755D01*
X87590748Y-69742755D01*
X87612518Y-69705047D01*
X87650000Y-69565164D01*
X87650000Y-69420346D01*
X87612518Y-69280463D01*
X87590748Y-69242755D01*
X88685271Y-69242755D01*
X88685271Y-69242754D01*
X88685188Y-69241687D01*
X88626396Y-68996798D01*
X88530019Y-68764123D01*
X88398431Y-68549392D01*
X88398428Y-68549387D01*
X88234869Y-68357885D01*
X88043367Y-68194326D01*
X88043362Y-68194323D01*
X87828631Y-68062735D01*
X87595956Y-67966358D01*
X87351064Y-67907566D01*
X87350000Y-67907481D01*
X87350000Y-69002007D01*
X87312292Y-68980237D01*
X87172409Y-68942755D01*
X87027591Y-68942755D01*
X86887708Y-68980237D01*
X86850000Y-69002007D01*
X86850000Y-67907481D01*
X86848935Y-67907566D01*
X86604043Y-67966358D01*
X86371368Y-68062735D01*
X86156637Y-68194323D01*
X86156632Y-68194326D01*
X85965130Y-68357885D01*
X85801571Y-68549387D01*
X85801568Y-68549392D01*
X85669980Y-68764123D01*
X85573603Y-68996798D01*
X85514811Y-69241687D01*
X85514728Y-69242754D01*
X78099728Y-69242754D01*
X77970918Y-69197681D01*
X77970910Y-69197678D01*
X77686201Y-69132696D01*
X77686187Y-69132693D01*
X77396019Y-69100000D01*
X76250000Y-69100000D01*
X76250000Y-70200000D01*
X75750000Y-70200000D01*
X75750000Y-69100000D01*
X74603980Y-69100000D01*
X74313812Y-69132693D01*
X74313798Y-69132696D01*
X74029089Y-69197678D01*
X74029081Y-69197681D01*
X73753451Y-69294129D01*
X73490351Y-69420831D01*
X73243085Y-69576199D01*
X73014769Y-69758274D01*
X72808274Y-69964769D01*
X72626199Y-70193085D01*
X72470831Y-70440351D01*
X72344129Y-70703451D01*
X72247681Y-70979081D01*
X72247678Y-70979089D01*
X72182696Y-71263798D01*
X72182694Y-71263810D01*
X72161716Y-71450000D01*
X60600500Y-71450000D01*
X60600500Y-70493004D01*
X60600499Y-70493002D01*
X60588868Y-70434525D01*
X60588867Y-70434524D01*
X60544552Y-70368202D01*
X60478230Y-70323887D01*
X60478229Y-70323886D01*
X60419752Y-70312255D01*
X60413688Y-70311658D01*
X60413934Y-70309152D01*
X60357461Y-70292570D01*
X60311706Y-70239766D01*
X60300500Y-70188255D01*
X60300500Y-66922755D01*
X82794659Y-66922755D01*
X82813975Y-67118884D01*
X82813976Y-67118887D01*
X82855217Y-67254841D01*
X82871188Y-67307488D01*
X82964086Y-67481287D01*
X82964090Y-67481294D01*
X83089116Y-67633638D01*
X83241460Y-67758664D01*
X83241467Y-67758668D01*
X83415266Y-67851566D01*
X83415269Y-67851566D01*
X83415273Y-67851569D01*
X83603868Y-67908779D01*
X83800000Y-67928096D01*
X83996132Y-67908779D01*
X84184727Y-67851569D01*
X84358538Y-67758665D01*
X84510883Y-67633638D01*
X84635910Y-67481293D01*
X84728814Y-67307482D01*
X84786024Y-67118887D01*
X84802596Y-66950619D01*
X84828756Y-66885833D01*
X84838309Y-66875101D01*
X84863842Y-66849570D01*
X84925167Y-66816088D01*
X84951520Y-66813255D01*
X89848301Y-66813255D01*
X89915340Y-66832940D01*
X89939937Y-66853716D01*
X89943234Y-66857333D01*
X90093958Y-66994735D01*
X90093960Y-66994737D01*
X90193141Y-67056147D01*
X90267363Y-67102103D01*
X90457544Y-67175779D01*
X90658024Y-67213255D01*
X90658026Y-67213255D01*
X90861974Y-67213255D01*
X90861976Y-67213255D01*
X91062456Y-67175779D01*
X91252637Y-67102103D01*
X91426041Y-66994736D01*
X91576764Y-66857334D01*
X91677046Y-66724538D01*
X91733155Y-66682903D01*
X91802867Y-66678212D01*
X91864049Y-66711954D01*
X91897276Y-66773417D01*
X91900000Y-66799266D01*
X91900000Y-67060599D01*
X91906401Y-67120127D01*
X91906403Y-67120134D01*
X91956645Y-67254841D01*
X91956649Y-67254848D01*
X92042809Y-67369942D01*
X92042812Y-67369945D01*
X92157906Y-67456105D01*
X92157913Y-67456109D01*
X92292620Y-67506351D01*
X92292627Y-67506353D01*
X92352155Y-67512754D01*
X92352172Y-67512755D01*
X93050000Y-67512755D01*
X93050000Y-66488032D01*
X93126306Y-66532088D01*
X93240756Y-66562755D01*
X93359244Y-66562755D01*
X93473694Y-66532088D01*
X93550000Y-66488032D01*
X93550000Y-67512755D01*
X94247828Y-67512755D01*
X94247844Y-67512754D01*
X94307372Y-67506353D01*
X94307379Y-67506351D01*
X94442086Y-67456109D01*
X94442093Y-67456105D01*
X94557187Y-67369945D01*
X94557190Y-67369942D01*
X94643350Y-67254848D01*
X94643354Y-67254841D01*
X94693596Y-67120134D01*
X94693598Y-67120127D01*
X94699999Y-67060599D01*
X94700000Y-67060582D01*
X94700000Y-66362755D01*
X93675278Y-66362755D01*
X93719333Y-66286449D01*
X93750000Y-66171999D01*
X93750000Y-66053511D01*
X93719333Y-65939061D01*
X93675278Y-65862755D01*
X94700000Y-65862755D01*
X94700000Y-65164927D01*
X94699999Y-65164910D01*
X94693598Y-65105382D01*
X94693596Y-65105375D01*
X94643354Y-64970668D01*
X94643350Y-64970661D01*
X94557190Y-64855567D01*
X94557187Y-64855564D01*
X94442093Y-64769404D01*
X94442086Y-64769400D01*
X94307379Y-64719158D01*
X94307372Y-64719156D01*
X94247844Y-64712755D01*
X93550000Y-64712755D01*
X93550000Y-65737477D01*
X93473694Y-65693422D01*
X93359244Y-65662755D01*
X93240756Y-65662755D01*
X93126306Y-65693422D01*
X93050000Y-65737477D01*
X93050000Y-64712755D01*
X92352155Y-64712755D01*
X92292627Y-64719156D01*
X92292620Y-64719158D01*
X92157913Y-64769400D01*
X92157906Y-64769404D01*
X92042812Y-64855564D01*
X92042809Y-64855567D01*
X91956649Y-64970661D01*
X91956645Y-64970668D01*
X91906403Y-65105375D01*
X91906401Y-65105382D01*
X91900000Y-65164910D01*
X91900000Y-65426243D01*
X91880315Y-65493282D01*
X91827511Y-65539037D01*
X91758353Y-65548981D01*
X91694797Y-65519956D01*
X91677046Y-65500970D01*
X91576762Y-65368174D01*
X91426041Y-65230774D01*
X91426039Y-65230772D01*
X91252642Y-65123410D01*
X91252635Y-65123406D01*
X91157546Y-65086569D01*
X91062456Y-65049731D01*
X90861976Y-65012255D01*
X90658024Y-65012255D01*
X90457544Y-65049731D01*
X90457541Y-65049731D01*
X90457541Y-65049732D01*
X90267364Y-65123406D01*
X90267357Y-65123410D01*
X90093960Y-65230772D01*
X90093958Y-65230774D01*
X89943234Y-65368176D01*
X89939937Y-65371794D01*
X89880226Y-65408075D01*
X89848301Y-65412255D01*
X84541004Y-65412255D01*
X84405677Y-65439173D01*
X84405667Y-65439176D01*
X84278192Y-65491977D01*
X84163454Y-65568642D01*
X83847660Y-65884436D01*
X83786337Y-65917921D01*
X83772133Y-65920158D01*
X83603870Y-65936730D01*
X83415266Y-65993943D01*
X83241467Y-66086841D01*
X83241460Y-66086845D01*
X83089116Y-66211871D01*
X82964090Y-66364215D01*
X82964086Y-66364222D01*
X82871188Y-66538021D01*
X82813975Y-66726625D01*
X82794659Y-66922755D01*
X60300500Y-66922755D01*
X60300500Y-66583759D01*
X60273581Y-66448432D01*
X60273580Y-66448431D01*
X60273580Y-66448427D01*
X60248990Y-66389061D01*
X60220778Y-66320950D01*
X60220774Y-66320943D01*
X60217363Y-66315838D01*
X60188242Y-66272255D01*
X60144114Y-66206212D01*
X60144112Y-66206209D01*
X60144109Y-66206206D01*
X58928891Y-64990989D01*
X58895406Y-64929666D01*
X58894099Y-64883909D01*
X58900500Y-64843496D01*
X58900500Y-64662016D01*
X58900500Y-64662012D01*
X58894098Y-64621596D01*
X58903051Y-64552308D01*
X58928887Y-64514523D01*
X63403838Y-60039574D01*
X63465161Y-60006089D01*
X63491519Y-60003255D01*
X83032098Y-60003255D01*
X83099137Y-60022940D01*
X83110757Y-60031397D01*
X83145872Y-60060216D01*
X83241460Y-60138664D01*
X83241467Y-60138668D01*
X83415266Y-60231566D01*
X83415269Y-60231566D01*
X83415273Y-60231569D01*
X83603868Y-60288779D01*
X83800000Y-60308096D01*
X83996132Y-60288779D01*
X84184727Y-60231569D01*
X84358538Y-60138665D01*
X84489238Y-60031401D01*
X84553546Y-60004089D01*
X84567902Y-60003255D01*
X85675500Y-60003255D01*
X85742539Y-60022940D01*
X85788294Y-60075744D01*
X85799500Y-60127255D01*
X85799500Y-60452507D01*
X85811131Y-60510984D01*
X85811132Y-60510985D01*
X85855447Y-60577307D01*
X85921769Y-60621622D01*
X85921770Y-60621623D01*
X85980247Y-60633254D01*
X85980250Y-60633255D01*
X85980252Y-60633255D01*
X88219750Y-60633255D01*
X88219751Y-60633254D01*
X88234568Y-60630307D01*
X88278229Y-60621623D01*
X88278229Y-60621622D01*
X88278231Y-60621622D01*
X88344552Y-60577307D01*
X88388867Y-60510986D01*
X88388867Y-60510984D01*
X88388868Y-60510984D01*
X88400499Y-60452507D01*
X88400500Y-60452505D01*
X88400500Y-60127255D01*
X88420185Y-60060216D01*
X88472989Y-60014461D01*
X88524500Y-60003255D01*
X90955343Y-60003255D01*
X91022382Y-60022940D01*
X91054297Y-60052528D01*
X91109020Y-60124992D01*
X91273437Y-60274878D01*
X91273439Y-60274880D01*
X91462595Y-60392000D01*
X91462596Y-60392000D01*
X91462599Y-60392002D01*
X91670060Y-60472373D01*
X91888757Y-60513255D01*
X91888759Y-60513255D01*
X92111241Y-60513255D01*
X92111243Y-60513255D01*
X92329940Y-60472373D01*
X92537401Y-60392002D01*
X92726562Y-60274879D01*
X92875981Y-60138665D01*
X92890979Y-60124993D01*
X92928171Y-60075744D01*
X93025058Y-59947444D01*
X93124229Y-59748283D01*
X93185115Y-59534291D01*
X93205643Y-59312755D01*
X93185115Y-59091219D01*
X93124229Y-58877227D01*
X93109803Y-58848255D01*
X93025061Y-58678071D01*
X93025056Y-58678063D01*
X92890981Y-58500519D01*
X92740961Y-58363757D01*
X92704680Y-58304045D01*
X92700500Y-58272120D01*
X92700500Y-56420737D01*
X92720185Y-56353698D01*
X92770695Y-56309018D01*
X92852634Y-56269560D01*
X93063217Y-56125987D01*
X93250050Y-55952632D01*
X93408959Y-55753367D01*
X93536393Y-55532643D01*
X93629508Y-55295392D01*
X93686222Y-55046912D01*
X93705268Y-54792755D01*
X93705192Y-54791746D01*
X93686222Y-54538600D01*
X93645275Y-54359201D01*
X93629508Y-54290118D01*
X93536393Y-54052867D01*
X93408959Y-53832143D01*
X93250050Y-53632878D01*
X93063217Y-53459523D01*
X92852634Y-53315950D01*
X92852630Y-53315948D01*
X92852627Y-53315946D01*
X92852626Y-53315945D01*
X92623006Y-53205367D01*
X92623008Y-53205367D01*
X92379466Y-53130244D01*
X92379462Y-53130243D01*
X92379458Y-53130242D01*
X92258231Y-53111969D01*
X92127440Y-53092255D01*
X92127435Y-53092255D01*
X91872565Y-53092255D01*
X91872559Y-53092255D01*
X91715609Y-53115912D01*
X91620542Y-53130242D01*
X91620539Y-53130243D01*
X91620533Y-53130244D01*
X91376992Y-53205367D01*
X91147373Y-53315945D01*
X91147372Y-53315946D01*
X90936782Y-53459523D01*
X90749952Y-53632876D01*
X90749950Y-53632878D01*
X90591041Y-53832143D01*
X90463608Y-54052864D01*
X90370492Y-54290117D01*
X90370490Y-54290124D01*
X90313777Y-54538600D01*
X90294732Y-54792750D01*
X90294732Y-54792759D01*
X90313777Y-55046909D01*
X90352199Y-55215249D01*
X90370492Y-55295392D01*
X90463607Y-55532643D01*
X90591041Y-55753367D01*
X90749950Y-55952632D01*
X90936783Y-56125987D01*
X91147366Y-56269560D01*
X91229304Y-56309018D01*
X91281161Y-56355839D01*
X91299500Y-56420737D01*
X91299500Y-58272120D01*
X91279815Y-58339159D01*
X91259039Y-58363757D01*
X91109015Y-58500522D01*
X91069401Y-58552981D01*
X91013293Y-58594618D01*
X90970447Y-58602255D01*
X88524500Y-58602255D01*
X88457461Y-58582570D01*
X88411706Y-58529766D01*
X88400500Y-58478255D01*
X88400500Y-58213004D01*
X88400499Y-58213002D01*
X88388868Y-58154525D01*
X88388867Y-58154524D01*
X88344552Y-58088202D01*
X88278230Y-58043887D01*
X88278229Y-58043886D01*
X88219752Y-58032255D01*
X88219748Y-58032255D01*
X85980252Y-58032255D01*
X85980247Y-58032255D01*
X85921770Y-58043886D01*
X85921769Y-58043887D01*
X85855447Y-58088202D01*
X85811132Y-58154524D01*
X85811131Y-58154525D01*
X85799500Y-58213002D01*
X85799500Y-58478255D01*
X85779815Y-58545294D01*
X85727011Y-58591049D01*
X85675500Y-58602255D01*
X84567902Y-58602255D01*
X84500863Y-58582570D01*
X84489242Y-58574112D01*
X84423009Y-58519755D01*
X84358539Y-58466845D01*
X84358532Y-58466841D01*
X84184733Y-58373943D01*
X84184727Y-58373941D01*
X83996132Y-58316731D01*
X83996129Y-58316730D01*
X83800000Y-58297414D01*
X83603870Y-58316730D01*
X83415266Y-58373943D01*
X83241467Y-58466841D01*
X83241460Y-58466845D01*
X83145872Y-58545294D01*
X83110761Y-58574108D01*
X83046454Y-58601421D01*
X83032098Y-58602255D01*
X63081004Y-58602255D01*
X62945677Y-58629173D01*
X62945667Y-58629176D01*
X62818192Y-58681977D01*
X62703454Y-58758642D01*
X59394459Y-62067637D01*
X59333136Y-62101122D01*
X59263444Y-62096138D01*
X59207511Y-62054266D01*
X59184305Y-61999353D01*
X59164235Y-61872631D01*
X59164234Y-61872629D01*
X59093582Y-61655186D01*
X58989788Y-61451478D01*
X58855402Y-61266512D01*
X58693742Y-61104852D01*
X58693736Y-61104847D01*
X58618346Y-61050073D01*
X58575680Y-60994743D01*
X58569701Y-60925130D01*
X58602307Y-60863335D01*
X58663145Y-60828978D01*
X58691231Y-60825755D01*
X58719750Y-60825755D01*
X58719751Y-60825754D01*
X58734568Y-60822807D01*
X58778229Y-60814123D01*
X58778229Y-60814122D01*
X58778231Y-60814122D01*
X58844552Y-60769807D01*
X58888867Y-60703486D01*
X58888867Y-60703484D01*
X58888868Y-60703484D01*
X58900499Y-60645007D01*
X58900500Y-60645005D01*
X58900500Y-58700504D01*
X58900499Y-58700502D01*
X58888868Y-58642025D01*
X58888867Y-58642024D01*
X58844552Y-58575702D01*
X58778230Y-58531387D01*
X58778229Y-58531386D01*
X58719752Y-58519755D01*
X58719748Y-58519755D01*
X56680252Y-58519755D01*
X56680247Y-58519755D01*
X56621770Y-58531386D01*
X56621769Y-58531387D01*
X56555447Y-58575702D01*
X56511132Y-58642024D01*
X56511131Y-58642025D01*
X56499500Y-58700502D01*
X56499500Y-58848255D01*
X56479815Y-58915294D01*
X56427011Y-58961049D01*
X56375500Y-58972255D01*
X55324500Y-58972255D01*
X55257461Y-58952570D01*
X55211706Y-58899766D01*
X55200500Y-58848255D01*
X55200500Y-58557255D01*
X55220185Y-58490216D01*
X55272989Y-58444461D01*
X55324500Y-58433255D01*
X55619750Y-58433255D01*
X55619751Y-58433254D01*
X55634568Y-58430307D01*
X55678229Y-58421623D01*
X55678229Y-58421622D01*
X55678231Y-58421622D01*
X55744552Y-58377307D01*
X55788867Y-58310986D01*
X55788867Y-58310984D01*
X55788868Y-58310984D01*
X55800499Y-58252507D01*
X55800500Y-58252505D01*
X55800500Y-56013004D01*
X55800499Y-56013002D01*
X55788868Y-55954525D01*
X55788867Y-55954524D01*
X55744552Y-55888202D01*
X55678230Y-55843887D01*
X55678229Y-55843886D01*
X55619752Y-55832255D01*
X55619748Y-55832255D01*
X53380252Y-55832255D01*
X53380247Y-55832255D01*
X53321770Y-55843886D01*
X53321769Y-55843887D01*
X53255447Y-55888202D01*
X53211132Y-55954524D01*
X53211131Y-55954525D01*
X53199500Y-56013002D01*
X53199500Y-58252507D01*
X53211131Y-58310984D01*
X53211132Y-58310985D01*
X53255447Y-58377307D01*
X53321769Y-58421622D01*
X53321770Y-58421623D01*
X53380247Y-58433254D01*
X53380250Y-58433255D01*
X53380252Y-58433255D01*
X53675500Y-58433255D01*
X53742539Y-58452940D01*
X53788294Y-58505744D01*
X53799500Y-58557255D01*
X53799500Y-58848255D01*
X53779815Y-58915294D01*
X53727011Y-58961049D01*
X53675500Y-58972255D01*
X47071003Y-58972255D01*
X46962590Y-58993820D01*
X46962589Y-58993820D01*
X46949131Y-58996497D01*
X46935673Y-58999174D01*
X46935671Y-58999175D01*
X46882866Y-59021047D01*
X46882864Y-59021048D01*
X46882863Y-59021047D01*
X46808191Y-59051978D01*
X46723711Y-59108427D01*
X46723710Y-59108428D01*
X46693454Y-59128643D01*
X46693453Y-59128644D01*
X45046162Y-60775936D01*
X44984839Y-60809421D01*
X44958481Y-60812255D01*
X43380247Y-60812255D01*
X43321770Y-60823886D01*
X43321769Y-60823887D01*
X43255447Y-60868202D01*
X43211132Y-60934524D01*
X43211131Y-60934525D01*
X43199500Y-60993002D01*
X43199500Y-61388255D01*
X43179815Y-61455294D01*
X43127011Y-61501049D01*
X43075500Y-61512255D01*
X35737105Y-61512255D01*
X35670066Y-61492570D01*
X35638151Y-61462982D01*
X35590979Y-61400516D01*
X35426562Y-61250631D01*
X35426560Y-61250629D01*
X35237404Y-61133509D01*
X35237398Y-61133507D01*
X35029940Y-61053137D01*
X34811243Y-61012255D01*
X34588757Y-61012255D01*
X34588754Y-61012255D01*
X34569926Y-61015774D01*
X34500412Y-61008739D01*
X34459467Y-60981565D01*
X30736819Y-57258917D01*
X30703334Y-57197594D01*
X30700500Y-57171236D01*
X30700500Y-56617255D01*
X30720185Y-56550216D01*
X30772989Y-56504461D01*
X30824500Y-56493255D01*
X31519750Y-56493255D01*
X31519751Y-56493254D01*
X31534568Y-56490307D01*
X31578229Y-56481623D01*
X31578229Y-56481622D01*
X31578231Y-56481622D01*
X31644552Y-56437307D01*
X31688867Y-56370986D01*
X31688867Y-56370984D01*
X31688868Y-56370984D01*
X31700499Y-56312507D01*
X31700500Y-56312505D01*
X31700500Y-54712750D01*
X42895233Y-54712750D01*
X42895233Y-54712759D01*
X42914273Y-54966834D01*
X42970968Y-55215232D01*
X42970973Y-55215249D01*
X43064058Y-55452426D01*
X43064057Y-55452426D01*
X43191457Y-55673087D01*
X43233452Y-55725748D01*
X44035387Y-54923813D01*
X44040889Y-54944346D01*
X44119881Y-55081163D01*
X44231592Y-55192874D01*
X44368409Y-55271866D01*
X44388940Y-55277367D01*
X43586813Y-56079492D01*
X43747623Y-56189130D01*
X43747624Y-56189131D01*
X43977176Y-56299676D01*
X43977174Y-56299676D01*
X44220652Y-56374779D01*
X44220658Y-56374781D01*
X44472595Y-56412754D01*
X44472604Y-56412755D01*
X44727396Y-56412755D01*
X44727404Y-56412754D01*
X44979341Y-56374781D01*
X44979347Y-56374779D01*
X45222824Y-56299676D01*
X45452381Y-56189128D01*
X45613185Y-56079492D01*
X44811059Y-55277367D01*
X44831591Y-55271866D01*
X44968408Y-55192874D01*
X45080119Y-55081163D01*
X45159111Y-54944346D01*
X45164612Y-54923814D01*
X45966545Y-55725748D01*
X46008545Y-55673082D01*
X46135941Y-55452426D01*
X46229026Y-55215249D01*
X46229031Y-55215232D01*
X46285726Y-54966834D01*
X46304767Y-54712759D01*
X46304767Y-54712750D01*
X46285726Y-54458675D01*
X46229031Y-54210277D01*
X46229026Y-54210260D01*
X46135941Y-53973083D01*
X46135942Y-53973083D01*
X46008544Y-53752426D01*
X45966546Y-53699761D01*
X45164612Y-54501694D01*
X45159111Y-54481164D01*
X45080119Y-54344347D01*
X44968408Y-54232636D01*
X44831591Y-54153644D01*
X44811058Y-54148142D01*
X45613185Y-53346016D01*
X45452377Y-53236379D01*
X45452376Y-53236378D01*
X45222823Y-53125833D01*
X45222825Y-53125833D01*
X44979347Y-53050730D01*
X44979341Y-53050728D01*
X44727404Y-53012755D01*
X44472595Y-53012755D01*
X44220658Y-53050728D01*
X44220652Y-53050730D01*
X43977175Y-53125833D01*
X43747624Y-53236378D01*
X43747616Y-53236383D01*
X43586813Y-53346016D01*
X44388940Y-54148142D01*
X44368409Y-54153644D01*
X44231592Y-54232636D01*
X44119881Y-54344347D01*
X44040889Y-54481164D01*
X44035387Y-54501695D01*
X43233453Y-53699761D01*
X43191455Y-53752425D01*
X43064058Y-53973083D01*
X42970973Y-54210260D01*
X42970968Y-54210277D01*
X42914273Y-54458675D01*
X42895233Y-54712750D01*
X31700500Y-54712750D01*
X31700500Y-53273004D01*
X31700499Y-53273002D01*
X31688868Y-53214525D01*
X31688867Y-53214524D01*
X31644552Y-53148202D01*
X31578230Y-53103887D01*
X31578229Y-53103886D01*
X31519752Y-53092255D01*
X31519748Y-53092255D01*
X28480252Y-53092255D01*
X28480247Y-53092255D01*
X28421770Y-53103886D01*
X28421769Y-53103887D01*
X28355447Y-53148202D01*
X28311132Y-53214524D01*
X28311131Y-53214525D01*
X28299500Y-53273002D01*
X26025500Y-53273002D01*
X26025500Y-49712753D01*
X27994891Y-49712753D01*
X27994891Y-49712756D01*
X28015300Y-49998117D01*
X28076109Y-50277650D01*
X28176091Y-50545713D01*
X28313191Y-50796793D01*
X28313196Y-50796801D01*
X28419882Y-50939317D01*
X28419883Y-50939318D01*
X29314767Y-50044433D01*
X29326497Y-50072750D01*
X29409670Y-50197227D01*
X29515528Y-50303085D01*
X29640005Y-50386258D01*
X29668320Y-50397986D01*
X28773435Y-51292870D01*
X28773436Y-51292871D01*
X28915953Y-51399558D01*
X28915961Y-51399563D01*
X29167042Y-51536663D01*
X29167041Y-51536663D01*
X29435104Y-51636645D01*
X29714637Y-51697454D01*
X29999999Y-51717864D01*
X30000001Y-51717864D01*
X30285362Y-51697454D01*
X30564895Y-51636645D01*
X30832958Y-51536663D01*
X31084038Y-51399563D01*
X31084039Y-51399562D01*
X31226563Y-51292870D01*
X30331679Y-50397986D01*
X30359995Y-50386258D01*
X30484472Y-50303085D01*
X30590330Y-50197227D01*
X30673503Y-50072750D01*
X30685231Y-50044434D01*
X31580115Y-50939318D01*
X31686807Y-50796794D01*
X31686808Y-50796793D01*
X31823908Y-50545713D01*
X31923890Y-50277650D01*
X31984699Y-49998117D01*
X32005109Y-49712756D01*
X32005109Y-49712753D01*
X32005109Y-49712749D01*
X84694859Y-49712749D01*
X84694859Y-49712760D01*
X84715385Y-49960484D01*
X84715387Y-49960493D01*
X84776412Y-50201472D01*
X84876267Y-50429122D01*
X84976562Y-50582636D01*
X85717037Y-49842163D01*
X85734075Y-49905748D01*
X85799901Y-50019762D01*
X85892993Y-50112854D01*
X86007007Y-50178680D01*
X86070591Y-50195717D01*
X85329943Y-50936364D01*
X85376768Y-50972810D01*
X85376771Y-50972812D01*
X85595385Y-51091119D01*
X85595396Y-51091124D01*
X85830506Y-51171838D01*
X86075707Y-51212755D01*
X86324293Y-51212755D01*
X86569493Y-51171838D01*
X86804603Y-51091124D01*
X86804614Y-51091119D01*
X87023230Y-50972811D01*
X87023236Y-50972806D01*
X87070055Y-50936365D01*
X87070056Y-50936364D01*
X86329408Y-50195717D01*
X86392993Y-50178680D01*
X86507007Y-50112854D01*
X86600099Y-50019762D01*
X86665925Y-49905748D01*
X86682962Y-49842164D01*
X87423435Y-50582637D01*
X87523733Y-50429119D01*
X87623587Y-50201472D01*
X87684612Y-49960493D01*
X87684614Y-49960484D01*
X87705141Y-49712760D01*
X87705141Y-49712753D01*
X89994891Y-49712753D01*
X89994891Y-49712756D01*
X90015300Y-49998117D01*
X90076109Y-50277650D01*
X90176091Y-50545713D01*
X90313191Y-50796793D01*
X90313196Y-50796801D01*
X90419882Y-50939317D01*
X90419883Y-50939318D01*
X91314768Y-50044433D01*
X91326497Y-50072750D01*
X91409670Y-50197227D01*
X91515528Y-50303085D01*
X91640005Y-50386258D01*
X91668320Y-50397986D01*
X90773435Y-51292870D01*
X90773436Y-51292871D01*
X90915953Y-51399558D01*
X90915961Y-51399563D01*
X91167042Y-51536663D01*
X91167041Y-51536663D01*
X91435104Y-51636645D01*
X91714637Y-51697454D01*
X91999999Y-51717864D01*
X92000001Y-51717864D01*
X92285362Y-51697454D01*
X92564895Y-51636645D01*
X92832958Y-51536663D01*
X93084038Y-51399563D01*
X93084039Y-51399562D01*
X93226563Y-51292870D01*
X92331679Y-50397986D01*
X92359995Y-50386258D01*
X92484472Y-50303085D01*
X92590330Y-50197227D01*
X92673503Y-50072750D01*
X92685231Y-50044434D01*
X93580115Y-50939318D01*
X93686807Y-50796794D01*
X93686808Y-50796793D01*
X93823908Y-50545713D01*
X93923890Y-50277650D01*
X93984699Y-49998117D01*
X94005109Y-49712756D01*
X94005109Y-49712753D01*
X93984699Y-49427392D01*
X93923890Y-49147859D01*
X93823908Y-48879796D01*
X93686808Y-48628716D01*
X93686803Y-48628708D01*
X93580116Y-48486191D01*
X93580115Y-48486190D01*
X92685231Y-49381075D01*
X92673503Y-49352760D01*
X92590330Y-49228283D01*
X92484472Y-49122425D01*
X92359995Y-49039252D01*
X92331678Y-49027522D01*
X93226563Y-48132638D01*
X93226562Y-48132637D01*
X93084046Y-48025951D01*
X93084038Y-48025946D01*
X92832957Y-47888846D01*
X92832958Y-47888846D01*
X92564895Y-47788864D01*
X92285362Y-47728055D01*
X92000001Y-47707646D01*
X91999999Y-47707646D01*
X91714637Y-47728055D01*
X91435104Y-47788864D01*
X91167041Y-47888846D01*
X90915961Y-48025946D01*
X90915953Y-48025951D01*
X90773435Y-48132637D01*
X91668321Y-49027522D01*
X91640005Y-49039252D01*
X91515528Y-49122425D01*
X91409670Y-49228283D01*
X91326497Y-49352760D01*
X91314768Y-49381076D01*
X90419882Y-48486190D01*
X90313196Y-48628708D01*
X90313191Y-48628716D01*
X90176091Y-48879796D01*
X90076109Y-49147859D01*
X90015300Y-49427392D01*
X89994891Y-49712753D01*
X87705141Y-49712753D01*
X87705141Y-49712749D01*
X87684614Y-49465025D01*
X87684612Y-49465016D01*
X87623587Y-49224037D01*
X87523732Y-48996387D01*
X87423435Y-48842871D01*
X86682962Y-49583345D01*
X86665925Y-49519762D01*
X86600099Y-49405748D01*
X86507007Y-49312656D01*
X86392993Y-49246830D01*
X86329409Y-49229792D01*
X87070055Y-48489144D01*
X87070055Y-48489143D01*
X87023236Y-48452702D01*
X87023231Y-48452699D01*
X86804614Y-48334390D01*
X86804603Y-48334385D01*
X86569493Y-48253671D01*
X86324293Y-48212755D01*
X86075707Y-48212755D01*
X85830506Y-48253671D01*
X85595396Y-48334385D01*
X85595385Y-48334390D01*
X85376770Y-48452698D01*
X85329943Y-48489144D01*
X86070591Y-49229792D01*
X86007007Y-49246830D01*
X85892993Y-49312656D01*
X85799901Y-49405748D01*
X85734075Y-49519762D01*
X85717037Y-49583346D01*
X84976563Y-48842872D01*
X84876267Y-48996388D01*
X84876265Y-48996392D01*
X84776412Y-49224037D01*
X84715387Y-49465016D01*
X84715385Y-49465025D01*
X84694859Y-49712749D01*
X32005109Y-49712749D01*
X31984699Y-49427392D01*
X31923890Y-49147859D01*
X31823908Y-48879796D01*
X31686808Y-48628716D01*
X31686803Y-48628708D01*
X31580116Y-48486191D01*
X31580115Y-48486190D01*
X30685231Y-49381075D01*
X30673503Y-49352760D01*
X30590330Y-49228283D01*
X30484472Y-49122425D01*
X30359995Y-49039252D01*
X30331678Y-49027522D01*
X31226563Y-48132638D01*
X31226562Y-48132637D01*
X31084046Y-48025951D01*
X31084038Y-48025946D01*
X30832957Y-47888846D01*
X30832958Y-47888846D01*
X30564895Y-47788864D01*
X30285362Y-47728055D01*
X30000001Y-47707646D01*
X29999999Y-47707646D01*
X29714637Y-47728055D01*
X29435104Y-47788864D01*
X29167041Y-47888846D01*
X28915961Y-48025946D01*
X28915953Y-48025951D01*
X28773435Y-48132637D01*
X29668321Y-49027522D01*
X29640005Y-49039252D01*
X29515528Y-49122425D01*
X29409670Y-49228283D01*
X29326497Y-49352760D01*
X29314768Y-49381076D01*
X28419882Y-48486190D01*
X28313196Y-48628708D01*
X28313191Y-48628716D01*
X28176091Y-48879796D01*
X28076109Y-49147859D01*
X28015300Y-49427392D01*
X27994891Y-49712753D01*
X26025500Y-49712753D01*
X26025500Y-44632750D01*
X28294732Y-44632750D01*
X28294732Y-44632759D01*
X28313777Y-44886909D01*
X28358114Y-45081163D01*
X28370492Y-45135392D01*
X28463607Y-45372643D01*
X28591041Y-45593367D01*
X28749950Y-45792632D01*
X28936783Y-45965987D01*
X29147366Y-46109560D01*
X29147371Y-46109562D01*
X29147372Y-46109563D01*
X29147373Y-46109564D01*
X29236538Y-46152503D01*
X29376992Y-46220142D01*
X29376993Y-46220142D01*
X29376996Y-46220144D01*
X29620542Y-46295268D01*
X29872565Y-46333255D01*
X30127435Y-46333255D01*
X30379458Y-46295268D01*
X30623004Y-46220144D01*
X30852634Y-46109560D01*
X31063217Y-45965987D01*
X31250050Y-45792632D01*
X31408959Y-45593367D01*
X31536393Y-45372643D01*
X31629508Y-45135392D01*
X31686222Y-44886912D01*
X31694384Y-44777987D01*
X31705268Y-44632759D01*
X31705268Y-44632750D01*
X31686222Y-44378600D01*
X31634877Y-44153644D01*
X31629508Y-44130118D01*
X31536393Y-43892867D01*
X31408959Y-43672143D01*
X31250050Y-43472878D01*
X31241463Y-43464910D01*
X42900000Y-43464910D01*
X42900000Y-44462755D01*
X44051518Y-44462755D01*
X44040889Y-44481164D01*
X44000000Y-44633764D01*
X44000000Y-44791746D01*
X44040889Y-44944346D01*
X44051518Y-44962755D01*
X42900000Y-44962755D01*
X42900000Y-45960599D01*
X42906401Y-46020127D01*
X42906403Y-46020134D01*
X42956645Y-46154841D01*
X42956649Y-46154848D01*
X43042809Y-46269942D01*
X43042812Y-46269945D01*
X43157906Y-46356105D01*
X43157913Y-46356109D01*
X43292620Y-46406351D01*
X43292627Y-46406353D01*
X43352155Y-46412754D01*
X43352172Y-46412755D01*
X44350000Y-46412755D01*
X44350000Y-45261237D01*
X44368409Y-45271866D01*
X44521009Y-45312755D01*
X44678991Y-45312755D01*
X44831591Y-45271866D01*
X44850000Y-45261237D01*
X44850000Y-46412755D01*
X45847828Y-46412755D01*
X45847844Y-46412754D01*
X45907372Y-46406353D01*
X45907379Y-46406351D01*
X46042086Y-46356109D01*
X46042093Y-46356105D01*
X46157187Y-46269945D01*
X46157190Y-46269942D01*
X46243350Y-46154848D01*
X46243354Y-46154841D01*
X46293596Y-46020134D01*
X46293598Y-46020127D01*
X46299999Y-45960599D01*
X46300000Y-45960582D01*
X46300000Y-44962755D01*
X45148482Y-44962755D01*
X45159111Y-44944346D01*
X45200000Y-44791746D01*
X45200000Y-44633764D01*
X45159111Y-44481164D01*
X45148482Y-44462755D01*
X46300000Y-44462755D01*
X46300000Y-43464927D01*
X46299999Y-43464910D01*
X46293598Y-43405382D01*
X46293596Y-43405375D01*
X46243354Y-43270668D01*
X46243350Y-43270661D01*
X46157190Y-43155567D01*
X46157187Y-43155564D01*
X46042093Y-43069404D01*
X46042086Y-43069400D01*
X45907379Y-43019158D01*
X45907372Y-43019156D01*
X45847844Y-43012755D01*
X44850000Y-43012755D01*
X44850000Y-44164272D01*
X44831591Y-44153644D01*
X44678991Y-44112755D01*
X44521009Y-44112755D01*
X44368409Y-44153644D01*
X44350000Y-44164272D01*
X44350000Y-43012755D01*
X43352155Y-43012755D01*
X43292627Y-43019156D01*
X43292620Y-43019158D01*
X43157913Y-43069400D01*
X43157906Y-43069404D01*
X43042812Y-43155564D01*
X43042809Y-43155567D01*
X42956649Y-43270661D01*
X42956645Y-43270668D01*
X42906403Y-43405375D01*
X42906401Y-43405382D01*
X42900000Y-43464910D01*
X31241463Y-43464910D01*
X31063217Y-43299523D01*
X30852634Y-43155950D01*
X30852631Y-43155949D01*
X30852629Y-43155947D01*
X30770698Y-43116491D01*
X30718838Y-43069668D01*
X30700500Y-43004771D01*
X30700500Y-42154273D01*
X30720185Y-42087234D01*
X30736819Y-42066592D01*
X32355973Y-40447438D01*
X34359469Y-38443941D01*
X34420790Y-38410458D01*
X34469932Y-38409736D01*
X34488757Y-38413255D01*
X34488759Y-38413255D01*
X34711241Y-38413255D01*
X34711243Y-38413255D01*
X34929940Y-38372373D01*
X35137401Y-38292002D01*
X35326562Y-38174879D01*
X35490981Y-38024991D01*
X35538151Y-37962528D01*
X35594260Y-37920892D01*
X35637105Y-37913255D01*
X43317649Y-37913255D01*
X43384688Y-37932940D01*
X43421458Y-37969434D01*
X43491016Y-38075902D01*
X43491019Y-38075906D01*
X43491021Y-38075908D01*
X43648216Y-38246668D01*
X43648219Y-38246670D01*
X43648222Y-38246673D01*
X43831365Y-38389219D01*
X43831371Y-38389223D01*
X43831374Y-38389225D01*
X44035497Y-38499691D01*
X44105928Y-38523870D01*
X44255015Y-38575052D01*
X44255017Y-38575052D01*
X44255019Y-38575053D01*
X44483951Y-38613255D01*
X44483952Y-38613255D01*
X44716048Y-38613255D01*
X44716049Y-38613255D01*
X44944981Y-38575053D01*
X45164503Y-38499691D01*
X45368626Y-38389225D01*
X45398781Y-38365755D01*
X45437953Y-38335266D01*
X45551784Y-38246668D01*
X45708979Y-38075908D01*
X45708983Y-38075902D01*
X45778542Y-37969434D01*
X45831688Y-37924077D01*
X45882351Y-37913255D01*
X54631007Y-37913255D01*
X54768993Y-37913255D01*
X56773075Y-37913255D01*
X56840114Y-37932940D01*
X56869385Y-37960584D01*
X56869869Y-37960171D01*
X56873039Y-37963882D01*
X56873041Y-37963884D01*
X57001371Y-38092214D01*
X57148196Y-38198889D01*
X57241968Y-38246668D01*
X57309904Y-38281283D01*
X57482501Y-38337363D01*
X57482502Y-38337363D01*
X57482505Y-38337364D01*
X57617331Y-38358718D01*
X57627202Y-38360282D01*
X57690337Y-38390211D01*
X57727268Y-38449523D01*
X57726270Y-38519385D01*
X57687660Y-38577618D01*
X57627202Y-38605228D01*
X57482503Y-38628146D01*
X57482500Y-38628146D01*
X57309904Y-38684226D01*
X57148195Y-38766621D01*
X57112644Y-38792451D01*
X57001371Y-38873296D01*
X57001369Y-38873298D01*
X57001368Y-38873298D01*
X56873043Y-39001623D01*
X56873043Y-39001624D01*
X56873041Y-39001626D01*
X56869049Y-39007121D01*
X56766366Y-39148450D01*
X56684611Y-39308904D01*
X56661807Y-39340290D01*
X55046162Y-40955936D01*
X54984839Y-40989421D01*
X54958481Y-40992255D01*
X53580247Y-40992255D01*
X53521770Y-41003886D01*
X53521769Y-41003887D01*
X53455447Y-41048202D01*
X53411132Y-41114524D01*
X53411131Y-41114525D01*
X53399500Y-41173002D01*
X53399500Y-43412507D01*
X53411131Y-43470984D01*
X53411132Y-43470985D01*
X53455447Y-43537307D01*
X53521769Y-43581622D01*
X53521770Y-43581623D01*
X53580247Y-43593254D01*
X53580250Y-43593255D01*
X53580252Y-43593255D01*
X55819750Y-43593255D01*
X55819751Y-43593254D01*
X55834568Y-43590307D01*
X55878229Y-43581623D01*
X55878229Y-43581622D01*
X55878231Y-43581622D01*
X55944552Y-43537307D01*
X55988867Y-43470986D01*
X55988867Y-43470984D01*
X55988868Y-43470984D01*
X56000499Y-43412507D01*
X56000500Y-43412505D01*
X56000500Y-42034272D01*
X56020185Y-41967233D01*
X56036814Y-41946595D01*
X57148305Y-40835104D01*
X57209626Y-40801621D01*
X57279318Y-40806605D01*
X57292277Y-40812301D01*
X57309902Y-40821282D01*
X57482505Y-40877364D01*
X57661757Y-40905755D01*
X57661758Y-40905755D01*
X57938238Y-40905755D01*
X57938243Y-40905755D01*
X57940715Y-40905363D01*
X57941715Y-40905481D01*
X57943096Y-40905373D01*
X57943117Y-40905647D01*
X58007571Y-40913274D01*
X58082864Y-40944461D01*
X58082866Y-40944463D01*
X58135666Y-40966333D01*
X58135671Y-40966335D01*
X58135680Y-40966336D01*
X58135681Y-40966337D01*
X58162545Y-40971680D01*
X58162551Y-40971681D01*
X58162591Y-40971689D01*
X58251733Y-40989421D01*
X58271006Y-40993255D01*
X58271007Y-40993255D01*
X86038327Y-40993255D01*
X86105366Y-41012940D01*
X86139902Y-41046132D01*
X86199954Y-41131896D01*
X86360858Y-41292800D01*
X86360861Y-41292802D01*
X86547266Y-41423323D01*
X86753504Y-41519494D01*
X86973308Y-41578390D01*
X87135230Y-41592556D01*
X87199998Y-41598223D01*
X87200000Y-41598223D01*
X87200002Y-41598223D01*
X87256673Y-41593264D01*
X87426692Y-41578390D01*
X87646496Y-41519494D01*
X87852734Y-41423323D01*
X88039139Y-41292802D01*
X88200047Y-41131894D01*
X88246365Y-41065744D01*
X88260098Y-41046132D01*
X88314675Y-41002507D01*
X88361673Y-40993255D01*
X91175500Y-40993255D01*
X91242539Y-41012940D01*
X91288294Y-41065744D01*
X91299500Y-41117255D01*
X91299500Y-42808255D01*
X91279815Y-42875294D01*
X91227011Y-42921049D01*
X91175500Y-42932255D01*
X90480247Y-42932255D01*
X90421770Y-42943886D01*
X90421769Y-42943887D01*
X90355447Y-42988202D01*
X90311132Y-43054524D01*
X90311131Y-43054525D01*
X90299500Y-43113002D01*
X90299500Y-46152507D01*
X90311131Y-46210984D01*
X90311132Y-46210985D01*
X90355447Y-46277307D01*
X90421769Y-46321622D01*
X90421770Y-46321623D01*
X90480247Y-46333254D01*
X90480250Y-46333255D01*
X90480252Y-46333255D01*
X93519750Y-46333255D01*
X93519751Y-46333254D01*
X93534568Y-46330307D01*
X93578229Y-46321623D01*
X93578229Y-46321622D01*
X93578231Y-46321622D01*
X93644552Y-46277307D01*
X93688867Y-46210986D01*
X93688867Y-46210984D01*
X93688868Y-46210984D01*
X93697552Y-46167323D01*
X93700500Y-46152503D01*
X93700500Y-43113007D01*
X93700500Y-43113004D01*
X93700499Y-43113002D01*
X93688868Y-43054525D01*
X93688867Y-43054524D01*
X93644552Y-42988202D01*
X93578230Y-42943887D01*
X93578229Y-42943886D01*
X93519752Y-42932255D01*
X93519748Y-42932255D01*
X92824500Y-42932255D01*
X92757461Y-42912570D01*
X92711706Y-42859766D01*
X92700500Y-42808255D01*
X92700500Y-40853389D01*
X92720185Y-40786350D01*
X92740962Y-40761752D01*
X92890979Y-40624993D01*
X93025056Y-40447446D01*
X93025058Y-40447444D01*
X93124229Y-40248283D01*
X93185115Y-40034291D01*
X93205643Y-39812755D01*
X93192781Y-39673958D01*
X93206196Y-39605392D01*
X93228568Y-39574842D01*
X93919114Y-38884298D01*
X93995775Y-38769566D01*
X93999292Y-38761077D01*
X94048578Y-38642087D01*
X94048580Y-38642083D01*
X94061913Y-38575053D01*
X94075500Y-38506751D01*
X94075500Y-34937255D01*
X94095185Y-34870216D01*
X94147989Y-34824461D01*
X94199500Y-34813255D01*
X94294750Y-34813255D01*
X94294751Y-34813254D01*
X94309568Y-34810307D01*
X94353229Y-34801623D01*
X94353229Y-34801622D01*
X94353231Y-34801622D01*
X94419552Y-34757307D01*
X94463867Y-34690986D01*
X94463867Y-34690984D01*
X94463868Y-34690984D01*
X94475499Y-34632507D01*
X94475500Y-34632505D01*
X94475500Y-32793004D01*
X94475499Y-32793002D01*
X94463868Y-32734525D01*
X94463867Y-32734524D01*
X94419552Y-32668202D01*
X94353230Y-32623887D01*
X94353229Y-32623886D01*
X94294752Y-32612255D01*
X94294748Y-32612255D01*
X92455252Y-32612255D01*
X92455247Y-32612255D01*
X92396770Y-32623886D01*
X92396769Y-32623887D01*
X92330447Y-32668202D01*
X92286132Y-32734524D01*
X92286131Y-32734525D01*
X92274500Y-32793002D01*
X92274500Y-34632507D01*
X92286131Y-34690984D01*
X92286132Y-34690985D01*
X92330447Y-34757307D01*
X92396769Y-34801622D01*
X92396770Y-34801623D01*
X92455247Y-34813254D01*
X92455250Y-34813255D01*
X92455252Y-34813255D01*
X92550500Y-34813255D01*
X92617539Y-34832940D01*
X92663294Y-34885744D01*
X92674500Y-34937255D01*
X92674500Y-38096235D01*
X92654815Y-38163274D01*
X92638181Y-38183916D01*
X92240531Y-38581565D01*
X92179208Y-38615050D01*
X92130070Y-38615774D01*
X92122968Y-38614446D01*
X92111243Y-38612255D01*
X91888757Y-38612255D01*
X91670060Y-38653137D01*
X91589805Y-38684228D01*
X91462601Y-38733507D01*
X91462595Y-38733509D01*
X91273439Y-38850629D01*
X91273437Y-38850631D01*
X91109020Y-39000516D01*
X90974943Y-39178063D01*
X90974938Y-39178071D01*
X90875775Y-39377216D01*
X90875770Y-39377229D01*
X90840216Y-39502190D01*
X90802937Y-39561283D01*
X90739627Y-39590840D01*
X90720950Y-39592255D01*
X88361673Y-39592255D01*
X88294634Y-39572570D01*
X88260098Y-39539378D01*
X88200045Y-39453613D01*
X88039141Y-39292709D01*
X87852734Y-39162187D01*
X87852732Y-39162186D01*
X87646497Y-39066016D01*
X87646488Y-39066013D01*
X87426697Y-39007121D01*
X87426693Y-39007120D01*
X87426692Y-39007120D01*
X87426691Y-39007119D01*
X87426686Y-39007119D01*
X87200002Y-38987287D01*
X87199998Y-38987287D01*
X86973313Y-39007119D01*
X86973302Y-39007121D01*
X86753511Y-39066013D01*
X86753502Y-39066016D01*
X86547267Y-39162186D01*
X86547265Y-39162187D01*
X86360858Y-39292709D01*
X86199954Y-39453613D01*
X86139902Y-39539378D01*
X86085325Y-39583003D01*
X86038327Y-39592255D01*
X84840625Y-39592255D01*
X84773586Y-39572570D01*
X84727831Y-39519766D01*
X84717887Y-39450608D01*
X84744772Y-39389590D01*
X84835909Y-39278539D01*
X84835913Y-39278532D01*
X84928811Y-39104733D01*
X84928811Y-39104732D01*
X84928814Y-39104727D01*
X84986024Y-38916132D01*
X84993856Y-38836603D01*
X85020016Y-38771818D01*
X85029569Y-38761086D01*
X89341083Y-34449574D01*
X89402406Y-34416089D01*
X89428764Y-34413255D01*
X89923301Y-34413255D01*
X89990340Y-34432940D01*
X90014937Y-34453716D01*
X90018234Y-34457333D01*
X90168958Y-34594735D01*
X90168960Y-34594737D01*
X90178019Y-34600346D01*
X90342363Y-34702103D01*
X90532544Y-34775779D01*
X90733024Y-34813255D01*
X90733026Y-34813255D01*
X90936974Y-34813255D01*
X90936976Y-34813255D01*
X91137456Y-34775779D01*
X91327637Y-34702103D01*
X91501041Y-34594736D01*
X91651764Y-34457334D01*
X91774673Y-34294576D01*
X91865582Y-34112005D01*
X91921397Y-33915838D01*
X91940215Y-33712755D01*
X91921397Y-33509672D01*
X91865582Y-33313505D01*
X91856082Y-33294427D01*
X91793449Y-33168642D01*
X91774673Y-33130934D01*
X91651764Y-32968176D01*
X91651762Y-32968173D01*
X91501041Y-32830774D01*
X91501039Y-32830772D01*
X91327642Y-32723410D01*
X91327635Y-32723406D01*
X91185135Y-32668202D01*
X91137456Y-32649731D01*
X90936976Y-32612255D01*
X90733024Y-32612255D01*
X90532544Y-32649731D01*
X90532541Y-32649731D01*
X90532541Y-32649732D01*
X90342364Y-32723406D01*
X90342357Y-32723410D01*
X90168960Y-32830772D01*
X90168958Y-32830774D01*
X90018234Y-32968176D01*
X90014937Y-32971794D01*
X89955226Y-33008075D01*
X89923301Y-33012255D01*
X89018249Y-33012255D01*
X88882922Y-33039173D01*
X88882912Y-33039176D01*
X88755437Y-33091977D01*
X88640699Y-33168642D01*
X84127664Y-37681677D01*
X84066341Y-37715162D01*
X84027833Y-37717399D01*
X84000004Y-37714659D01*
X84000000Y-37714659D01*
X83803870Y-37733975D01*
X83615266Y-37791188D01*
X83441467Y-37884086D01*
X83441460Y-37884090D01*
X83289116Y-38009116D01*
X83164090Y-38161460D01*
X83164086Y-38161467D01*
X83071188Y-38335266D01*
X83013975Y-38523870D01*
X82994659Y-38720000D01*
X83013975Y-38916129D01*
X83013976Y-38916132D01*
X83039910Y-39001626D01*
X83071188Y-39104733D01*
X83164086Y-39278532D01*
X83164090Y-39278539D01*
X83255228Y-39389590D01*
X83282541Y-39453900D01*
X83270750Y-39522767D01*
X83223598Y-39574328D01*
X83159375Y-39592255D01*
X59250518Y-39592255D01*
X59183479Y-39572570D01*
X59137724Y-39519766D01*
X59127780Y-39450608D01*
X59156805Y-39387052D01*
X59162837Y-39380574D01*
X59771594Y-38771818D01*
X60544114Y-37999298D01*
X60620775Y-37884566D01*
X60620973Y-37884090D01*
X60673578Y-37757087D01*
X60673580Y-37757083D01*
X60682389Y-37712795D01*
X60700500Y-37621751D01*
X60700500Y-30849999D01*
X82721127Y-30849999D01*
X82721128Y-30850000D01*
X83684314Y-30850000D01*
X83679920Y-30854394D01*
X83627259Y-30945606D01*
X83600000Y-31047339D01*
X83600000Y-31152661D01*
X83627259Y-31254394D01*
X83679920Y-31345606D01*
X83684314Y-31350000D01*
X82721128Y-31350000D01*
X82773730Y-31546317D01*
X82773734Y-31546326D01*
X82869865Y-31752482D01*
X83000342Y-31938820D01*
X83161179Y-32099657D01*
X83347517Y-32230134D01*
X83553673Y-32326265D01*
X83553682Y-32326269D01*
X83749999Y-32378872D01*
X83750000Y-32378871D01*
X83750000Y-31415686D01*
X83754394Y-31420080D01*
X83845606Y-31472741D01*
X83947339Y-31500000D01*
X84052661Y-31500000D01*
X84154394Y-31472741D01*
X84245606Y-31420080D01*
X84250000Y-31415686D01*
X84250000Y-32378872D01*
X84446317Y-32326269D01*
X84446326Y-32326265D01*
X84652482Y-32230134D01*
X84838820Y-32099657D01*
X84999657Y-31938820D01*
X85130134Y-31752482D01*
X85226265Y-31546326D01*
X85226269Y-31546317D01*
X85278872Y-31350000D01*
X84315686Y-31350000D01*
X84320080Y-31345606D01*
X84372741Y-31254394D01*
X84400000Y-31152661D01*
X84400000Y-31047339D01*
X84372741Y-30945606D01*
X84320080Y-30854394D01*
X84315686Y-30850000D01*
X85278872Y-30850000D01*
X85278872Y-30849999D01*
X85226269Y-30653682D01*
X85226265Y-30653673D01*
X85130134Y-30447517D01*
X84999657Y-30261179D01*
X84838820Y-30100342D01*
X84652482Y-29969865D01*
X84446328Y-29873734D01*
X84250000Y-29821127D01*
X84250000Y-30784314D01*
X84245606Y-30779920D01*
X84154394Y-30727259D01*
X84052661Y-30700000D01*
X83947339Y-30700000D01*
X83845606Y-30727259D01*
X83754394Y-30779920D01*
X83750000Y-30784314D01*
X83750000Y-29821127D01*
X83553671Y-29873734D01*
X83347517Y-29969865D01*
X83161179Y-30100342D01*
X83000342Y-30261179D01*
X82869865Y-30447517D01*
X82773734Y-30653673D01*
X82773730Y-30653682D01*
X82721127Y-30849999D01*
X60700500Y-30849999D01*
X60700500Y-29180657D01*
X60720185Y-29113618D01*
X60728642Y-29101997D01*
X60835910Y-28971293D01*
X60903877Y-28844136D01*
X60928811Y-28797488D01*
X60928811Y-28797487D01*
X60928814Y-28797482D01*
X60986024Y-28608887D01*
X61005341Y-28412755D01*
X60986024Y-28216623D01*
X60928814Y-28028028D01*
X60928811Y-28028024D01*
X60928811Y-28028021D01*
X60835913Y-27854222D01*
X60835909Y-27854215D01*
X60710883Y-27701871D01*
X60558539Y-27576845D01*
X60558532Y-27576841D01*
X60384733Y-27483943D01*
X60384727Y-27483941D01*
X60272839Y-27450000D01*
X72161716Y-27450000D01*
X73270898Y-27450000D01*
X73250000Y-27581947D01*
X73250000Y-27818053D01*
X73270898Y-27950000D01*
X72161716Y-27950000D01*
X72182694Y-28136189D01*
X72182696Y-28136201D01*
X72247678Y-28420910D01*
X72247681Y-28420918D01*
X72344129Y-28696548D01*
X72470831Y-28959648D01*
X72626199Y-29206914D01*
X72808274Y-29435230D01*
X73014769Y-29641725D01*
X73243085Y-29823800D01*
X73490351Y-29979168D01*
X73753451Y-30105870D01*
X74029081Y-30202318D01*
X74029089Y-30202321D01*
X74313798Y-30267303D01*
X74313812Y-30267306D01*
X74603980Y-30299999D01*
X74603984Y-30300000D01*
X75750000Y-30300000D01*
X75750000Y-29200000D01*
X76250000Y-29200000D01*
X76250000Y-30300000D01*
X77396016Y-30300000D01*
X77396019Y-30299999D01*
X77686187Y-30267306D01*
X77686201Y-30267303D01*
X77970910Y-30202321D01*
X77970918Y-30202318D01*
X78246548Y-30105870D01*
X78509648Y-29979168D01*
X78756914Y-29823800D01*
X78985230Y-29641725D01*
X79191725Y-29435230D01*
X79373800Y-29206914D01*
X79513295Y-28984910D01*
X85600000Y-28984910D01*
X85600000Y-29882755D01*
X86709252Y-29882755D01*
X86687482Y-29920463D01*
X86650000Y-30060346D01*
X86650000Y-30205164D01*
X86687482Y-30345047D01*
X86709252Y-30382755D01*
X85600000Y-30382755D01*
X85600000Y-31280599D01*
X85606401Y-31340127D01*
X85606403Y-31340134D01*
X85656645Y-31474841D01*
X85656649Y-31474848D01*
X85742809Y-31589942D01*
X85742812Y-31589945D01*
X85857906Y-31676105D01*
X85857913Y-31676109D01*
X85992620Y-31726351D01*
X85992627Y-31726353D01*
X86052155Y-31732754D01*
X86052172Y-31732755D01*
X86950000Y-31732755D01*
X86950000Y-30623502D01*
X86987708Y-30645273D01*
X87127591Y-30682755D01*
X87272409Y-30682755D01*
X87412292Y-30645273D01*
X87450000Y-30623502D01*
X87450000Y-31732755D01*
X88347828Y-31732755D01*
X88347844Y-31732754D01*
X88407372Y-31726353D01*
X88407379Y-31726351D01*
X88542086Y-31676109D01*
X88542093Y-31676105D01*
X88657187Y-31589945D01*
X88657190Y-31589942D01*
X88743350Y-31474848D01*
X88743354Y-31474841D01*
X88793596Y-31340134D01*
X88793598Y-31340127D01*
X88799999Y-31280599D01*
X88800000Y-31280582D01*
X88800000Y-30382755D01*
X87690748Y-30382755D01*
X87712518Y-30345047D01*
X87750000Y-30205164D01*
X87750000Y-30060346D01*
X87712518Y-29920463D01*
X87690748Y-29882755D01*
X88800000Y-29882755D01*
X88800000Y-28984927D01*
X88799999Y-28984910D01*
X88793598Y-28925382D01*
X88793596Y-28925375D01*
X88743354Y-28790668D01*
X88743350Y-28790661D01*
X88657190Y-28675567D01*
X88657187Y-28675564D01*
X88542093Y-28589404D01*
X88542086Y-28589400D01*
X88407379Y-28539158D01*
X88407372Y-28539156D01*
X88347844Y-28532755D01*
X87450000Y-28532755D01*
X87450000Y-29642007D01*
X87412292Y-29620237D01*
X87272409Y-29582755D01*
X87127591Y-29582755D01*
X86987708Y-29620237D01*
X86950000Y-29642007D01*
X86950000Y-28532755D01*
X86052155Y-28532755D01*
X85992627Y-28539156D01*
X85992620Y-28539158D01*
X85857913Y-28589400D01*
X85857906Y-28589404D01*
X85742812Y-28675564D01*
X85742809Y-28675567D01*
X85656649Y-28790661D01*
X85656645Y-28790668D01*
X85606403Y-28925375D01*
X85606401Y-28925382D01*
X85600000Y-28984910D01*
X79513295Y-28984910D01*
X79529168Y-28959648D01*
X79655870Y-28696548D01*
X79752318Y-28420918D01*
X79752321Y-28420910D01*
X79817303Y-28136201D01*
X79817305Y-28136189D01*
X79838284Y-27950000D01*
X78729102Y-27950000D01*
X78750000Y-27818053D01*
X78750000Y-27581947D01*
X78729102Y-27450000D01*
X79838284Y-27450000D01*
X79817305Y-27263810D01*
X79817303Y-27263798D01*
X79752321Y-26979089D01*
X79752318Y-26979081D01*
X79655870Y-26703451D01*
X79529168Y-26440351D01*
X79373800Y-26193085D01*
X79191725Y-25964769D01*
X78985230Y-25758274D01*
X78756914Y-25576199D01*
X78509648Y-25420831D01*
X78246548Y-25294129D01*
X77970918Y-25197681D01*
X77970910Y-25197678D01*
X77686201Y-25132696D01*
X77686187Y-25132693D01*
X77396019Y-25100000D01*
X76250000Y-25100000D01*
X76250000Y-26200000D01*
X75750000Y-26200000D01*
X75750000Y-25100000D01*
X74603980Y-25100000D01*
X74313812Y-25132693D01*
X74313798Y-25132696D01*
X74029089Y-25197678D01*
X74029081Y-25197681D01*
X73753451Y-25294129D01*
X73490351Y-25420831D01*
X73243085Y-25576199D01*
X73014769Y-25758274D01*
X72808274Y-25964769D01*
X72626199Y-26193085D01*
X72470831Y-26440351D01*
X72344129Y-26703451D01*
X72247681Y-26979081D01*
X72247678Y-26979089D01*
X72182696Y-27263798D01*
X72182694Y-27263810D01*
X72161716Y-27450000D01*
X60272839Y-27450000D01*
X60196132Y-27426731D01*
X60196129Y-27426730D01*
X60000000Y-27407414D01*
X59803870Y-27426730D01*
X59727161Y-27450000D01*
X59615273Y-27483941D01*
X59615271Y-27483941D01*
X59615271Y-27483942D01*
X59465475Y-27564009D01*
X59397072Y-27578250D01*
X59331828Y-27553250D01*
X59290840Y-27497983D01*
X59243354Y-27370668D01*
X59243350Y-27370661D01*
X59157190Y-27255567D01*
X59157187Y-27255564D01*
X59042093Y-27169404D01*
X59042086Y-27169400D01*
X58907379Y-27119158D01*
X58907372Y-27119156D01*
X58847844Y-27112755D01*
X58250000Y-27112755D01*
X58250000Y-28097069D01*
X58245606Y-28092675D01*
X58154394Y-28040014D01*
X58052661Y-28012755D01*
X57947339Y-28012755D01*
X57845606Y-28040014D01*
X57754394Y-28092675D01*
X57750000Y-28097069D01*
X57750000Y-27112755D01*
X57152155Y-27112755D01*
X57092627Y-27119156D01*
X57092620Y-27119158D01*
X56957913Y-27169400D01*
X56957906Y-27169404D01*
X56842812Y-27255564D01*
X56842809Y-27255567D01*
X56756649Y-27370661D01*
X56756645Y-27370668D01*
X56706403Y-27505375D01*
X56706401Y-27505382D01*
X56700000Y-27564910D01*
X56700000Y-28162755D01*
X57684314Y-28162755D01*
X57679920Y-28167149D01*
X57627259Y-28258361D01*
X57600000Y-28360094D01*
X57600000Y-28465416D01*
X57627259Y-28567149D01*
X57679920Y-28658361D01*
X57684314Y-28662755D01*
X56700000Y-28662755D01*
X56700000Y-29260599D01*
X56706401Y-29320127D01*
X56706403Y-29320134D01*
X56756645Y-29454841D01*
X56756649Y-29454848D01*
X56842809Y-29569942D01*
X56842812Y-29569945D01*
X56957906Y-29656105D01*
X56957913Y-29656109D01*
X57092620Y-29706351D01*
X57092627Y-29706353D01*
X57152155Y-29712754D01*
X57152172Y-29712755D01*
X57750000Y-29712755D01*
X57750000Y-28728441D01*
X57754394Y-28732835D01*
X57845606Y-28785496D01*
X57947339Y-28812755D01*
X58052661Y-28812755D01*
X58154394Y-28785496D01*
X58245606Y-28732835D01*
X58250000Y-28728441D01*
X58250000Y-29712755D01*
X58847828Y-29712755D01*
X58847844Y-29712754D01*
X58907372Y-29706353D01*
X58907379Y-29706351D01*
X59042086Y-29656109D01*
X59042089Y-29656107D01*
X59101188Y-29611866D01*
X59166652Y-29587448D01*
X59234926Y-29602299D01*
X59284331Y-29651704D01*
X59299500Y-29711132D01*
X59299500Y-33221877D01*
X59279815Y-33288916D01*
X59227011Y-33334671D01*
X59157853Y-33344615D01*
X59101189Y-33321144D01*
X59042089Y-33276902D01*
X59042086Y-33276900D01*
X58907379Y-33226658D01*
X58907372Y-33226656D01*
X58847844Y-33220255D01*
X58050000Y-33220255D01*
X58050000Y-34182007D01*
X58012292Y-34160237D01*
X57872409Y-34122755D01*
X57727591Y-34122755D01*
X57587708Y-34160237D01*
X57550000Y-34182007D01*
X57550000Y-33220255D01*
X56752155Y-33220255D01*
X56692627Y-33226656D01*
X56692620Y-33226658D01*
X56557913Y-33276900D01*
X56557906Y-33276904D01*
X56442812Y-33363064D01*
X56442809Y-33363067D01*
X56356649Y-33478161D01*
X56356645Y-33478168D01*
X56306403Y-33612875D01*
X56306401Y-33612882D01*
X56300000Y-33672410D01*
X56300000Y-34422755D01*
X57309252Y-34422755D01*
X57287482Y-34460463D01*
X57250000Y-34600346D01*
X57250000Y-34745164D01*
X57287482Y-34885047D01*
X57309252Y-34922755D01*
X56300000Y-34922755D01*
X56300000Y-35673099D01*
X56306401Y-35732627D01*
X56306403Y-35732634D01*
X56356645Y-35867341D01*
X56356649Y-35867348D01*
X56442809Y-35982442D01*
X56442812Y-35982445D01*
X56557906Y-36068605D01*
X56557913Y-36068609D01*
X56692620Y-36118851D01*
X56692627Y-36118853D01*
X56752155Y-36125254D01*
X56752172Y-36125255D01*
X56910050Y-36125255D01*
X56977089Y-36144940D01*
X57022844Y-36197744D01*
X57032788Y-36266902D01*
X57003763Y-36330458D01*
X56997731Y-36336936D01*
X56873039Y-36461627D01*
X56869869Y-36465339D01*
X56868958Y-36464560D01*
X56818062Y-36503807D01*
X56773075Y-36512255D01*
X55524500Y-36512255D01*
X55457461Y-36492570D01*
X55411706Y-36439766D01*
X55400500Y-36388255D01*
X55400500Y-33294427D01*
X55420185Y-33227388D01*
X55453375Y-33192853D01*
X55539139Y-33132802D01*
X55700047Y-32971894D01*
X55830568Y-32785489D01*
X55926739Y-32579251D01*
X55985635Y-32359447D01*
X56005468Y-32132755D01*
X55985635Y-31906063D01*
X55926739Y-31686259D01*
X55830568Y-31480021D01*
X55700047Y-31293616D01*
X55700045Y-31293613D01*
X55539141Y-31132709D01*
X55352734Y-31002187D01*
X55352732Y-31002186D01*
X55146497Y-30906016D01*
X55146488Y-30906013D01*
X54926697Y-30847121D01*
X54926693Y-30847120D01*
X54926692Y-30847120D01*
X54926691Y-30847119D01*
X54926686Y-30847119D01*
X54700002Y-30827287D01*
X54699998Y-30827287D01*
X54473313Y-30847119D01*
X54473302Y-30847121D01*
X54253511Y-30906013D01*
X54253502Y-30906016D01*
X54047267Y-31002186D01*
X54047265Y-31002187D01*
X53860858Y-31132709D01*
X53699954Y-31293613D01*
X53569432Y-31480020D01*
X53569431Y-31480022D01*
X53473261Y-31686257D01*
X53473258Y-31686266D01*
X53414366Y-31906057D01*
X53414364Y-31906068D01*
X53394532Y-32132753D01*
X53394532Y-32132756D01*
X53414364Y-32359441D01*
X53414366Y-32359452D01*
X53473258Y-32579243D01*
X53473261Y-32579252D01*
X53569431Y-32785487D01*
X53569432Y-32785489D01*
X53699954Y-32971896D01*
X53860857Y-33132799D01*
X53860860Y-33132801D01*
X53860861Y-33132802D01*
X53946623Y-33192852D01*
X53990248Y-33247428D01*
X53999500Y-33294427D01*
X53999500Y-36388255D01*
X53979815Y-36455294D01*
X53927011Y-36501049D01*
X53875500Y-36512255D01*
X45882351Y-36512255D01*
X45815312Y-36492570D01*
X45778542Y-36456076D01*
X45708983Y-36349607D01*
X45708980Y-36349604D01*
X45708979Y-36349602D01*
X45551784Y-36178842D01*
X45551779Y-36178838D01*
X45551777Y-36178836D01*
X45368634Y-36036290D01*
X45368628Y-36036286D01*
X45164504Y-35925819D01*
X45164495Y-35925816D01*
X44944984Y-35850457D01*
X44773282Y-35821805D01*
X44716049Y-35812255D01*
X44483951Y-35812255D01*
X44438164Y-35819895D01*
X44255015Y-35850457D01*
X44035504Y-35925816D01*
X44035495Y-35925819D01*
X43831371Y-36036286D01*
X43831365Y-36036290D01*
X43648222Y-36178836D01*
X43648219Y-36178839D01*
X43491016Y-36349607D01*
X43421458Y-36456076D01*
X43368312Y-36501433D01*
X43317649Y-36512255D01*
X35637105Y-36512255D01*
X35570066Y-36492570D01*
X35538151Y-36462982D01*
X35490979Y-36400516D01*
X35326562Y-36250631D01*
X35326560Y-36250629D01*
X35137404Y-36133509D01*
X35137398Y-36133507D01*
X35116913Y-36125571D01*
X34929940Y-36053137D01*
X34711243Y-36012255D01*
X34488757Y-36012255D01*
X34270060Y-36053137D01*
X34179692Y-36088146D01*
X34062601Y-36133507D01*
X34062595Y-36133509D01*
X33873439Y-36250629D01*
X33873437Y-36250631D01*
X33709020Y-36400516D01*
X33574943Y-36578063D01*
X33574938Y-36578071D01*
X33475775Y-36777216D01*
X33475769Y-36777231D01*
X33414885Y-36991217D01*
X33414884Y-36991219D01*
X33394357Y-37212754D01*
X33394357Y-37212756D01*
X33407217Y-37351549D01*
X33393802Y-37420118D01*
X33371427Y-37450670D01*
X29455890Y-41366206D01*
X29455887Y-41366209D01*
X29417726Y-41423323D01*
X29379223Y-41480946D01*
X29326421Y-41608422D01*
X29326418Y-41608432D01*
X29299500Y-41743759D01*
X29299500Y-43004771D01*
X29279815Y-43071810D01*
X29229302Y-43116491D01*
X29147370Y-43155947D01*
X28936782Y-43299523D01*
X28749952Y-43472876D01*
X28749950Y-43472878D01*
X28591041Y-43672143D01*
X28463608Y-43892864D01*
X28370492Y-44130117D01*
X28370490Y-44130124D01*
X28313777Y-44378600D01*
X28294732Y-44632750D01*
X26025500Y-44632750D01*
X26025500Y-28515771D01*
X26045185Y-28448732D01*
X26097989Y-28402977D01*
X26167147Y-28393033D01*
X26230703Y-28422058D01*
X26266541Y-28474816D01*
X26344129Y-28696548D01*
X26470831Y-28959648D01*
X26626199Y-29206914D01*
X26808274Y-29435230D01*
X27014769Y-29641725D01*
X27243085Y-29823800D01*
X27490351Y-29979168D01*
X27753451Y-30105870D01*
X28029081Y-30202318D01*
X28029089Y-30202321D01*
X28313798Y-30267303D01*
X28313812Y-30267306D01*
X28603980Y-30299999D01*
X28603984Y-30300000D01*
X29750000Y-30300000D01*
X29750000Y-29200000D01*
X30250000Y-29200000D01*
X30250000Y-30300000D01*
X31396016Y-30300000D01*
X31396019Y-30299999D01*
X31686187Y-30267306D01*
X31686201Y-30267303D01*
X31970910Y-30202321D01*
X31970918Y-30202318D01*
X32246548Y-30105870D01*
X32509648Y-29979168D01*
X32756914Y-29823800D01*
X32985230Y-29641725D01*
X33191725Y-29435230D01*
X33373800Y-29206914D01*
X33529168Y-28959648D01*
X33655870Y-28696548D01*
X33752318Y-28420918D01*
X33752321Y-28420910D01*
X33817303Y-28136201D01*
X33817305Y-28136189D01*
X33838284Y-27950000D01*
X32729102Y-27950000D01*
X32750000Y-27818053D01*
X32750000Y-27581947D01*
X32729102Y-27450000D01*
X33838284Y-27450000D01*
X33817305Y-27263810D01*
X33817303Y-27263798D01*
X33752321Y-26979089D01*
X33752318Y-26979081D01*
X33655870Y-26703451D01*
X33529168Y-26440351D01*
X33373800Y-26193085D01*
X33191725Y-25964769D01*
X32985230Y-25758274D01*
X32756914Y-25576199D01*
X32509648Y-25420831D01*
X32246548Y-25294129D01*
X31970918Y-25197681D01*
X31970910Y-25197678D01*
X31686201Y-25132696D01*
X31686187Y-25132693D01*
X31396019Y-25100000D01*
X30250000Y-25100000D01*
X30250000Y-26200000D01*
X29750000Y-26200000D01*
X29750000Y-25100000D01*
X28603980Y-25100000D01*
X28313812Y-25132693D01*
X28313798Y-25132696D01*
X28029089Y-25197678D01*
X28029081Y-25197681D01*
X27753451Y-25294129D01*
X27490351Y-25420831D01*
X27243085Y-25576199D01*
X27014769Y-25758274D01*
X26808274Y-25964769D01*
X26626199Y-26193085D01*
X26470831Y-26440351D01*
X26344129Y-26703451D01*
X26266541Y-26925183D01*
X26225819Y-26981959D01*
X26160867Y-27007706D01*
X26092305Y-26994249D01*
X26041902Y-26945862D01*
X26025500Y-26884228D01*
X26025500Y-24862255D01*
X26045185Y-24795216D01*
X26097989Y-24749461D01*
X26149500Y-24738255D01*
X95850500Y-24738255D01*
X95917539Y-24757940D01*
G37*
G04 #@! TD.AperFunction*
M02*
