G04 #@! TF.GenerationSoftware,KiCad,Pcbnew,8.0.6-8.0.6-0~ubuntu22.04.1*
G04 #@! TF.CreationDate,2025-01-19T18:25:12+00:00*
G04 #@! TF.ProjectId,PSU-addon,5053552d-6164-4646-9f6e-2e6b69636164,rev?*
G04 #@! TF.SameCoordinates,Original*
G04 #@! TF.FileFunction,Legend,Bot*
G04 #@! TF.FilePolarity,Positive*
%FSLAX46Y46*%
G04 Gerber Fmt 4.6, Leading zero omitted, Abs format (unit mm)*
G04 Created by KiCad (PCBNEW 8.0.6-8.0.6-0~ubuntu22.04.1) date 2025-01-19 18:25:12*
%MOMM*%
%LPD*%
G01*
G04 APERTURE LIST*
%ADD10C,2.000000*%
%ADD11R,2.200000X2.200000*%
%ADD12O,2.200000X2.200000*%
%ADD13O,6.700000X4.200000*%
%ADD14C,1.600000*%
%ADD15O,1.600000X1.600000*%
%ADD16R,1.800000X1.800000*%
%ADD17C,1.800000*%
%ADD18R,2.400000X2.400000*%
%ADD19C,2.400000*%
%ADD20R,3.000000X3.000000*%
%ADD21C,3.000000*%
%ADD22R,2.000000X1.905000*%
%ADD23O,2.000000X1.905000*%
%ADD24R,1.600000X1.600000*%
G04 APERTURE END LIST*
%LPC*%
D10*
X92000000Y-59312755D03*
D11*
X87100000Y-59332755D03*
D12*
X87100000Y-69492755D03*
D10*
X34600000Y-37212755D03*
X92000000Y-39812755D03*
D13*
X30000000Y-27700000D03*
D11*
X54500000Y-57132755D03*
D12*
X54500000Y-67292755D03*
D13*
X76000000Y-27700000D03*
D14*
X83800000Y-66922755D03*
D15*
X83800000Y-59302755D03*
D11*
X54700000Y-42292755D03*
D12*
X54700000Y-32132755D03*
D16*
X93300000Y-66112755D03*
D17*
X90760000Y-66112755D03*
D18*
X44600000Y-62212755D03*
D19*
X44600000Y-54712755D03*
D13*
X30000000Y-71700000D03*
D20*
X30000000Y-54792755D03*
D21*
X30000000Y-49712755D03*
X30000000Y-44632755D03*
D10*
X34700000Y-62212755D03*
D18*
X44600000Y-44712755D03*
D19*
X44600000Y-37212755D03*
D20*
X92000000Y-44632755D03*
D21*
X92000000Y-49712755D03*
X92000000Y-54792755D03*
D14*
X84000000Y-38720000D03*
D15*
X84000000Y-31100000D03*
D13*
X76000000Y-71700000D03*
D16*
X93375000Y-33712755D03*
D17*
X90835000Y-33712755D03*
D22*
X57700000Y-59672755D03*
D23*
X57700000Y-62212755D03*
X57700000Y-64752755D03*
D11*
X87200000Y-30132755D03*
D12*
X87200000Y-40292755D03*
D24*
X58000000Y-28412755D03*
D14*
X60000000Y-28412755D03*
D24*
X59600000Y-71312755D03*
D14*
X57600000Y-71312755D03*
D10*
X84900000Y-49700000D03*
D22*
X57800000Y-34672755D03*
D23*
X57800000Y-37212755D03*
X57800000Y-39752755D03*
%LPD*%
M02*
