G04 #@! TF.GenerationSoftware,KiCad,Pcbnew,8.0.6-8.0.6-0~ubuntu22.04.1*
G04 #@! TF.CreationDate,2025-01-19T18:25:12+00:00*
G04 #@! TF.ProjectId,PSU-addon,5053552d-6164-4646-9f6e-2e6b69636164,rev?*
G04 #@! TF.SameCoordinates,Original*
G04 #@! TF.FileFunction,Legend,Top*
G04 #@! TF.FilePolarity,Positive*
%FSLAX46Y46*%
G04 Gerber Fmt 4.6, Leading zero omitted, Abs format (unit mm)*
G04 Created by KiCad (PCBNEW 8.0.6-8.0.6-0~ubuntu22.04.1) date 2025-01-19 18:25:12*
%MOMM*%
%LPD*%
G01*
G04 APERTURE LIST*
%ADD10C,0.150000*%
%ADD11C,0.120000*%
%ADD12C,2.000000*%
%ADD13R,2.200000X2.200000*%
%ADD14O,2.200000X2.200000*%
%ADD15O,6.700000X4.200000*%
%ADD16C,1.600000*%
%ADD17O,1.600000X1.600000*%
%ADD18R,1.800000X1.800000*%
%ADD19C,1.800000*%
%ADD20R,2.400000X2.400000*%
%ADD21C,2.400000*%
%ADD22R,3.000000X3.000000*%
%ADD23C,3.000000*%
%ADD24R,2.000000X1.905000*%
%ADD25O,2.000000X1.905000*%
%ADD26R,1.600000X1.600000*%
G04 APERTURE END LIST*
D10*
X72769819Y-55963220D02*
X71769819Y-55963220D01*
X71769819Y-55963220D02*
X71769819Y-55582268D01*
X71769819Y-55582268D02*
X71817438Y-55487030D01*
X71817438Y-55487030D02*
X71865057Y-55439411D01*
X71865057Y-55439411D02*
X71960295Y-55391792D01*
X71960295Y-55391792D02*
X72103152Y-55391792D01*
X72103152Y-55391792D02*
X72198390Y-55439411D01*
X72198390Y-55439411D02*
X72246009Y-55487030D01*
X72246009Y-55487030D02*
X72293628Y-55582268D01*
X72293628Y-55582268D02*
X72293628Y-55963220D01*
X72722200Y-55010839D02*
X72769819Y-54867982D01*
X72769819Y-54867982D02*
X72769819Y-54629887D01*
X72769819Y-54629887D02*
X72722200Y-54534649D01*
X72722200Y-54534649D02*
X72674580Y-54487030D01*
X72674580Y-54487030D02*
X72579342Y-54439411D01*
X72579342Y-54439411D02*
X72484104Y-54439411D01*
X72484104Y-54439411D02*
X72388866Y-54487030D01*
X72388866Y-54487030D02*
X72341247Y-54534649D01*
X72341247Y-54534649D02*
X72293628Y-54629887D01*
X72293628Y-54629887D02*
X72246009Y-54820363D01*
X72246009Y-54820363D02*
X72198390Y-54915601D01*
X72198390Y-54915601D02*
X72150771Y-54963220D01*
X72150771Y-54963220D02*
X72055533Y-55010839D01*
X72055533Y-55010839D02*
X71960295Y-55010839D01*
X71960295Y-55010839D02*
X71865057Y-54963220D01*
X71865057Y-54963220D02*
X71817438Y-54915601D01*
X71817438Y-54915601D02*
X71769819Y-54820363D01*
X71769819Y-54820363D02*
X71769819Y-54582268D01*
X71769819Y-54582268D02*
X71817438Y-54439411D01*
X71769819Y-54010839D02*
X72579342Y-54010839D01*
X72579342Y-54010839D02*
X72674580Y-53963220D01*
X72674580Y-53963220D02*
X72722200Y-53915601D01*
X72722200Y-53915601D02*
X72769819Y-53820363D01*
X72769819Y-53820363D02*
X72769819Y-53629887D01*
X72769819Y-53629887D02*
X72722200Y-53534649D01*
X72722200Y-53534649D02*
X72674580Y-53487030D01*
X72674580Y-53487030D02*
X72579342Y-53439411D01*
X72579342Y-53439411D02*
X71769819Y-53439411D01*
X72769819Y-51772744D02*
X72246009Y-51772744D01*
X72246009Y-51772744D02*
X72150771Y-51820363D01*
X72150771Y-51820363D02*
X72103152Y-51915601D01*
X72103152Y-51915601D02*
X72103152Y-52106077D01*
X72103152Y-52106077D02*
X72150771Y-52201315D01*
X72722200Y-51772744D02*
X72769819Y-51867982D01*
X72769819Y-51867982D02*
X72769819Y-52106077D01*
X72769819Y-52106077D02*
X72722200Y-52201315D01*
X72722200Y-52201315D02*
X72626961Y-52248934D01*
X72626961Y-52248934D02*
X72531723Y-52248934D01*
X72531723Y-52248934D02*
X72436485Y-52201315D01*
X72436485Y-52201315D02*
X72388866Y-52106077D01*
X72388866Y-52106077D02*
X72388866Y-51867982D01*
X72388866Y-51867982D02*
X72341247Y-51772744D01*
X72769819Y-50867982D02*
X71769819Y-50867982D01*
X72722200Y-50867982D02*
X72769819Y-50963220D01*
X72769819Y-50963220D02*
X72769819Y-51153696D01*
X72769819Y-51153696D02*
X72722200Y-51248934D01*
X72722200Y-51248934D02*
X72674580Y-51296553D01*
X72674580Y-51296553D02*
X72579342Y-51344172D01*
X72579342Y-51344172D02*
X72293628Y-51344172D01*
X72293628Y-51344172D02*
X72198390Y-51296553D01*
X72198390Y-51296553D02*
X72150771Y-51248934D01*
X72150771Y-51248934D02*
X72103152Y-51153696D01*
X72103152Y-51153696D02*
X72103152Y-50963220D01*
X72103152Y-50963220D02*
X72150771Y-50867982D01*
X72769819Y-49963220D02*
X71769819Y-49963220D01*
X72722200Y-49963220D02*
X72769819Y-50058458D01*
X72769819Y-50058458D02*
X72769819Y-50248934D01*
X72769819Y-50248934D02*
X72722200Y-50344172D01*
X72722200Y-50344172D02*
X72674580Y-50391791D01*
X72674580Y-50391791D02*
X72579342Y-50439410D01*
X72579342Y-50439410D02*
X72293628Y-50439410D01*
X72293628Y-50439410D02*
X72198390Y-50391791D01*
X72198390Y-50391791D02*
X72150771Y-50344172D01*
X72150771Y-50344172D02*
X72103152Y-50248934D01*
X72103152Y-50248934D02*
X72103152Y-50058458D01*
X72103152Y-50058458D02*
X72150771Y-49963220D01*
X72769819Y-49344172D02*
X72722200Y-49439410D01*
X72722200Y-49439410D02*
X72674580Y-49487029D01*
X72674580Y-49487029D02*
X72579342Y-49534648D01*
X72579342Y-49534648D02*
X72293628Y-49534648D01*
X72293628Y-49534648D02*
X72198390Y-49487029D01*
X72198390Y-49487029D02*
X72150771Y-49439410D01*
X72150771Y-49439410D02*
X72103152Y-49344172D01*
X72103152Y-49344172D02*
X72103152Y-49201315D01*
X72103152Y-49201315D02*
X72150771Y-49106077D01*
X72150771Y-49106077D02*
X72198390Y-49058458D01*
X72198390Y-49058458D02*
X72293628Y-49010839D01*
X72293628Y-49010839D02*
X72579342Y-49010839D01*
X72579342Y-49010839D02*
X72674580Y-49058458D01*
X72674580Y-49058458D02*
X72722200Y-49106077D01*
X72722200Y-49106077D02*
X72769819Y-49201315D01*
X72769819Y-49201315D02*
X72769819Y-49344172D01*
X72103152Y-48582267D02*
X72769819Y-48582267D01*
X72198390Y-48582267D02*
X72150771Y-48534648D01*
X72150771Y-48534648D02*
X72103152Y-48439410D01*
X72103152Y-48439410D02*
X72103152Y-48296553D01*
X72103152Y-48296553D02*
X72150771Y-48201315D01*
X72150771Y-48201315D02*
X72246009Y-48153696D01*
X72246009Y-48153696D02*
X72769819Y-48153696D01*
X71769819Y-47058457D02*
X72769819Y-46725124D01*
X72769819Y-46725124D02*
X71769819Y-46391791D01*
X72769819Y-45534648D02*
X72769819Y-46106076D01*
X72769819Y-45820362D02*
X71769819Y-45820362D01*
X71769819Y-45820362D02*
X71912676Y-45915600D01*
X71912676Y-45915600D02*
X72007914Y-46010838D01*
X72007914Y-46010838D02*
X72055533Y-46106076D01*
X72674580Y-45106076D02*
X72722200Y-45058457D01*
X72722200Y-45058457D02*
X72769819Y-45106076D01*
X72769819Y-45106076D02*
X72722200Y-45153695D01*
X72722200Y-45153695D02*
X72674580Y-45106076D01*
X72674580Y-45106076D02*
X72769819Y-45106076D01*
X72769819Y-44106077D02*
X72769819Y-44677505D01*
X72769819Y-44391791D02*
X71769819Y-44391791D01*
X71769819Y-44391791D02*
X71912676Y-44487029D01*
X71912676Y-44487029D02*
X72007914Y-44582267D01*
X72007914Y-44582267D02*
X72055533Y-44677505D01*
X73646009Y-56129887D02*
X73693628Y-55987030D01*
X73693628Y-55987030D02*
X73741247Y-55939411D01*
X73741247Y-55939411D02*
X73836485Y-55891792D01*
X73836485Y-55891792D02*
X73979342Y-55891792D01*
X73979342Y-55891792D02*
X74074580Y-55939411D01*
X74074580Y-55939411D02*
X74122200Y-55987030D01*
X74122200Y-55987030D02*
X74169819Y-56082268D01*
X74169819Y-56082268D02*
X74169819Y-56463220D01*
X74169819Y-56463220D02*
X73169819Y-56463220D01*
X73169819Y-56463220D02*
X73169819Y-56129887D01*
X73169819Y-56129887D02*
X73217438Y-56034649D01*
X73217438Y-56034649D02*
X73265057Y-55987030D01*
X73265057Y-55987030D02*
X73360295Y-55939411D01*
X73360295Y-55939411D02*
X73455533Y-55939411D01*
X73455533Y-55939411D02*
X73550771Y-55987030D01*
X73550771Y-55987030D02*
X73598390Y-56034649D01*
X73598390Y-56034649D02*
X73646009Y-56129887D01*
X73646009Y-56129887D02*
X73646009Y-56463220D01*
X74169819Y-55320363D02*
X74122200Y-55415601D01*
X74122200Y-55415601D02*
X74026961Y-55463220D01*
X74026961Y-55463220D02*
X73169819Y-55463220D01*
X74122200Y-54558458D02*
X74169819Y-54653696D01*
X74169819Y-54653696D02*
X74169819Y-54844172D01*
X74169819Y-54844172D02*
X74122200Y-54939410D01*
X74122200Y-54939410D02*
X74026961Y-54987029D01*
X74026961Y-54987029D02*
X73646009Y-54987029D01*
X73646009Y-54987029D02*
X73550771Y-54939410D01*
X73550771Y-54939410D02*
X73503152Y-54844172D01*
X73503152Y-54844172D02*
X73503152Y-54653696D01*
X73503152Y-54653696D02*
X73550771Y-54558458D01*
X73550771Y-54558458D02*
X73646009Y-54510839D01*
X73646009Y-54510839D02*
X73741247Y-54510839D01*
X73741247Y-54510839D02*
X73836485Y-54987029D01*
X74122200Y-53701315D02*
X74169819Y-53796553D01*
X74169819Y-53796553D02*
X74169819Y-53987029D01*
X74169819Y-53987029D02*
X74122200Y-54082267D01*
X74122200Y-54082267D02*
X74026961Y-54129886D01*
X74026961Y-54129886D02*
X73646009Y-54129886D01*
X73646009Y-54129886D02*
X73550771Y-54082267D01*
X73550771Y-54082267D02*
X73503152Y-53987029D01*
X73503152Y-53987029D02*
X73503152Y-53796553D01*
X73503152Y-53796553D02*
X73550771Y-53701315D01*
X73550771Y-53701315D02*
X73646009Y-53653696D01*
X73646009Y-53653696D02*
X73741247Y-53653696D01*
X73741247Y-53653696D02*
X73836485Y-54129886D01*
X73503152Y-53225124D02*
X74503152Y-53225124D01*
X73550771Y-53225124D02*
X73503152Y-53129886D01*
X73503152Y-53129886D02*
X73503152Y-52939410D01*
X73503152Y-52939410D02*
X73550771Y-52844172D01*
X73550771Y-52844172D02*
X73598390Y-52796553D01*
X73598390Y-52796553D02*
X73693628Y-52748934D01*
X73693628Y-52748934D02*
X73979342Y-52748934D01*
X73979342Y-52748934D02*
X74074580Y-52796553D01*
X74074580Y-52796553D02*
X74122200Y-52844172D01*
X74122200Y-52844172D02*
X74169819Y-52939410D01*
X74169819Y-52939410D02*
X74169819Y-53129886D01*
X74169819Y-53129886D02*
X74122200Y-53225124D01*
X74122200Y-52367981D02*
X74169819Y-52225124D01*
X74169819Y-52225124D02*
X74169819Y-51987029D01*
X74169819Y-51987029D02*
X74122200Y-51891791D01*
X74122200Y-51891791D02*
X74074580Y-51844172D01*
X74074580Y-51844172D02*
X73979342Y-51796553D01*
X73979342Y-51796553D02*
X73884104Y-51796553D01*
X73884104Y-51796553D02*
X73788866Y-51844172D01*
X73788866Y-51844172D02*
X73741247Y-51891791D01*
X73741247Y-51891791D02*
X73693628Y-51987029D01*
X73693628Y-51987029D02*
X73646009Y-52177505D01*
X73646009Y-52177505D02*
X73598390Y-52272743D01*
X73598390Y-52272743D02*
X73550771Y-52320362D01*
X73550771Y-52320362D02*
X73455533Y-52367981D01*
X73455533Y-52367981D02*
X73360295Y-52367981D01*
X73360295Y-52367981D02*
X73265057Y-52320362D01*
X73265057Y-52320362D02*
X73217438Y-52272743D01*
X73217438Y-52272743D02*
X73169819Y-52177505D01*
X73169819Y-52177505D02*
X73169819Y-51939410D01*
X73169819Y-51939410D02*
X73217438Y-51796553D01*
X74169819Y-51225124D02*
X74122200Y-51320362D01*
X74122200Y-51320362D02*
X74074580Y-51367981D01*
X74074580Y-51367981D02*
X73979342Y-51415600D01*
X73979342Y-51415600D02*
X73693628Y-51415600D01*
X73693628Y-51415600D02*
X73598390Y-51367981D01*
X73598390Y-51367981D02*
X73550771Y-51320362D01*
X73550771Y-51320362D02*
X73503152Y-51225124D01*
X73503152Y-51225124D02*
X73503152Y-51082267D01*
X73503152Y-51082267D02*
X73550771Y-50987029D01*
X73550771Y-50987029D02*
X73598390Y-50939410D01*
X73598390Y-50939410D02*
X73693628Y-50891791D01*
X73693628Y-50891791D02*
X73979342Y-50891791D01*
X73979342Y-50891791D02*
X74074580Y-50939410D01*
X74074580Y-50939410D02*
X74122200Y-50987029D01*
X74122200Y-50987029D02*
X74169819Y-51082267D01*
X74169819Y-51082267D02*
X74169819Y-51225124D01*
X73503152Y-50034648D02*
X74169819Y-50034648D01*
X73503152Y-50463219D02*
X74026961Y-50463219D01*
X74026961Y-50463219D02*
X74122200Y-50415600D01*
X74122200Y-50415600D02*
X74169819Y-50320362D01*
X74169819Y-50320362D02*
X74169819Y-50177505D01*
X74169819Y-50177505D02*
X74122200Y-50082267D01*
X74122200Y-50082267D02*
X74074580Y-50034648D01*
X73503152Y-49558457D02*
X74169819Y-49558457D01*
X73598390Y-49558457D02*
X73550771Y-49510838D01*
X73550771Y-49510838D02*
X73503152Y-49415600D01*
X73503152Y-49415600D02*
X73503152Y-49272743D01*
X73503152Y-49272743D02*
X73550771Y-49177505D01*
X73550771Y-49177505D02*
X73646009Y-49129886D01*
X73646009Y-49129886D02*
X74169819Y-49129886D01*
X74169819Y-48225124D02*
X73169819Y-48225124D01*
X74122200Y-48225124D02*
X74169819Y-48320362D01*
X74169819Y-48320362D02*
X74169819Y-48510838D01*
X74169819Y-48510838D02*
X74122200Y-48606076D01*
X74122200Y-48606076D02*
X74074580Y-48653695D01*
X74074580Y-48653695D02*
X73979342Y-48701314D01*
X73979342Y-48701314D02*
X73693628Y-48701314D01*
X73693628Y-48701314D02*
X73598390Y-48653695D01*
X73598390Y-48653695D02*
X73550771Y-48606076D01*
X73550771Y-48606076D02*
X73503152Y-48510838D01*
X73503152Y-48510838D02*
X73503152Y-48320362D01*
X73503152Y-48320362D02*
X73550771Y-48225124D01*
X73265057Y-47034647D02*
X73217438Y-46987028D01*
X73217438Y-46987028D02*
X73169819Y-46891790D01*
X73169819Y-46891790D02*
X73169819Y-46653695D01*
X73169819Y-46653695D02*
X73217438Y-46558457D01*
X73217438Y-46558457D02*
X73265057Y-46510838D01*
X73265057Y-46510838D02*
X73360295Y-46463219D01*
X73360295Y-46463219D02*
X73455533Y-46463219D01*
X73455533Y-46463219D02*
X73598390Y-46510838D01*
X73598390Y-46510838D02*
X74169819Y-47082266D01*
X74169819Y-47082266D02*
X74169819Y-46463219D01*
X73169819Y-45844171D02*
X73169819Y-45748933D01*
X73169819Y-45748933D02*
X73217438Y-45653695D01*
X73217438Y-45653695D02*
X73265057Y-45606076D01*
X73265057Y-45606076D02*
X73360295Y-45558457D01*
X73360295Y-45558457D02*
X73550771Y-45510838D01*
X73550771Y-45510838D02*
X73788866Y-45510838D01*
X73788866Y-45510838D02*
X73979342Y-45558457D01*
X73979342Y-45558457D02*
X74074580Y-45606076D01*
X74074580Y-45606076D02*
X74122200Y-45653695D01*
X74122200Y-45653695D02*
X74169819Y-45748933D01*
X74169819Y-45748933D02*
X74169819Y-45844171D01*
X74169819Y-45844171D02*
X74122200Y-45939409D01*
X74122200Y-45939409D02*
X74074580Y-45987028D01*
X74074580Y-45987028D02*
X73979342Y-46034647D01*
X73979342Y-46034647D02*
X73788866Y-46082266D01*
X73788866Y-46082266D02*
X73550771Y-46082266D01*
X73550771Y-46082266D02*
X73360295Y-46034647D01*
X73360295Y-46034647D02*
X73265057Y-45987028D01*
X73265057Y-45987028D02*
X73217438Y-45939409D01*
X73217438Y-45939409D02*
X73169819Y-45844171D01*
X73265057Y-45129885D02*
X73217438Y-45082266D01*
X73217438Y-45082266D02*
X73169819Y-44987028D01*
X73169819Y-44987028D02*
X73169819Y-44748933D01*
X73169819Y-44748933D02*
X73217438Y-44653695D01*
X73217438Y-44653695D02*
X73265057Y-44606076D01*
X73265057Y-44606076D02*
X73360295Y-44558457D01*
X73360295Y-44558457D02*
X73455533Y-44558457D01*
X73455533Y-44558457D02*
X73598390Y-44606076D01*
X73598390Y-44606076D02*
X74169819Y-45177504D01*
X74169819Y-45177504D02*
X74169819Y-44558457D01*
X73169819Y-43653695D02*
X73169819Y-44129885D01*
X73169819Y-44129885D02*
X73646009Y-44177504D01*
X73646009Y-44177504D02*
X73598390Y-44129885D01*
X73598390Y-44129885D02*
X73550771Y-44034647D01*
X73550771Y-44034647D02*
X73550771Y-43796552D01*
X73550771Y-43796552D02*
X73598390Y-43701314D01*
X73598390Y-43701314D02*
X73646009Y-43653695D01*
X73646009Y-43653695D02*
X73741247Y-43606076D01*
X73741247Y-43606076D02*
X73979342Y-43606076D01*
X73979342Y-43606076D02*
X74074580Y-43653695D01*
X74074580Y-43653695D02*
X74122200Y-43701314D01*
X74122200Y-43701314D02*
X74169819Y-43796552D01*
X74169819Y-43796552D02*
X74169819Y-44034647D01*
X74169819Y-44034647D02*
X74122200Y-44129885D01*
X74122200Y-44129885D02*
X74074580Y-44177504D01*
X87554819Y-65150849D02*
X86554819Y-65150849D01*
X86554819Y-65150849D02*
X86554819Y-64912754D01*
X86554819Y-64912754D02*
X86602438Y-64769897D01*
X86602438Y-64769897D02*
X86697676Y-64674659D01*
X86697676Y-64674659D02*
X86792914Y-64627040D01*
X86792914Y-64627040D02*
X86983390Y-64579421D01*
X86983390Y-64579421D02*
X87126247Y-64579421D01*
X87126247Y-64579421D02*
X87316723Y-64627040D01*
X87316723Y-64627040D02*
X87411961Y-64674659D01*
X87411961Y-64674659D02*
X87507200Y-64769897D01*
X87507200Y-64769897D02*
X87554819Y-64912754D01*
X87554819Y-64912754D02*
X87554819Y-65150849D01*
X86554819Y-64246087D02*
X86554819Y-63627040D01*
X86554819Y-63627040D02*
X86935771Y-63960373D01*
X86935771Y-63960373D02*
X86935771Y-63817516D01*
X86935771Y-63817516D02*
X86983390Y-63722278D01*
X86983390Y-63722278D02*
X87031009Y-63674659D01*
X87031009Y-63674659D02*
X87126247Y-63627040D01*
X87126247Y-63627040D02*
X87364342Y-63627040D01*
X87364342Y-63627040D02*
X87459580Y-63674659D01*
X87459580Y-63674659D02*
X87507200Y-63722278D01*
X87507200Y-63722278D02*
X87554819Y-63817516D01*
X87554819Y-63817516D02*
X87554819Y-64103230D01*
X87554819Y-64103230D02*
X87507200Y-64198468D01*
X87507200Y-64198468D02*
X87459580Y-64246087D01*
X87554819Y-57774659D02*
X86554819Y-57774659D01*
X87554819Y-57203231D02*
X86983390Y-57631802D01*
X86554819Y-57203231D02*
X87126247Y-57774659D01*
X54954819Y-62950849D02*
X53954819Y-62950849D01*
X53954819Y-62950849D02*
X53954819Y-62712754D01*
X53954819Y-62712754D02*
X54002438Y-62569897D01*
X54002438Y-62569897D02*
X54097676Y-62474659D01*
X54097676Y-62474659D02*
X54192914Y-62427040D01*
X54192914Y-62427040D02*
X54383390Y-62379421D01*
X54383390Y-62379421D02*
X54526247Y-62379421D01*
X54526247Y-62379421D02*
X54716723Y-62427040D01*
X54716723Y-62427040D02*
X54811961Y-62474659D01*
X54811961Y-62474659D02*
X54907200Y-62569897D01*
X54907200Y-62569897D02*
X54954819Y-62712754D01*
X54954819Y-62712754D02*
X54954819Y-62950849D01*
X54954819Y-61427040D02*
X54954819Y-61998468D01*
X54954819Y-61712754D02*
X53954819Y-61712754D01*
X53954819Y-61712754D02*
X54097676Y-61807992D01*
X54097676Y-61807992D02*
X54192914Y-61903230D01*
X54192914Y-61903230D02*
X54240533Y-61998468D01*
X54954819Y-55674659D02*
X53954819Y-55674659D01*
X54954819Y-55103231D02*
X54383390Y-55531802D01*
X53954819Y-55103231D02*
X54526247Y-55674659D01*
X84254819Y-63279421D02*
X83778628Y-63612754D01*
X84254819Y-63850849D02*
X83254819Y-63850849D01*
X83254819Y-63850849D02*
X83254819Y-63469897D01*
X83254819Y-63469897D02*
X83302438Y-63374659D01*
X83302438Y-63374659D02*
X83350057Y-63327040D01*
X83350057Y-63327040D02*
X83445295Y-63279421D01*
X83445295Y-63279421D02*
X83588152Y-63279421D01*
X83588152Y-63279421D02*
X83683390Y-63327040D01*
X83683390Y-63327040D02*
X83731009Y-63374659D01*
X83731009Y-63374659D02*
X83778628Y-63469897D01*
X83778628Y-63469897D02*
X83778628Y-63850849D01*
X84254819Y-62327040D02*
X84254819Y-62898468D01*
X84254819Y-62612754D02*
X83254819Y-62612754D01*
X83254819Y-62612754D02*
X83397676Y-62707992D01*
X83397676Y-62707992D02*
X83492914Y-62803230D01*
X83492914Y-62803230D02*
X83540533Y-62898468D01*
X55154819Y-37950849D02*
X54154819Y-37950849D01*
X54154819Y-37950849D02*
X54154819Y-37712754D01*
X54154819Y-37712754D02*
X54202438Y-37569897D01*
X54202438Y-37569897D02*
X54297676Y-37474659D01*
X54297676Y-37474659D02*
X54392914Y-37427040D01*
X54392914Y-37427040D02*
X54583390Y-37379421D01*
X54583390Y-37379421D02*
X54726247Y-37379421D01*
X54726247Y-37379421D02*
X54916723Y-37427040D01*
X54916723Y-37427040D02*
X55011961Y-37474659D01*
X55011961Y-37474659D02*
X55107200Y-37569897D01*
X55107200Y-37569897D02*
X55154819Y-37712754D01*
X55154819Y-37712754D02*
X55154819Y-37950849D01*
X54250057Y-36998468D02*
X54202438Y-36950849D01*
X54202438Y-36950849D02*
X54154819Y-36855611D01*
X54154819Y-36855611D02*
X54154819Y-36617516D01*
X54154819Y-36617516D02*
X54202438Y-36522278D01*
X54202438Y-36522278D02*
X54250057Y-36474659D01*
X54250057Y-36474659D02*
X54345295Y-36427040D01*
X54345295Y-36427040D02*
X54440533Y-36427040D01*
X54440533Y-36427040D02*
X54583390Y-36474659D01*
X54583390Y-36474659D02*
X55154819Y-37046087D01*
X55154819Y-37046087D02*
X55154819Y-36427040D01*
X55154819Y-44174659D02*
X54154819Y-44174659D01*
X55154819Y-43603231D02*
X54583390Y-44031802D01*
X54154819Y-43603231D02*
X54726247Y-44174659D01*
X94161905Y-63654819D02*
X94161905Y-62654819D01*
X94161905Y-62654819D02*
X94400000Y-62654819D01*
X94400000Y-62654819D02*
X94542857Y-62702438D01*
X94542857Y-62702438D02*
X94638095Y-62797676D01*
X94638095Y-62797676D02*
X94685714Y-62892914D01*
X94685714Y-62892914D02*
X94733333Y-63083390D01*
X94733333Y-63083390D02*
X94733333Y-63226247D01*
X94733333Y-63226247D02*
X94685714Y-63416723D01*
X94685714Y-63416723D02*
X94638095Y-63511961D01*
X94638095Y-63511961D02*
X94542857Y-63607200D01*
X94542857Y-63607200D02*
X94400000Y-63654819D01*
X94400000Y-63654819D02*
X94161905Y-63654819D01*
X95638095Y-62654819D02*
X95161905Y-62654819D01*
X95161905Y-62654819D02*
X95114286Y-63131009D01*
X95114286Y-63131009D02*
X95161905Y-63083390D01*
X95161905Y-63083390D02*
X95257143Y-63035771D01*
X95257143Y-63035771D02*
X95495238Y-63035771D01*
X95495238Y-63035771D02*
X95590476Y-63083390D01*
X95590476Y-63083390D02*
X95638095Y-63131009D01*
X95638095Y-63131009D02*
X95685714Y-63226247D01*
X95685714Y-63226247D02*
X95685714Y-63464342D01*
X95685714Y-63464342D02*
X95638095Y-63559580D01*
X95638095Y-63559580D02*
X95590476Y-63607200D01*
X95590476Y-63607200D02*
X95495238Y-63654819D01*
X95495238Y-63654819D02*
X95257143Y-63654819D01*
X95257143Y-63654819D02*
X95161905Y-63607200D01*
X95161905Y-63607200D02*
X95114286Y-63559580D01*
X35709580Y-58629421D02*
X35757200Y-58677040D01*
X35757200Y-58677040D02*
X35804819Y-58819897D01*
X35804819Y-58819897D02*
X35804819Y-58915135D01*
X35804819Y-58915135D02*
X35757200Y-59057992D01*
X35757200Y-59057992D02*
X35661961Y-59153230D01*
X35661961Y-59153230D02*
X35566723Y-59200849D01*
X35566723Y-59200849D02*
X35376247Y-59248468D01*
X35376247Y-59248468D02*
X35233390Y-59248468D01*
X35233390Y-59248468D02*
X35042914Y-59200849D01*
X35042914Y-59200849D02*
X34947676Y-59153230D01*
X34947676Y-59153230D02*
X34852438Y-59057992D01*
X34852438Y-59057992D02*
X34804819Y-58915135D01*
X34804819Y-58915135D02*
X34804819Y-58819897D01*
X34804819Y-58819897D02*
X34852438Y-58677040D01*
X34852438Y-58677040D02*
X34900057Y-58629421D01*
X35804819Y-57677040D02*
X35804819Y-58248468D01*
X35804819Y-57962754D02*
X34804819Y-57962754D01*
X34804819Y-57962754D02*
X34947676Y-58057992D01*
X34947676Y-58057992D02*
X35042914Y-58153230D01*
X35042914Y-58153230D02*
X35090533Y-58248468D01*
X34354819Y-50046088D02*
X35069104Y-50046088D01*
X35069104Y-50046088D02*
X35211961Y-50093707D01*
X35211961Y-50093707D02*
X35307200Y-50188945D01*
X35307200Y-50188945D02*
X35354819Y-50331802D01*
X35354819Y-50331802D02*
X35354819Y-50427040D01*
X35354819Y-49046088D02*
X35354819Y-49617516D01*
X35354819Y-49331802D02*
X34354819Y-49331802D01*
X34354819Y-49331802D02*
X34497676Y-49427040D01*
X34497676Y-49427040D02*
X34592914Y-49522278D01*
X34592914Y-49522278D02*
X34640533Y-49617516D01*
X35959580Y-41179421D02*
X36007200Y-41227040D01*
X36007200Y-41227040D02*
X36054819Y-41369897D01*
X36054819Y-41369897D02*
X36054819Y-41465135D01*
X36054819Y-41465135D02*
X36007200Y-41607992D01*
X36007200Y-41607992D02*
X35911961Y-41703230D01*
X35911961Y-41703230D02*
X35816723Y-41750849D01*
X35816723Y-41750849D02*
X35626247Y-41798468D01*
X35626247Y-41798468D02*
X35483390Y-41798468D01*
X35483390Y-41798468D02*
X35292914Y-41750849D01*
X35292914Y-41750849D02*
X35197676Y-41703230D01*
X35197676Y-41703230D02*
X35102438Y-41607992D01*
X35102438Y-41607992D02*
X35054819Y-41465135D01*
X35054819Y-41465135D02*
X35054819Y-41369897D01*
X35054819Y-41369897D02*
X35102438Y-41227040D01*
X35102438Y-41227040D02*
X35150057Y-41179421D01*
X35150057Y-40798468D02*
X35102438Y-40750849D01*
X35102438Y-40750849D02*
X35054819Y-40655611D01*
X35054819Y-40655611D02*
X35054819Y-40417516D01*
X35054819Y-40417516D02*
X35102438Y-40322278D01*
X35102438Y-40322278D02*
X35150057Y-40274659D01*
X35150057Y-40274659D02*
X35245295Y-40227040D01*
X35245295Y-40227040D02*
X35340533Y-40227040D01*
X35340533Y-40227040D02*
X35483390Y-40274659D01*
X35483390Y-40274659D02*
X36054819Y-40846087D01*
X36054819Y-40846087D02*
X36054819Y-40227040D01*
X86854819Y-50033333D02*
X87569104Y-50033333D01*
X87569104Y-50033333D02*
X87711961Y-50080952D01*
X87711961Y-50080952D02*
X87807200Y-50176190D01*
X87807200Y-50176190D02*
X87854819Y-50319047D01*
X87854819Y-50319047D02*
X87854819Y-50414285D01*
X86950057Y-49604761D02*
X86902438Y-49557142D01*
X86902438Y-49557142D02*
X86854819Y-49461904D01*
X86854819Y-49461904D02*
X86854819Y-49223809D01*
X86854819Y-49223809D02*
X86902438Y-49128571D01*
X86902438Y-49128571D02*
X86950057Y-49080952D01*
X86950057Y-49080952D02*
X87045295Y-49033333D01*
X87045295Y-49033333D02*
X87140533Y-49033333D01*
X87140533Y-49033333D02*
X87283390Y-49080952D01*
X87283390Y-49080952D02*
X87854819Y-49652380D01*
X87854819Y-49652380D02*
X87854819Y-49033333D01*
X84454819Y-35076666D02*
X83978628Y-35409999D01*
X84454819Y-35648094D02*
X83454819Y-35648094D01*
X83454819Y-35648094D02*
X83454819Y-35267142D01*
X83454819Y-35267142D02*
X83502438Y-35171904D01*
X83502438Y-35171904D02*
X83550057Y-35124285D01*
X83550057Y-35124285D02*
X83645295Y-35076666D01*
X83645295Y-35076666D02*
X83788152Y-35076666D01*
X83788152Y-35076666D02*
X83883390Y-35124285D01*
X83883390Y-35124285D02*
X83931009Y-35171904D01*
X83931009Y-35171904D02*
X83978628Y-35267142D01*
X83978628Y-35267142D02*
X83978628Y-35648094D01*
X83550057Y-34695713D02*
X83502438Y-34648094D01*
X83502438Y-34648094D02*
X83454819Y-34552856D01*
X83454819Y-34552856D02*
X83454819Y-34314761D01*
X83454819Y-34314761D02*
X83502438Y-34219523D01*
X83502438Y-34219523D02*
X83550057Y-34171904D01*
X83550057Y-34171904D02*
X83645295Y-34124285D01*
X83645295Y-34124285D02*
X83740533Y-34124285D01*
X83740533Y-34124285D02*
X83883390Y-34171904D01*
X83883390Y-34171904D02*
X84454819Y-34743332D01*
X84454819Y-34743332D02*
X84454819Y-34124285D01*
X89161905Y-30867574D02*
X89161905Y-29867574D01*
X89161905Y-29867574D02*
X89400000Y-29867574D01*
X89400000Y-29867574D02*
X89542857Y-29915193D01*
X89542857Y-29915193D02*
X89638095Y-30010431D01*
X89638095Y-30010431D02*
X89685714Y-30105669D01*
X89685714Y-30105669D02*
X89733333Y-30296145D01*
X89733333Y-30296145D02*
X89733333Y-30439002D01*
X89733333Y-30439002D02*
X89685714Y-30629478D01*
X89685714Y-30629478D02*
X89638095Y-30724716D01*
X89638095Y-30724716D02*
X89542857Y-30819955D01*
X89542857Y-30819955D02*
X89400000Y-30867574D01*
X89400000Y-30867574D02*
X89161905Y-30867574D01*
X90590476Y-29867574D02*
X90400000Y-29867574D01*
X90400000Y-29867574D02*
X90304762Y-29915193D01*
X90304762Y-29915193D02*
X90257143Y-29962812D01*
X90257143Y-29962812D02*
X90161905Y-30105669D01*
X90161905Y-30105669D02*
X90114286Y-30296145D01*
X90114286Y-30296145D02*
X90114286Y-30677097D01*
X90114286Y-30677097D02*
X90161905Y-30772335D01*
X90161905Y-30772335D02*
X90209524Y-30819955D01*
X90209524Y-30819955D02*
X90304762Y-30867574D01*
X90304762Y-30867574D02*
X90495238Y-30867574D01*
X90495238Y-30867574D02*
X90590476Y-30819955D01*
X90590476Y-30819955D02*
X90638095Y-30772335D01*
X90638095Y-30772335D02*
X90685714Y-30677097D01*
X90685714Y-30677097D02*
X90685714Y-30439002D01*
X90685714Y-30439002D02*
X90638095Y-30343764D01*
X90638095Y-30343764D02*
X90590476Y-30296145D01*
X90590476Y-30296145D02*
X90495238Y-30248526D01*
X90495238Y-30248526D02*
X90304762Y-30248526D01*
X90304762Y-30248526D02*
X90209524Y-30296145D01*
X90209524Y-30296145D02*
X90161905Y-30343764D01*
X90161905Y-30343764D02*
X90114286Y-30439002D01*
X61424819Y-62974659D02*
X62234342Y-62974659D01*
X62234342Y-62974659D02*
X62329580Y-62927040D01*
X62329580Y-62927040D02*
X62377200Y-62879421D01*
X62377200Y-62879421D02*
X62424819Y-62784183D01*
X62424819Y-62784183D02*
X62424819Y-62593707D01*
X62424819Y-62593707D02*
X62377200Y-62498469D01*
X62377200Y-62498469D02*
X62329580Y-62450850D01*
X62329580Y-62450850D02*
X62234342Y-62403231D01*
X62234342Y-62403231D02*
X61424819Y-62403231D01*
X62424819Y-61403231D02*
X62424819Y-61974659D01*
X62424819Y-61688945D02*
X61424819Y-61688945D01*
X61424819Y-61688945D02*
X61567676Y-61784183D01*
X61567676Y-61784183D02*
X61662914Y-61879421D01*
X61662914Y-61879421D02*
X61710533Y-61974659D01*
X87654819Y-35950849D02*
X86654819Y-35950849D01*
X86654819Y-35950849D02*
X86654819Y-35712754D01*
X86654819Y-35712754D02*
X86702438Y-35569897D01*
X86702438Y-35569897D02*
X86797676Y-35474659D01*
X86797676Y-35474659D02*
X86892914Y-35427040D01*
X86892914Y-35427040D02*
X87083390Y-35379421D01*
X87083390Y-35379421D02*
X87226247Y-35379421D01*
X87226247Y-35379421D02*
X87416723Y-35427040D01*
X87416723Y-35427040D02*
X87511961Y-35474659D01*
X87511961Y-35474659D02*
X87607200Y-35569897D01*
X87607200Y-35569897D02*
X87654819Y-35712754D01*
X87654819Y-35712754D02*
X87654819Y-35950849D01*
X86988152Y-34522278D02*
X87654819Y-34522278D01*
X86607200Y-34760373D02*
X87321485Y-34998468D01*
X87321485Y-34998468D02*
X87321485Y-34379421D01*
X87654819Y-28574659D02*
X86654819Y-28574659D01*
X87654819Y-28003231D02*
X87083390Y-28431802D01*
X86654819Y-28003231D02*
X87226247Y-28574659D01*
X54533333Y-28772335D02*
X54485714Y-28819955D01*
X54485714Y-28819955D02*
X54342857Y-28867574D01*
X54342857Y-28867574D02*
X54247619Y-28867574D01*
X54247619Y-28867574D02*
X54104762Y-28819955D01*
X54104762Y-28819955D02*
X54009524Y-28724716D01*
X54009524Y-28724716D02*
X53961905Y-28629478D01*
X53961905Y-28629478D02*
X53914286Y-28439002D01*
X53914286Y-28439002D02*
X53914286Y-28296145D01*
X53914286Y-28296145D02*
X53961905Y-28105669D01*
X53961905Y-28105669D02*
X54009524Y-28010431D01*
X54009524Y-28010431D02*
X54104762Y-27915193D01*
X54104762Y-27915193D02*
X54247619Y-27867574D01*
X54247619Y-27867574D02*
X54342857Y-27867574D01*
X54342857Y-27867574D02*
X54485714Y-27915193D01*
X54485714Y-27915193D02*
X54533333Y-27962812D01*
X55390476Y-28200907D02*
X55390476Y-28867574D01*
X55152381Y-27819955D02*
X54914286Y-28534240D01*
X54914286Y-28534240D02*
X55533333Y-28534240D01*
X54233333Y-71672335D02*
X54185714Y-71719955D01*
X54185714Y-71719955D02*
X54042857Y-71767574D01*
X54042857Y-71767574D02*
X53947619Y-71767574D01*
X53947619Y-71767574D02*
X53804762Y-71719955D01*
X53804762Y-71719955D02*
X53709524Y-71624716D01*
X53709524Y-71624716D02*
X53661905Y-71529478D01*
X53661905Y-71529478D02*
X53614286Y-71339002D01*
X53614286Y-71339002D02*
X53614286Y-71196145D01*
X53614286Y-71196145D02*
X53661905Y-71005669D01*
X53661905Y-71005669D02*
X53709524Y-70910431D01*
X53709524Y-70910431D02*
X53804762Y-70815193D01*
X53804762Y-70815193D02*
X53947619Y-70767574D01*
X53947619Y-70767574D02*
X54042857Y-70767574D01*
X54042857Y-70767574D02*
X54185714Y-70815193D01*
X54185714Y-70815193D02*
X54233333Y-70862812D01*
X54566667Y-70767574D02*
X55185714Y-70767574D01*
X55185714Y-70767574D02*
X54852381Y-71148526D01*
X54852381Y-71148526D02*
X54995238Y-71148526D01*
X54995238Y-71148526D02*
X55090476Y-71196145D01*
X55090476Y-71196145D02*
X55138095Y-71243764D01*
X55138095Y-71243764D02*
X55185714Y-71339002D01*
X55185714Y-71339002D02*
X55185714Y-71577097D01*
X55185714Y-71577097D02*
X55138095Y-71672335D01*
X55138095Y-71672335D02*
X55090476Y-71719955D01*
X55090476Y-71719955D02*
X54995238Y-71767574D01*
X54995238Y-71767574D02*
X54709524Y-71767574D01*
X54709524Y-71767574D02*
X54614286Y-71719955D01*
X54614286Y-71719955D02*
X54566667Y-71672335D01*
X61524819Y-37974659D02*
X62334342Y-37974659D01*
X62334342Y-37974659D02*
X62429580Y-37927040D01*
X62429580Y-37927040D02*
X62477200Y-37879421D01*
X62477200Y-37879421D02*
X62524819Y-37784183D01*
X62524819Y-37784183D02*
X62524819Y-37593707D01*
X62524819Y-37593707D02*
X62477200Y-37498469D01*
X62477200Y-37498469D02*
X62429580Y-37450850D01*
X62429580Y-37450850D02*
X62334342Y-37403231D01*
X62334342Y-37403231D02*
X61524819Y-37403231D01*
X61620057Y-36974659D02*
X61572438Y-36927040D01*
X61572438Y-36927040D02*
X61524819Y-36831802D01*
X61524819Y-36831802D02*
X61524819Y-36593707D01*
X61524819Y-36593707D02*
X61572438Y-36498469D01*
X61572438Y-36498469D02*
X61620057Y-36450850D01*
X61620057Y-36450850D02*
X61715295Y-36403231D01*
X61715295Y-36403231D02*
X61810533Y-36403231D01*
X61810533Y-36403231D02*
X61953390Y-36450850D01*
X61953390Y-36450850D02*
X62524819Y-37022278D01*
X62524819Y-37022278D02*
X62524819Y-36403231D01*
X93400000Y-59312755D02*
G75*
G02*
X90600000Y-59312755I-1400000J0D01*
G01*
X90600000Y-59312755D02*
G75*
G02*
X93400000Y-59312755I1400000J0D01*
G01*
D11*
X85630000Y-61692755D02*
X85630000Y-67132755D01*
X85630000Y-67132755D02*
X88570000Y-67132755D01*
X87100000Y-60672755D02*
X87100000Y-61692755D01*
X87100000Y-68152755D02*
X87100000Y-67132755D01*
X88570000Y-61692755D02*
X85630000Y-61692755D01*
X88570000Y-62472755D02*
X85630000Y-62472755D01*
X88570000Y-62592755D02*
X85630000Y-62592755D01*
X88570000Y-62712755D02*
X85630000Y-62712755D01*
X88570000Y-67132755D02*
X88570000Y-61692755D01*
D10*
X36000000Y-37212755D02*
G75*
G02*
X33200000Y-37212755I-1400000J0D01*
G01*
X33200000Y-37212755D02*
G75*
G02*
X36000000Y-37212755I1400000J0D01*
G01*
X93400000Y-39812755D02*
G75*
G02*
X90600000Y-39812755I-1400000J0D01*
G01*
X90600000Y-39812755D02*
G75*
G02*
X93400000Y-39812755I1400000J0D01*
G01*
D11*
X53030000Y-59492755D02*
X53030000Y-64932755D01*
X53030000Y-64932755D02*
X55970000Y-64932755D01*
X54500000Y-58472755D02*
X54500000Y-59492755D01*
X54500000Y-65952755D02*
X54500000Y-64932755D01*
X55970000Y-59492755D02*
X53030000Y-59492755D01*
X55970000Y-60272755D02*
X53030000Y-60272755D01*
X55970000Y-60392755D02*
X53030000Y-60392755D01*
X55970000Y-60512755D02*
X53030000Y-60512755D01*
X55970000Y-64932755D02*
X55970000Y-59492755D01*
X82430000Y-59842755D02*
X82760000Y-59842755D01*
X82430000Y-66382755D02*
X82430000Y-59842755D01*
X82760000Y-66382755D02*
X82430000Y-66382755D01*
X84840000Y-66382755D02*
X85170000Y-66382755D01*
X85170000Y-59842755D02*
X84840000Y-59842755D01*
X85170000Y-66382755D02*
X85170000Y-59842755D01*
X53230000Y-34492755D02*
X53230000Y-39932755D01*
X53230000Y-38912755D02*
X56170000Y-38912755D01*
X53230000Y-39032755D02*
X56170000Y-39032755D01*
X53230000Y-39152755D02*
X56170000Y-39152755D01*
X53230000Y-39932755D02*
X56170000Y-39932755D01*
X54700000Y-33472755D02*
X54700000Y-34492755D01*
X54700000Y-40952755D02*
X54700000Y-39932755D01*
X56170000Y-34492755D02*
X53230000Y-34492755D01*
X56170000Y-39932755D02*
X56170000Y-34492755D01*
X94590000Y-67657755D02*
X94590000Y-64567755D01*
X89040000Y-66112707D02*
G75*
G02*
X94590000Y-64567925I2990000J-48D01*
G01*
X94590000Y-67657585D02*
G75*
G02*
X89040000Y-66112803I-2560000J1544830D01*
G01*
X94530000Y-66112755D02*
G75*
G02*
X89530000Y-66112755I-2500000J0D01*
G01*
X89530000Y-66112755D02*
G75*
G02*
X94530000Y-66112755I2500000J0D01*
G01*
X36519000Y-58462755D02*
X52681000Y-58462755D01*
X36520000Y-58342755D02*
X52680000Y-58342755D01*
X36520000Y-58382755D02*
X52680000Y-58382755D01*
X36520000Y-58422755D02*
X52680000Y-58422755D01*
X36521000Y-58302755D02*
X52679000Y-58302755D01*
X36522000Y-58262755D02*
X52678000Y-58262755D01*
X36523000Y-58222755D02*
X52677000Y-58222755D01*
X36524000Y-58182755D02*
X52676000Y-58182755D01*
X36526000Y-58142755D02*
X52674000Y-58142755D01*
X36527000Y-58102755D02*
X52673000Y-58102755D01*
X36529000Y-58062755D02*
X52671000Y-58062755D01*
X36531000Y-58022755D02*
X52669000Y-58022755D01*
X36534000Y-57982755D02*
X52666000Y-57982755D01*
X36536000Y-57942755D02*
X52664000Y-57942755D01*
X36539000Y-57902755D02*
X52661000Y-57902755D01*
X36542000Y-57862755D02*
X52658000Y-57862755D01*
X36545000Y-57822755D02*
X52655000Y-57822755D01*
X36548000Y-57782755D02*
X52652000Y-57782755D01*
X36551000Y-57741755D02*
X52649000Y-57741755D01*
X36555000Y-57701755D02*
X52645000Y-57701755D01*
X36559000Y-57661755D02*
X52641000Y-57661755D01*
X36563000Y-57621755D02*
X52637000Y-57621755D01*
X36567000Y-57581755D02*
X52633000Y-57581755D01*
X36572000Y-57541755D02*
X52628000Y-57541755D01*
X36576000Y-57501755D02*
X52624000Y-57501755D01*
X36581000Y-57461755D02*
X52619000Y-57461755D01*
X36586000Y-57421755D02*
X52614000Y-57421755D01*
X36592000Y-57381755D02*
X52608000Y-57381755D01*
X36597000Y-57341755D02*
X52603000Y-57341755D01*
X36603000Y-57301755D02*
X52597000Y-57301755D01*
X36609000Y-57261755D02*
X52591000Y-57261755D01*
X36615000Y-57221755D02*
X52585000Y-57221755D01*
X36621000Y-57181755D02*
X52579000Y-57181755D01*
X36628000Y-57141755D02*
X52572000Y-57141755D01*
X36634000Y-57101755D02*
X52566000Y-57101755D01*
X36641000Y-57061755D02*
X52559000Y-57061755D01*
X36648000Y-57021755D02*
X52552000Y-57021755D01*
X36656000Y-56981755D02*
X52544000Y-56981755D01*
X36663000Y-56941755D02*
X52537000Y-56941755D01*
X36671000Y-56901755D02*
X52529000Y-56901755D01*
X36679000Y-56861755D02*
X52521000Y-56861755D01*
X36687000Y-56821755D02*
X52513000Y-56821755D01*
X36695000Y-56781755D02*
X52505000Y-56781755D01*
X36704000Y-56741755D02*
X52496000Y-56741755D01*
X36713000Y-56701755D02*
X52487000Y-56701755D01*
X36722000Y-56661755D02*
X52478000Y-56661755D01*
X36731000Y-56621755D02*
X52469000Y-56621755D01*
X36740000Y-56581755D02*
X52460000Y-56581755D01*
X36750000Y-56541755D02*
X52450000Y-56541755D01*
X36760000Y-56501755D02*
X52440000Y-56501755D01*
X36770000Y-56461755D02*
X52430000Y-56461755D01*
X36780000Y-56421755D02*
X52420000Y-56421755D01*
X36790000Y-56381755D02*
X52410000Y-56381755D01*
X36801000Y-56341755D02*
X52399000Y-56341755D01*
X36812000Y-56301755D02*
X52388000Y-56301755D01*
X36823000Y-56261755D02*
X52377000Y-56261755D01*
X36835000Y-56221755D02*
X52365000Y-56221755D01*
X36846000Y-56181755D02*
X52354000Y-56181755D01*
X36858000Y-56141755D02*
X43160000Y-56141755D01*
X36870000Y-56101755D02*
X43160000Y-56101755D01*
X36882000Y-56061755D02*
X43160000Y-56061755D01*
X36895000Y-56021755D02*
X43160000Y-56021755D01*
X36907000Y-55981755D02*
X43160000Y-55981755D01*
X36920000Y-55941755D02*
X43160000Y-55941755D01*
X36934000Y-55901755D02*
X43160000Y-55901755D01*
X36947000Y-55861755D02*
X43160000Y-55861755D01*
X36961000Y-55821755D02*
X43160000Y-55821755D01*
X36975000Y-55781755D02*
X43160000Y-55781755D01*
X36989000Y-55741755D02*
X43160000Y-55741755D01*
X37003000Y-55701755D02*
X43160000Y-55701755D01*
X37018000Y-55661755D02*
X43160000Y-55661755D01*
X37032000Y-55621755D02*
X43160000Y-55621755D01*
X37047000Y-55581755D02*
X43160000Y-55581755D01*
X37063000Y-55541755D02*
X43160000Y-55541755D01*
X37078000Y-55501755D02*
X43160000Y-55501755D01*
X37094000Y-55461755D02*
X43160000Y-55461755D01*
X37110000Y-55421755D02*
X43160000Y-55421755D01*
X37126000Y-55381755D02*
X43160000Y-55381755D01*
X37143000Y-55341755D02*
X43160000Y-55341755D01*
X37160000Y-55301755D02*
X43160000Y-55301755D01*
X37177000Y-55261755D02*
X43160000Y-55261755D01*
X37194000Y-55221755D02*
X43160000Y-55221755D01*
X37211000Y-55181755D02*
X43160000Y-55181755D01*
X37229000Y-55141755D02*
X43160000Y-55141755D01*
X37247000Y-55101755D02*
X43160000Y-55101755D01*
X37266000Y-55061755D02*
X43160000Y-55061755D01*
X37284000Y-55021755D02*
X43160000Y-55021755D01*
X37303000Y-54981755D02*
X43160000Y-54981755D01*
X37322000Y-54941755D02*
X43160000Y-54941755D01*
X37342000Y-54901755D02*
X43160000Y-54901755D01*
X37361000Y-54861755D02*
X43160000Y-54861755D01*
X37381000Y-54821755D02*
X43160000Y-54821755D01*
X37401000Y-54781755D02*
X43160000Y-54781755D01*
X37422000Y-54741755D02*
X43160000Y-54741755D01*
X37443000Y-54701755D02*
X43160000Y-54701755D01*
X37464000Y-54661755D02*
X43160000Y-54661755D01*
X37485000Y-54621755D02*
X43160000Y-54621755D01*
X37506000Y-54581755D02*
X43160000Y-54581755D01*
X37528000Y-54541755D02*
X43160000Y-54541755D01*
X37551000Y-54501755D02*
X43160000Y-54501755D01*
X37573000Y-54461755D02*
X43160000Y-54461755D01*
X37596000Y-54421755D02*
X43160000Y-54421755D01*
X37619000Y-54381755D02*
X43160000Y-54381755D01*
X37642000Y-54341755D02*
X43160000Y-54341755D01*
X37666000Y-54301755D02*
X43160000Y-54301755D01*
X37690000Y-54261755D02*
X43160000Y-54261755D01*
X37714000Y-54221755D02*
X43160000Y-54221755D01*
X37739000Y-54181755D02*
X43160000Y-54181755D01*
X37764000Y-54141755D02*
X43160000Y-54141755D01*
X37789000Y-54101755D02*
X43160000Y-54101755D01*
X37815000Y-54061755D02*
X43160000Y-54061755D01*
X37841000Y-54021755D02*
X43160000Y-54021755D01*
X37867000Y-53981755D02*
X43160000Y-53981755D01*
X37894000Y-53941755D02*
X43160000Y-53941755D01*
X37921000Y-53901755D02*
X43160000Y-53901755D01*
X37948000Y-53861755D02*
X43160000Y-53861755D01*
X37976000Y-53821755D02*
X43160000Y-53821755D01*
X38004000Y-53781755D02*
X43160000Y-53781755D01*
X38032000Y-53741755D02*
X43160000Y-53741755D01*
X38061000Y-53701755D02*
X43160000Y-53701755D01*
X38090000Y-53661755D02*
X43160000Y-53661755D01*
X38120000Y-53621755D02*
X43160000Y-53621755D01*
X38150000Y-53581755D02*
X43160000Y-53581755D01*
X38180000Y-53541755D02*
X43160000Y-53541755D01*
X38210000Y-53501755D02*
X43160000Y-53501755D01*
X38242000Y-53461755D02*
X43160000Y-53461755D01*
X38273000Y-53421755D02*
X43160000Y-53421755D01*
X38305000Y-53381755D02*
X43160000Y-53381755D01*
X38337000Y-53341755D02*
X43160000Y-53341755D01*
X38370000Y-53301755D02*
X43160000Y-53301755D01*
X38403000Y-53261755D02*
X50797000Y-53261755D01*
X38437000Y-53221755D02*
X50763000Y-53221755D01*
X38471000Y-53181755D02*
X50729000Y-53181755D01*
X38505000Y-53141755D02*
X50695000Y-53141755D01*
X38540000Y-53101755D02*
X50660000Y-53101755D01*
X38575000Y-53061755D02*
X50625000Y-53061755D01*
X38611000Y-53021755D02*
X50589000Y-53021755D01*
X38648000Y-52981755D02*
X50552000Y-52981755D01*
X38684000Y-52941755D02*
X50516000Y-52941755D01*
X38722000Y-52901755D02*
X50478000Y-52901755D01*
X38760000Y-52861755D02*
X50440000Y-52861755D01*
X38798000Y-52821755D02*
X50402000Y-52821755D01*
X38837000Y-52781755D02*
X50363000Y-52781755D01*
X38876000Y-52741755D02*
X50324000Y-52741755D01*
X38916000Y-52701755D02*
X50284000Y-52701755D01*
X38957000Y-52661755D02*
X50243000Y-52661755D01*
X38998000Y-52621755D02*
X50202000Y-52621755D01*
X39040000Y-52581755D02*
X50160000Y-52581755D01*
X39082000Y-52541755D02*
X50118000Y-52541755D01*
X39125000Y-52501755D02*
X50075000Y-52501755D01*
X39168000Y-52461755D02*
X50032000Y-52461755D01*
X39212000Y-52421755D02*
X49988000Y-52421755D01*
X39245000Y-66352246D02*
X40845000Y-66352246D01*
X39257000Y-52381755D02*
X49943000Y-52381755D01*
X39303000Y-52341755D02*
X49897000Y-52341755D01*
X39349000Y-52301755D02*
X49851000Y-52301755D01*
X39396000Y-52261755D02*
X49804000Y-52261755D01*
X39444000Y-52221755D02*
X49756000Y-52221755D01*
X39492000Y-52181755D02*
X49708000Y-52181755D01*
X39541000Y-52141755D02*
X49659000Y-52141755D01*
X39591000Y-52101755D02*
X49609000Y-52101755D01*
X39642000Y-52061755D02*
X49558000Y-52061755D01*
X39694000Y-52021755D02*
X49506000Y-52021755D01*
X39746000Y-51981755D02*
X49454000Y-51981755D01*
X39800000Y-51941755D02*
X49400000Y-51941755D01*
X39854000Y-51901755D02*
X49346000Y-51901755D01*
X39909000Y-51861755D02*
X49291000Y-51861755D01*
X39966000Y-51821755D02*
X49234000Y-51821755D01*
X40023000Y-51781755D02*
X49177000Y-51781755D01*
X40045000Y-67152246D02*
X40045000Y-65552246D01*
X40081000Y-51741755D02*
X49119000Y-51741755D01*
X40141000Y-51701755D02*
X49059000Y-51701755D01*
X40202000Y-51661755D02*
X48998000Y-51661755D01*
X40264000Y-51621755D02*
X48936000Y-51621755D01*
X40327000Y-51581755D02*
X48873000Y-51581755D01*
X40391000Y-51541755D02*
X48809000Y-51541755D01*
X40457000Y-51501755D02*
X48743000Y-51501755D01*
X40524000Y-51461755D02*
X48676000Y-51461755D01*
X40593000Y-51421755D02*
X48607000Y-51421755D01*
X40664000Y-51381755D02*
X48536000Y-51381755D01*
X40736000Y-51341755D02*
X48464000Y-51341755D01*
X40810000Y-51301755D02*
X48390000Y-51301755D01*
X40885000Y-51261755D02*
X48315000Y-51261755D01*
X40963000Y-51221755D02*
X48237000Y-51221755D01*
X41043000Y-51181755D02*
X48157000Y-51181755D01*
X41125000Y-51141755D02*
X48075000Y-51141755D01*
X41210000Y-51101755D02*
X47990000Y-51101755D01*
X41297000Y-51061755D02*
X47903000Y-51061755D01*
X41387000Y-51021755D02*
X47813000Y-51021755D01*
X41480000Y-50981755D02*
X47720000Y-50981755D01*
X41576000Y-50941755D02*
X47624000Y-50941755D01*
X41676000Y-50901755D02*
X47524000Y-50901755D01*
X41780000Y-50861755D02*
X47420000Y-50861755D01*
X41889000Y-50821755D02*
X47311000Y-50821755D01*
X42003000Y-50781755D02*
X47197000Y-50781755D01*
X42122000Y-50741755D02*
X47078000Y-50741755D01*
X42249000Y-50701755D02*
X46951000Y-50701755D01*
X42382000Y-50661755D02*
X46818000Y-50661755D01*
X42526000Y-50621755D02*
X46674000Y-50621755D01*
X42680000Y-50581755D02*
X46520000Y-50581755D01*
X42848000Y-50541755D02*
X46352000Y-50541755D01*
X43036000Y-50501755D02*
X46164000Y-50501755D01*
X43249000Y-50461755D02*
X45951000Y-50461755D01*
X43502000Y-50421755D02*
X45698000Y-50421755D01*
X43835000Y-50381755D02*
X45365000Y-50381755D01*
X46040000Y-53301755D02*
X50830000Y-53301755D01*
X46040000Y-53341755D02*
X50863000Y-53341755D01*
X46040000Y-53381755D02*
X50895000Y-53381755D01*
X46040000Y-53421755D02*
X50927000Y-53421755D01*
X46040000Y-53461755D02*
X50958000Y-53461755D01*
X46040000Y-53501755D02*
X50990000Y-53501755D01*
X46040000Y-53541755D02*
X51020000Y-53541755D01*
X46040000Y-53581755D02*
X51050000Y-53581755D01*
X46040000Y-53621755D02*
X51080000Y-53621755D01*
X46040000Y-53661755D02*
X51110000Y-53661755D01*
X46040000Y-53701755D02*
X51139000Y-53701755D01*
X46040000Y-53741755D02*
X51168000Y-53741755D01*
X46040000Y-53781755D02*
X51196000Y-53781755D01*
X46040000Y-53821755D02*
X51224000Y-53821755D01*
X46040000Y-53861755D02*
X51252000Y-53861755D01*
X46040000Y-53901755D02*
X51279000Y-53901755D01*
X46040000Y-53941755D02*
X51306000Y-53941755D01*
X46040000Y-53981755D02*
X51333000Y-53981755D01*
X46040000Y-54021755D02*
X51359000Y-54021755D01*
X46040000Y-54061755D02*
X51385000Y-54061755D01*
X46040000Y-54101755D02*
X51411000Y-54101755D01*
X46040000Y-54141755D02*
X51436000Y-54141755D01*
X46040000Y-54181755D02*
X51461000Y-54181755D01*
X46040000Y-54221755D02*
X51486000Y-54221755D01*
X46040000Y-54261755D02*
X51510000Y-54261755D01*
X46040000Y-54301755D02*
X51534000Y-54301755D01*
X46040000Y-54341755D02*
X51558000Y-54341755D01*
X46040000Y-54381755D02*
X51581000Y-54381755D01*
X46040000Y-54421755D02*
X51604000Y-54421755D01*
X46040000Y-54461755D02*
X51627000Y-54461755D01*
X46040000Y-54501755D02*
X51649000Y-54501755D01*
X46040000Y-54541755D02*
X51672000Y-54541755D01*
X46040000Y-54581755D02*
X51694000Y-54581755D01*
X46040000Y-54621755D02*
X51715000Y-54621755D01*
X46040000Y-54661755D02*
X51736000Y-54661755D01*
X46040000Y-54701755D02*
X51757000Y-54701755D01*
X46040000Y-54741755D02*
X51778000Y-54741755D01*
X46040000Y-54781755D02*
X51799000Y-54781755D01*
X46040000Y-54821755D02*
X51819000Y-54821755D01*
X46040000Y-54861755D02*
X51839000Y-54861755D01*
X46040000Y-54901755D02*
X51858000Y-54901755D01*
X46040000Y-54941755D02*
X51878000Y-54941755D01*
X46040000Y-54981755D02*
X51897000Y-54981755D01*
X46040000Y-55021755D02*
X51916000Y-55021755D01*
X46040000Y-55061755D02*
X51934000Y-55061755D01*
X46040000Y-55101755D02*
X51953000Y-55101755D01*
X46040000Y-55141755D02*
X51971000Y-55141755D01*
X46040000Y-55181755D02*
X51989000Y-55181755D01*
X46040000Y-55221755D02*
X52006000Y-55221755D01*
X46040000Y-55261755D02*
X52023000Y-55261755D01*
X46040000Y-55301755D02*
X52040000Y-55301755D01*
X46040000Y-55341755D02*
X52057000Y-55341755D01*
X46040000Y-55381755D02*
X52074000Y-55381755D01*
X46040000Y-55421755D02*
X52090000Y-55421755D01*
X46040000Y-55461755D02*
X52106000Y-55461755D01*
X46040000Y-55501755D02*
X52122000Y-55501755D01*
X46040000Y-55541755D02*
X52137000Y-55541755D01*
X46040000Y-55581755D02*
X52153000Y-55581755D01*
X46040000Y-55621755D02*
X52168000Y-55621755D01*
X46040000Y-55661755D02*
X52182000Y-55661755D01*
X46040000Y-55701755D02*
X52197000Y-55701755D01*
X46040000Y-55741755D02*
X52211000Y-55741755D01*
X46040000Y-55781755D02*
X52225000Y-55781755D01*
X46040000Y-55821755D02*
X52239000Y-55821755D01*
X46040000Y-55861755D02*
X52253000Y-55861755D01*
X46040000Y-55901755D02*
X52266000Y-55901755D01*
X46040000Y-55941755D02*
X52280000Y-55941755D01*
X46040000Y-55981755D02*
X52293000Y-55981755D01*
X46040000Y-56021755D02*
X52305000Y-56021755D01*
X46040000Y-56061755D02*
X52318000Y-56061755D01*
X46040000Y-56101755D02*
X52330000Y-56101755D01*
X46040000Y-56141755D02*
X52342000Y-56141755D01*
X52720000Y-58462755D02*
G75*
G02*
X36480000Y-58462755I-8120000J0D01*
G01*
X36480000Y-58462755D02*
G75*
G02*
X52720000Y-58462755I8120000J0D01*
G01*
X26190000Y-57332755D02*
X26190000Y-42092755D01*
X32540000Y-57332755D02*
X32540000Y-42092755D01*
X33810000Y-42092755D02*
X26190000Y-42092755D01*
X33810000Y-57332755D02*
X26190000Y-57332755D01*
X33810000Y-57332755D02*
X33810000Y-42092755D01*
D10*
X36100000Y-62212755D02*
G75*
G02*
X33300000Y-62212755I-1400000J0D01*
G01*
X33300000Y-62212755D02*
G75*
G02*
X36100000Y-62212755I1400000J0D01*
G01*
D11*
X36519000Y-40962755D02*
X52681000Y-40962755D01*
X36520000Y-40842755D02*
X52680000Y-40842755D01*
X36520000Y-40882755D02*
X52680000Y-40882755D01*
X36520000Y-40922755D02*
X52680000Y-40922755D01*
X36521000Y-40802755D02*
X52679000Y-40802755D01*
X36522000Y-40762755D02*
X52678000Y-40762755D01*
X36523000Y-40722755D02*
X52677000Y-40722755D01*
X36524000Y-40682755D02*
X52676000Y-40682755D01*
X36526000Y-40642755D02*
X52674000Y-40642755D01*
X36527000Y-40602755D02*
X52673000Y-40602755D01*
X36529000Y-40562755D02*
X52671000Y-40562755D01*
X36531000Y-40522755D02*
X52669000Y-40522755D01*
X36534000Y-40482755D02*
X52666000Y-40482755D01*
X36536000Y-40442755D02*
X52664000Y-40442755D01*
X36539000Y-40402755D02*
X52661000Y-40402755D01*
X36542000Y-40362755D02*
X52658000Y-40362755D01*
X36545000Y-40322755D02*
X52655000Y-40322755D01*
X36548000Y-40282755D02*
X52652000Y-40282755D01*
X36551000Y-40241755D02*
X52649000Y-40241755D01*
X36555000Y-40201755D02*
X52645000Y-40201755D01*
X36559000Y-40161755D02*
X52641000Y-40161755D01*
X36563000Y-40121755D02*
X52637000Y-40121755D01*
X36567000Y-40081755D02*
X52633000Y-40081755D01*
X36572000Y-40041755D02*
X52628000Y-40041755D01*
X36576000Y-40001755D02*
X52624000Y-40001755D01*
X36581000Y-39961755D02*
X52619000Y-39961755D01*
X36586000Y-39921755D02*
X52614000Y-39921755D01*
X36592000Y-39881755D02*
X52608000Y-39881755D01*
X36597000Y-39841755D02*
X52603000Y-39841755D01*
X36603000Y-39801755D02*
X52597000Y-39801755D01*
X36609000Y-39761755D02*
X52591000Y-39761755D01*
X36615000Y-39721755D02*
X52585000Y-39721755D01*
X36621000Y-39681755D02*
X52579000Y-39681755D01*
X36628000Y-39641755D02*
X52572000Y-39641755D01*
X36634000Y-39601755D02*
X52566000Y-39601755D01*
X36641000Y-39561755D02*
X52559000Y-39561755D01*
X36648000Y-39521755D02*
X52552000Y-39521755D01*
X36656000Y-39481755D02*
X52544000Y-39481755D01*
X36663000Y-39441755D02*
X52537000Y-39441755D01*
X36671000Y-39401755D02*
X52529000Y-39401755D01*
X36679000Y-39361755D02*
X52521000Y-39361755D01*
X36687000Y-39321755D02*
X52513000Y-39321755D01*
X36695000Y-39281755D02*
X52505000Y-39281755D01*
X36704000Y-39241755D02*
X52496000Y-39241755D01*
X36713000Y-39201755D02*
X52487000Y-39201755D01*
X36722000Y-39161755D02*
X52478000Y-39161755D01*
X36731000Y-39121755D02*
X52469000Y-39121755D01*
X36740000Y-39081755D02*
X52460000Y-39081755D01*
X36750000Y-39041755D02*
X52450000Y-39041755D01*
X36760000Y-39001755D02*
X52440000Y-39001755D01*
X36770000Y-38961755D02*
X52430000Y-38961755D01*
X36780000Y-38921755D02*
X52420000Y-38921755D01*
X36790000Y-38881755D02*
X52410000Y-38881755D01*
X36801000Y-38841755D02*
X52399000Y-38841755D01*
X36812000Y-38801755D02*
X52388000Y-38801755D01*
X36823000Y-38761755D02*
X52377000Y-38761755D01*
X36835000Y-38721755D02*
X52365000Y-38721755D01*
X36846000Y-38681755D02*
X52354000Y-38681755D01*
X36858000Y-38641755D02*
X43160000Y-38641755D01*
X36870000Y-38601755D02*
X43160000Y-38601755D01*
X36882000Y-38561755D02*
X43160000Y-38561755D01*
X36895000Y-38521755D02*
X43160000Y-38521755D01*
X36907000Y-38481755D02*
X43160000Y-38481755D01*
X36920000Y-38441755D02*
X43160000Y-38441755D01*
X36934000Y-38401755D02*
X43160000Y-38401755D01*
X36947000Y-38361755D02*
X43160000Y-38361755D01*
X36961000Y-38321755D02*
X43160000Y-38321755D01*
X36975000Y-38281755D02*
X43160000Y-38281755D01*
X36989000Y-38241755D02*
X43160000Y-38241755D01*
X37003000Y-38201755D02*
X43160000Y-38201755D01*
X37018000Y-38161755D02*
X43160000Y-38161755D01*
X37032000Y-38121755D02*
X43160000Y-38121755D01*
X37047000Y-38081755D02*
X43160000Y-38081755D01*
X37063000Y-38041755D02*
X43160000Y-38041755D01*
X37078000Y-38001755D02*
X43160000Y-38001755D01*
X37094000Y-37961755D02*
X43160000Y-37961755D01*
X37110000Y-37921755D02*
X43160000Y-37921755D01*
X37126000Y-37881755D02*
X43160000Y-37881755D01*
X37143000Y-37841755D02*
X43160000Y-37841755D01*
X37160000Y-37801755D02*
X43160000Y-37801755D01*
X37177000Y-37761755D02*
X43160000Y-37761755D01*
X37194000Y-37721755D02*
X43160000Y-37721755D01*
X37211000Y-37681755D02*
X43160000Y-37681755D01*
X37229000Y-37641755D02*
X43160000Y-37641755D01*
X37247000Y-37601755D02*
X43160000Y-37601755D01*
X37266000Y-37561755D02*
X43160000Y-37561755D01*
X37284000Y-37521755D02*
X43160000Y-37521755D01*
X37303000Y-37481755D02*
X43160000Y-37481755D01*
X37322000Y-37441755D02*
X43160000Y-37441755D01*
X37342000Y-37401755D02*
X43160000Y-37401755D01*
X37361000Y-37361755D02*
X43160000Y-37361755D01*
X37381000Y-37321755D02*
X43160000Y-37321755D01*
X37401000Y-37281755D02*
X43160000Y-37281755D01*
X37422000Y-37241755D02*
X43160000Y-37241755D01*
X37443000Y-37201755D02*
X43160000Y-37201755D01*
X37464000Y-37161755D02*
X43160000Y-37161755D01*
X37485000Y-37121755D02*
X43160000Y-37121755D01*
X37506000Y-37081755D02*
X43160000Y-37081755D01*
X37528000Y-37041755D02*
X43160000Y-37041755D01*
X37551000Y-37001755D02*
X43160000Y-37001755D01*
X37573000Y-36961755D02*
X43160000Y-36961755D01*
X37596000Y-36921755D02*
X43160000Y-36921755D01*
X37619000Y-36881755D02*
X43160000Y-36881755D01*
X37642000Y-36841755D02*
X43160000Y-36841755D01*
X37666000Y-36801755D02*
X43160000Y-36801755D01*
X37690000Y-36761755D02*
X43160000Y-36761755D01*
X37714000Y-36721755D02*
X43160000Y-36721755D01*
X37739000Y-36681755D02*
X43160000Y-36681755D01*
X37764000Y-36641755D02*
X43160000Y-36641755D01*
X37789000Y-36601755D02*
X43160000Y-36601755D01*
X37815000Y-36561755D02*
X43160000Y-36561755D01*
X37841000Y-36521755D02*
X43160000Y-36521755D01*
X37867000Y-36481755D02*
X43160000Y-36481755D01*
X37894000Y-36441755D02*
X43160000Y-36441755D01*
X37921000Y-36401755D02*
X43160000Y-36401755D01*
X37948000Y-36361755D02*
X43160000Y-36361755D01*
X37976000Y-36321755D02*
X43160000Y-36321755D01*
X38004000Y-36281755D02*
X43160000Y-36281755D01*
X38032000Y-36241755D02*
X43160000Y-36241755D01*
X38061000Y-36201755D02*
X43160000Y-36201755D01*
X38090000Y-36161755D02*
X43160000Y-36161755D01*
X38120000Y-36121755D02*
X43160000Y-36121755D01*
X38150000Y-36081755D02*
X43160000Y-36081755D01*
X38180000Y-36041755D02*
X43160000Y-36041755D01*
X38210000Y-36001755D02*
X43160000Y-36001755D01*
X38242000Y-35961755D02*
X43160000Y-35961755D01*
X38273000Y-35921755D02*
X43160000Y-35921755D01*
X38305000Y-35881755D02*
X43160000Y-35881755D01*
X38337000Y-35841755D02*
X43160000Y-35841755D01*
X38370000Y-35801755D02*
X43160000Y-35801755D01*
X38403000Y-35761755D02*
X50797000Y-35761755D01*
X38437000Y-35721755D02*
X50763000Y-35721755D01*
X38471000Y-35681755D02*
X50729000Y-35681755D01*
X38505000Y-35641755D02*
X50695000Y-35641755D01*
X38540000Y-35601755D02*
X50660000Y-35601755D01*
X38575000Y-35561755D02*
X50625000Y-35561755D01*
X38611000Y-35521755D02*
X50589000Y-35521755D01*
X38648000Y-35481755D02*
X50552000Y-35481755D01*
X38684000Y-35441755D02*
X50516000Y-35441755D01*
X38722000Y-35401755D02*
X50478000Y-35401755D01*
X38760000Y-35361755D02*
X50440000Y-35361755D01*
X38798000Y-35321755D02*
X50402000Y-35321755D01*
X38837000Y-35281755D02*
X50363000Y-35281755D01*
X38876000Y-35241755D02*
X50324000Y-35241755D01*
X38916000Y-35201755D02*
X50284000Y-35201755D01*
X38957000Y-35161755D02*
X50243000Y-35161755D01*
X38998000Y-35121755D02*
X50202000Y-35121755D01*
X39040000Y-35081755D02*
X50160000Y-35081755D01*
X39082000Y-35041755D02*
X50118000Y-35041755D01*
X39125000Y-35001755D02*
X50075000Y-35001755D01*
X39168000Y-34961755D02*
X50032000Y-34961755D01*
X39212000Y-34921755D02*
X49988000Y-34921755D01*
X39245000Y-48852246D02*
X40845000Y-48852246D01*
X39257000Y-34881755D02*
X49943000Y-34881755D01*
X39303000Y-34841755D02*
X49897000Y-34841755D01*
X39349000Y-34801755D02*
X49851000Y-34801755D01*
X39396000Y-34761755D02*
X49804000Y-34761755D01*
X39444000Y-34721755D02*
X49756000Y-34721755D01*
X39492000Y-34681755D02*
X49708000Y-34681755D01*
X39541000Y-34641755D02*
X49659000Y-34641755D01*
X39591000Y-34601755D02*
X49609000Y-34601755D01*
X39642000Y-34561755D02*
X49558000Y-34561755D01*
X39694000Y-34521755D02*
X49506000Y-34521755D01*
X39746000Y-34481755D02*
X49454000Y-34481755D01*
X39800000Y-34441755D02*
X49400000Y-34441755D01*
X39854000Y-34401755D02*
X49346000Y-34401755D01*
X39909000Y-34361755D02*
X49291000Y-34361755D01*
X39966000Y-34321755D02*
X49234000Y-34321755D01*
X40023000Y-34281755D02*
X49177000Y-34281755D01*
X40045000Y-49652246D02*
X40045000Y-48052246D01*
X40081000Y-34241755D02*
X49119000Y-34241755D01*
X40141000Y-34201755D02*
X49059000Y-34201755D01*
X40202000Y-34161755D02*
X48998000Y-34161755D01*
X40264000Y-34121755D02*
X48936000Y-34121755D01*
X40327000Y-34081755D02*
X48873000Y-34081755D01*
X40391000Y-34041755D02*
X48809000Y-34041755D01*
X40457000Y-34001755D02*
X48743000Y-34001755D01*
X40524000Y-33961755D02*
X48676000Y-33961755D01*
X40593000Y-33921755D02*
X48607000Y-33921755D01*
X40664000Y-33881755D02*
X48536000Y-33881755D01*
X40736000Y-33841755D02*
X48464000Y-33841755D01*
X40810000Y-33801755D02*
X48390000Y-33801755D01*
X40885000Y-33761755D02*
X48315000Y-33761755D01*
X40963000Y-33721755D02*
X48237000Y-33721755D01*
X41043000Y-33681755D02*
X48157000Y-33681755D01*
X41125000Y-33641755D02*
X48075000Y-33641755D01*
X41210000Y-33601755D02*
X47990000Y-33601755D01*
X41297000Y-33561755D02*
X47903000Y-33561755D01*
X41387000Y-33521755D02*
X47813000Y-33521755D01*
X41480000Y-33481755D02*
X47720000Y-33481755D01*
X41576000Y-33441755D02*
X47624000Y-33441755D01*
X41676000Y-33401755D02*
X47524000Y-33401755D01*
X41780000Y-33361755D02*
X47420000Y-33361755D01*
X41889000Y-33321755D02*
X47311000Y-33321755D01*
X42003000Y-33281755D02*
X47197000Y-33281755D01*
X42122000Y-33241755D02*
X47078000Y-33241755D01*
X42249000Y-33201755D02*
X46951000Y-33201755D01*
X42382000Y-33161755D02*
X46818000Y-33161755D01*
X42526000Y-33121755D02*
X46674000Y-33121755D01*
X42680000Y-33081755D02*
X46520000Y-33081755D01*
X42848000Y-33041755D02*
X46352000Y-33041755D01*
X43036000Y-33001755D02*
X46164000Y-33001755D01*
X43249000Y-32961755D02*
X45951000Y-32961755D01*
X43502000Y-32921755D02*
X45698000Y-32921755D01*
X43835000Y-32881755D02*
X45365000Y-32881755D01*
X46040000Y-35801755D02*
X50830000Y-35801755D01*
X46040000Y-35841755D02*
X50863000Y-35841755D01*
X46040000Y-35881755D02*
X50895000Y-35881755D01*
X46040000Y-35921755D02*
X50927000Y-35921755D01*
X46040000Y-35961755D02*
X50958000Y-35961755D01*
X46040000Y-36001755D02*
X50990000Y-36001755D01*
X46040000Y-36041755D02*
X51020000Y-36041755D01*
X46040000Y-36081755D02*
X51050000Y-36081755D01*
X46040000Y-36121755D02*
X51080000Y-36121755D01*
X46040000Y-36161755D02*
X51110000Y-36161755D01*
X46040000Y-36201755D02*
X51139000Y-36201755D01*
X46040000Y-36241755D02*
X51168000Y-36241755D01*
X46040000Y-36281755D02*
X51196000Y-36281755D01*
X46040000Y-36321755D02*
X51224000Y-36321755D01*
X46040000Y-36361755D02*
X51252000Y-36361755D01*
X46040000Y-36401755D02*
X51279000Y-36401755D01*
X46040000Y-36441755D02*
X51306000Y-36441755D01*
X46040000Y-36481755D02*
X51333000Y-36481755D01*
X46040000Y-36521755D02*
X51359000Y-36521755D01*
X46040000Y-36561755D02*
X51385000Y-36561755D01*
X46040000Y-36601755D02*
X51411000Y-36601755D01*
X46040000Y-36641755D02*
X51436000Y-36641755D01*
X46040000Y-36681755D02*
X51461000Y-36681755D01*
X46040000Y-36721755D02*
X51486000Y-36721755D01*
X46040000Y-36761755D02*
X51510000Y-36761755D01*
X46040000Y-36801755D02*
X51534000Y-36801755D01*
X46040000Y-36841755D02*
X51558000Y-36841755D01*
X46040000Y-36881755D02*
X51581000Y-36881755D01*
X46040000Y-36921755D02*
X51604000Y-36921755D01*
X46040000Y-36961755D02*
X51627000Y-36961755D01*
X46040000Y-37001755D02*
X51649000Y-37001755D01*
X46040000Y-37041755D02*
X51672000Y-37041755D01*
X46040000Y-37081755D02*
X51694000Y-37081755D01*
X46040000Y-37121755D02*
X51715000Y-37121755D01*
X46040000Y-37161755D02*
X51736000Y-37161755D01*
X46040000Y-37201755D02*
X51757000Y-37201755D01*
X46040000Y-37241755D02*
X51778000Y-37241755D01*
X46040000Y-37281755D02*
X51799000Y-37281755D01*
X46040000Y-37321755D02*
X51819000Y-37321755D01*
X46040000Y-37361755D02*
X51839000Y-37361755D01*
X46040000Y-37401755D02*
X51858000Y-37401755D01*
X46040000Y-37441755D02*
X51878000Y-37441755D01*
X46040000Y-37481755D02*
X51897000Y-37481755D01*
X46040000Y-37521755D02*
X51916000Y-37521755D01*
X46040000Y-37561755D02*
X51934000Y-37561755D01*
X46040000Y-37601755D02*
X51953000Y-37601755D01*
X46040000Y-37641755D02*
X51971000Y-37641755D01*
X46040000Y-37681755D02*
X51989000Y-37681755D01*
X46040000Y-37721755D02*
X52006000Y-37721755D01*
X46040000Y-37761755D02*
X52023000Y-37761755D01*
X46040000Y-37801755D02*
X52040000Y-37801755D01*
X46040000Y-37841755D02*
X52057000Y-37841755D01*
X46040000Y-37881755D02*
X52074000Y-37881755D01*
X46040000Y-37921755D02*
X52090000Y-37921755D01*
X46040000Y-37961755D02*
X52106000Y-37961755D01*
X46040000Y-38001755D02*
X52122000Y-38001755D01*
X46040000Y-38041755D02*
X52137000Y-38041755D01*
X46040000Y-38081755D02*
X52153000Y-38081755D01*
X46040000Y-38121755D02*
X52168000Y-38121755D01*
X46040000Y-38161755D02*
X52182000Y-38161755D01*
X46040000Y-38201755D02*
X52197000Y-38201755D01*
X46040000Y-38241755D02*
X52211000Y-38241755D01*
X46040000Y-38281755D02*
X52225000Y-38281755D01*
X46040000Y-38321755D02*
X52239000Y-38321755D01*
X46040000Y-38361755D02*
X52253000Y-38361755D01*
X46040000Y-38401755D02*
X52266000Y-38401755D01*
X46040000Y-38441755D02*
X52280000Y-38441755D01*
X46040000Y-38481755D02*
X52293000Y-38481755D01*
X46040000Y-38521755D02*
X52305000Y-38521755D01*
X46040000Y-38561755D02*
X52318000Y-38561755D01*
X46040000Y-38601755D02*
X52330000Y-38601755D01*
X46040000Y-38641755D02*
X52342000Y-38641755D01*
X52720000Y-40962755D02*
G75*
G02*
X36480000Y-40962755I-8120000J0D01*
G01*
X36480000Y-40962755D02*
G75*
G02*
X52720000Y-40962755I8120000J0D01*
G01*
X88190000Y-42092755D02*
X88190000Y-57332755D01*
X88190000Y-42092755D02*
X95810000Y-42092755D01*
X88190000Y-57332755D02*
X95810000Y-57332755D01*
X89460000Y-42092755D02*
X89460000Y-57332755D01*
X95810000Y-42092755D02*
X95810000Y-57332755D01*
X82630000Y-31640000D02*
X82960000Y-31640000D01*
X82630000Y-38180000D02*
X82630000Y-31640000D01*
X82960000Y-38180000D02*
X82630000Y-38180000D01*
X85040000Y-38180000D02*
X85370000Y-38180000D01*
X85370000Y-31640000D02*
X85040000Y-31640000D01*
X85370000Y-38180000D02*
X85370000Y-31640000D01*
X94665000Y-35257755D02*
X94665000Y-32167755D01*
X89115000Y-33712707D02*
G75*
G02*
X94665000Y-32167925I2990000J-48D01*
G01*
X94665000Y-35257585D02*
G75*
G02*
X89115000Y-33712803I-2560000J1544830D01*
G01*
X94605000Y-33712755D02*
G75*
G02*
X89605000Y-33712755I-2500000J0D01*
G01*
X89605000Y-33712755D02*
G75*
G02*
X94605000Y-33712755I2500000J0D01*
G01*
X56329000Y-57092755D02*
X56329000Y-67332755D01*
X59460000Y-57092755D02*
X59460000Y-67332755D01*
X60970000Y-57092755D02*
X56329000Y-57092755D01*
X60970000Y-57092755D02*
X60970000Y-67332755D01*
X60970000Y-60362755D02*
X59460000Y-60362755D01*
X60970000Y-64063755D02*
X59460000Y-64063755D01*
X60970000Y-67332755D02*
X56329000Y-67332755D01*
X85730000Y-32492755D02*
X85730000Y-37932755D01*
X85730000Y-37932755D02*
X88670000Y-37932755D01*
X87200000Y-31472755D02*
X87200000Y-32492755D01*
X87200000Y-38952755D02*
X87200000Y-37932755D01*
X88670000Y-32492755D02*
X85730000Y-32492755D01*
X88670000Y-33272755D02*
X85730000Y-33272755D01*
X88670000Y-33392755D02*
X85730000Y-33392755D01*
X88670000Y-33512755D02*
X85730000Y-33512755D01*
X88670000Y-37932755D02*
X88670000Y-32492755D01*
X56195225Y-26937755D02*
X56695225Y-26937755D01*
X56445225Y-26687755D02*
X56445225Y-27187755D01*
X59000000Y-25832755D02*
X59000000Y-27372755D01*
X59000000Y-29452755D02*
X59000000Y-30992755D01*
X59040000Y-25832755D02*
X59040000Y-27372755D01*
X59040000Y-29452755D02*
X59040000Y-30992755D01*
X59080000Y-25833755D02*
X59080000Y-27372755D01*
X59080000Y-29452755D02*
X59080000Y-30991755D01*
X59120000Y-25834755D02*
X59120000Y-27372755D01*
X59120000Y-29452755D02*
X59120000Y-30990755D01*
X59160000Y-25836755D02*
X59160000Y-27372755D01*
X59160000Y-29452755D02*
X59160000Y-30988755D01*
X59200000Y-25839755D02*
X59200000Y-27372755D01*
X59200000Y-29452755D02*
X59200000Y-30985755D01*
X59240000Y-25843755D02*
X59240000Y-27372755D01*
X59240000Y-29452755D02*
X59240000Y-30981755D01*
X59280000Y-25847755D02*
X59280000Y-27372755D01*
X59280000Y-29452755D02*
X59280000Y-30977755D01*
X59320000Y-25851755D02*
X59320000Y-27372755D01*
X59320000Y-29452755D02*
X59320000Y-30973755D01*
X59360000Y-25856755D02*
X59360000Y-27372755D01*
X59360000Y-29452755D02*
X59360000Y-30968755D01*
X59400000Y-25862755D02*
X59400000Y-27372755D01*
X59400000Y-29452755D02*
X59400000Y-30962755D01*
X59440000Y-25869755D02*
X59440000Y-27372755D01*
X59440000Y-29452755D02*
X59440000Y-30955755D01*
X59480000Y-25876755D02*
X59480000Y-27372755D01*
X59480000Y-29452755D02*
X59480000Y-30948755D01*
X59520000Y-25884755D02*
X59520000Y-27372755D01*
X59520000Y-29452755D02*
X59520000Y-30940755D01*
X59560000Y-25892755D02*
X59560000Y-27372755D01*
X59560000Y-29452755D02*
X59560000Y-30932755D01*
X59600000Y-25901755D02*
X59600000Y-27372755D01*
X59600000Y-29452755D02*
X59600000Y-30923755D01*
X59640000Y-25911755D02*
X59640000Y-27372755D01*
X59640000Y-29452755D02*
X59640000Y-30913755D01*
X59680000Y-25921755D02*
X59680000Y-27372755D01*
X59680000Y-29452755D02*
X59680000Y-30903755D01*
X59721000Y-25932755D02*
X59721000Y-27372755D01*
X59721000Y-29452755D02*
X59721000Y-30892755D01*
X59761000Y-25944755D02*
X59761000Y-27372755D01*
X59761000Y-29452755D02*
X59761000Y-30880755D01*
X59801000Y-25957755D02*
X59801000Y-27372755D01*
X59801000Y-29452755D02*
X59801000Y-30867755D01*
X59841000Y-25970755D02*
X59841000Y-27372755D01*
X59841000Y-29452755D02*
X59841000Y-30854755D01*
X59881000Y-25984755D02*
X59881000Y-27372755D01*
X59881000Y-29452755D02*
X59881000Y-30840755D01*
X59921000Y-25998755D02*
X59921000Y-27372755D01*
X59921000Y-29452755D02*
X59921000Y-30826755D01*
X59961000Y-26014755D02*
X59961000Y-27372755D01*
X59961000Y-29452755D02*
X59961000Y-30810755D01*
X60001000Y-26030755D02*
X60001000Y-27372755D01*
X60001000Y-29452755D02*
X60001000Y-30794755D01*
X60041000Y-26047755D02*
X60041000Y-27372755D01*
X60041000Y-29452755D02*
X60041000Y-30777755D01*
X60081000Y-26064755D02*
X60081000Y-27372755D01*
X60081000Y-29452755D02*
X60081000Y-30760755D01*
X60121000Y-26083755D02*
X60121000Y-27372755D01*
X60121000Y-29452755D02*
X60121000Y-30741755D01*
X60161000Y-26102755D02*
X60161000Y-27372755D01*
X60161000Y-29452755D02*
X60161000Y-30722755D01*
X60201000Y-26122755D02*
X60201000Y-27372755D01*
X60201000Y-29452755D02*
X60201000Y-30702755D01*
X60241000Y-26144755D02*
X60241000Y-27372755D01*
X60241000Y-29452755D02*
X60241000Y-30680755D01*
X60281000Y-26165755D02*
X60281000Y-27372755D01*
X60281000Y-29452755D02*
X60281000Y-30659755D01*
X60321000Y-26188755D02*
X60321000Y-27372755D01*
X60321000Y-29452755D02*
X60321000Y-30636755D01*
X60361000Y-26212755D02*
X60361000Y-27372755D01*
X60361000Y-29452755D02*
X60361000Y-30612755D01*
X60401000Y-26237755D02*
X60401000Y-27372755D01*
X60401000Y-29452755D02*
X60401000Y-30587755D01*
X60441000Y-26263755D02*
X60441000Y-27372755D01*
X60441000Y-29452755D02*
X60441000Y-30561755D01*
X60481000Y-26290755D02*
X60481000Y-27372755D01*
X60481000Y-29452755D02*
X60481000Y-30534755D01*
X60521000Y-26317755D02*
X60521000Y-27372755D01*
X60521000Y-29452755D02*
X60521000Y-30507755D01*
X60561000Y-26347755D02*
X60561000Y-27372755D01*
X60561000Y-29452755D02*
X60561000Y-30477755D01*
X60601000Y-26377755D02*
X60601000Y-27372755D01*
X60601000Y-29452755D02*
X60601000Y-30447755D01*
X60641000Y-26408755D02*
X60641000Y-27372755D01*
X60641000Y-29452755D02*
X60641000Y-30416755D01*
X60681000Y-26441755D02*
X60681000Y-27372755D01*
X60681000Y-29452755D02*
X60681000Y-30383755D01*
X60721000Y-26475755D02*
X60721000Y-27372755D01*
X60721000Y-29452755D02*
X60721000Y-30349755D01*
X60761000Y-26511755D02*
X60761000Y-27372755D01*
X60761000Y-29452755D02*
X60761000Y-30313755D01*
X60801000Y-26548755D02*
X60801000Y-27372755D01*
X60801000Y-29452755D02*
X60801000Y-30276755D01*
X60841000Y-26586755D02*
X60841000Y-27372755D01*
X60841000Y-29452755D02*
X60841000Y-30238755D01*
X60881000Y-26627755D02*
X60881000Y-27372755D01*
X60881000Y-29452755D02*
X60881000Y-30197755D01*
X60921000Y-26669755D02*
X60921000Y-27372755D01*
X60921000Y-29452755D02*
X60921000Y-30155755D01*
X60961000Y-26713755D02*
X60961000Y-27372755D01*
X60961000Y-29452755D02*
X60961000Y-30111755D01*
X61001000Y-26759755D02*
X61001000Y-27372755D01*
X61001000Y-29452755D02*
X61001000Y-30065755D01*
X61041000Y-26807755D02*
X61041000Y-30017755D01*
X61081000Y-26858755D02*
X61081000Y-29966755D01*
X61121000Y-26912755D02*
X61121000Y-29912755D01*
X61161000Y-26969755D02*
X61161000Y-29855755D01*
X61201000Y-27029755D02*
X61201000Y-29795755D01*
X61241000Y-27093755D02*
X61241000Y-29731755D01*
X61281000Y-27161755D02*
X61281000Y-29663755D01*
X61321000Y-27234755D02*
X61321000Y-29590755D01*
X61361000Y-27314755D02*
X61361000Y-29510755D01*
X61401000Y-27401755D02*
X61401000Y-29423755D01*
X61441000Y-27497755D02*
X61441000Y-29327755D01*
X61481000Y-27607755D02*
X61481000Y-29217755D01*
X61521000Y-27735755D02*
X61521000Y-29089755D01*
X61561000Y-27894755D02*
X61561000Y-28930755D01*
X61601000Y-28128755D02*
X61601000Y-28696755D01*
X61620000Y-28412755D02*
G75*
G02*
X56380000Y-28412755I-2620000J0D01*
G01*
X56380000Y-28412755D02*
G75*
G02*
X61620000Y-28412755I2620000J0D01*
G01*
X55999000Y-71596755D02*
X55999000Y-71028755D01*
X56039000Y-71830755D02*
X56039000Y-70794755D01*
X56079000Y-71989755D02*
X56079000Y-70635755D01*
X56119000Y-72117755D02*
X56119000Y-70507755D01*
X56159000Y-72227755D02*
X56159000Y-70397755D01*
X56199000Y-72323755D02*
X56199000Y-70301755D01*
X56239000Y-72410755D02*
X56239000Y-70214755D01*
X56279000Y-72490755D02*
X56279000Y-70134755D01*
X56319000Y-72563755D02*
X56319000Y-70061755D01*
X56359000Y-72631755D02*
X56359000Y-69993755D01*
X56399000Y-72695755D02*
X56399000Y-69929755D01*
X56439000Y-72755755D02*
X56439000Y-69869755D01*
X56479000Y-72812755D02*
X56479000Y-69812755D01*
X56519000Y-72866755D02*
X56519000Y-69758755D01*
X56559000Y-72917755D02*
X56559000Y-69707755D01*
X56599000Y-70272755D02*
X56599000Y-69659755D01*
X56599000Y-72965755D02*
X56599000Y-72352755D01*
X56639000Y-70272755D02*
X56639000Y-69613755D01*
X56639000Y-73011755D02*
X56639000Y-72352755D01*
X56679000Y-70272755D02*
X56679000Y-69569755D01*
X56679000Y-73055755D02*
X56679000Y-72352755D01*
X56719000Y-70272755D02*
X56719000Y-69527755D01*
X56719000Y-73097755D02*
X56719000Y-72352755D01*
X56759000Y-70272755D02*
X56759000Y-69486755D01*
X56759000Y-73138755D02*
X56759000Y-72352755D01*
X56799000Y-70272755D02*
X56799000Y-69448755D01*
X56799000Y-73176755D02*
X56799000Y-72352755D01*
X56839000Y-70272755D02*
X56839000Y-69411755D01*
X56839000Y-73213755D02*
X56839000Y-72352755D01*
X56879000Y-70272755D02*
X56879000Y-69375755D01*
X56879000Y-73249755D02*
X56879000Y-72352755D01*
X56919000Y-70272755D02*
X56919000Y-69341755D01*
X56919000Y-73283755D02*
X56919000Y-72352755D01*
X56959000Y-70272755D02*
X56959000Y-69308755D01*
X56959000Y-73316755D02*
X56959000Y-72352755D01*
X56999000Y-70272755D02*
X56999000Y-69277755D01*
X56999000Y-73347755D02*
X56999000Y-72352755D01*
X57039000Y-70272755D02*
X57039000Y-69247755D01*
X57039000Y-73377755D02*
X57039000Y-72352755D01*
X57079000Y-70272755D02*
X57079000Y-69217755D01*
X57079000Y-73407755D02*
X57079000Y-72352755D01*
X57119000Y-70272755D02*
X57119000Y-69190755D01*
X57119000Y-73434755D02*
X57119000Y-72352755D01*
X57159000Y-70272755D02*
X57159000Y-69163755D01*
X57159000Y-73461755D02*
X57159000Y-72352755D01*
X57199000Y-70272755D02*
X57199000Y-69137755D01*
X57199000Y-73487755D02*
X57199000Y-72352755D01*
X57239000Y-70272755D02*
X57239000Y-69112755D01*
X57239000Y-73512755D02*
X57239000Y-72352755D01*
X57279000Y-70272755D02*
X57279000Y-69088755D01*
X57279000Y-73536755D02*
X57279000Y-72352755D01*
X57319000Y-70272755D02*
X57319000Y-69065755D01*
X57319000Y-73559755D02*
X57319000Y-72352755D01*
X57359000Y-70272755D02*
X57359000Y-69044755D01*
X57359000Y-73580755D02*
X57359000Y-72352755D01*
X57399000Y-70272755D02*
X57399000Y-69022755D01*
X57399000Y-73602755D02*
X57399000Y-72352755D01*
X57439000Y-70272755D02*
X57439000Y-69002755D01*
X57439000Y-73622755D02*
X57439000Y-72352755D01*
X57479000Y-70272755D02*
X57479000Y-68983755D01*
X57479000Y-73641755D02*
X57479000Y-72352755D01*
X57519000Y-70272755D02*
X57519000Y-68964755D01*
X57519000Y-73660755D02*
X57519000Y-72352755D01*
X57559000Y-70272755D02*
X57559000Y-68947755D01*
X57559000Y-73677755D02*
X57559000Y-72352755D01*
X57599000Y-70272755D02*
X57599000Y-68930755D01*
X57599000Y-73694755D02*
X57599000Y-72352755D01*
X57639000Y-70272755D02*
X57639000Y-68914755D01*
X57639000Y-73710755D02*
X57639000Y-72352755D01*
X57679000Y-70272755D02*
X57679000Y-68898755D01*
X57679000Y-73726755D02*
X57679000Y-72352755D01*
X57719000Y-70272755D02*
X57719000Y-68884755D01*
X57719000Y-73740755D02*
X57719000Y-72352755D01*
X57759000Y-70272755D02*
X57759000Y-68870755D01*
X57759000Y-73754755D02*
X57759000Y-72352755D01*
X57799000Y-70272755D02*
X57799000Y-68857755D01*
X57799000Y-73767755D02*
X57799000Y-72352755D01*
X57839000Y-70272755D02*
X57839000Y-68844755D01*
X57839000Y-73780755D02*
X57839000Y-72352755D01*
X57879000Y-70272755D02*
X57879000Y-68832755D01*
X57879000Y-73792755D02*
X57879000Y-72352755D01*
X57920000Y-70272755D02*
X57920000Y-68821755D01*
X57920000Y-73803755D02*
X57920000Y-72352755D01*
X57960000Y-70272755D02*
X57960000Y-68811755D01*
X57960000Y-73813755D02*
X57960000Y-72352755D01*
X58000000Y-70272755D02*
X58000000Y-68801755D01*
X58000000Y-73823755D02*
X58000000Y-72352755D01*
X58040000Y-70272755D02*
X58040000Y-68792755D01*
X58040000Y-73832755D02*
X58040000Y-72352755D01*
X58080000Y-70272755D02*
X58080000Y-68784755D01*
X58080000Y-73840755D02*
X58080000Y-72352755D01*
X58120000Y-70272755D02*
X58120000Y-68776755D01*
X58120000Y-73848755D02*
X58120000Y-72352755D01*
X58160000Y-70272755D02*
X58160000Y-68769755D01*
X58160000Y-73855755D02*
X58160000Y-72352755D01*
X58200000Y-70272755D02*
X58200000Y-68762755D01*
X58200000Y-73862755D02*
X58200000Y-72352755D01*
X58240000Y-70272755D02*
X58240000Y-68756755D01*
X58240000Y-73868755D02*
X58240000Y-72352755D01*
X58280000Y-70272755D02*
X58280000Y-68751755D01*
X58280000Y-73873755D02*
X58280000Y-72352755D01*
X58320000Y-70272755D02*
X58320000Y-68747755D01*
X58320000Y-73877755D02*
X58320000Y-72352755D01*
X58360000Y-70272755D02*
X58360000Y-68743755D01*
X58360000Y-73881755D02*
X58360000Y-72352755D01*
X58400000Y-70272755D02*
X58400000Y-68739755D01*
X58400000Y-73885755D02*
X58400000Y-72352755D01*
X58440000Y-70272755D02*
X58440000Y-68736755D01*
X58440000Y-73888755D02*
X58440000Y-72352755D01*
X58480000Y-70272755D02*
X58480000Y-68734755D01*
X58480000Y-73890755D02*
X58480000Y-72352755D01*
X58520000Y-70272755D02*
X58520000Y-68733755D01*
X58520000Y-73891755D02*
X58520000Y-72352755D01*
X58560000Y-70272755D02*
X58560000Y-68732755D01*
X58560000Y-73892755D02*
X58560000Y-72352755D01*
X58600000Y-70272755D02*
X58600000Y-68732755D01*
X58600000Y-73892755D02*
X58600000Y-72352755D01*
X61154775Y-73037755D02*
X61154775Y-72537755D01*
X61404775Y-72787755D02*
X60904775Y-72787755D01*
X61220000Y-71312755D02*
G75*
G02*
X55980000Y-71312755I-2620000J0D01*
G01*
X55980000Y-71312755D02*
G75*
G02*
X61220000Y-71312755I2620000J0D01*
G01*
D10*
X86300000Y-49700000D02*
G75*
G02*
X83500000Y-49700000I-1400000J0D01*
G01*
X83500000Y-49700000D02*
G75*
G02*
X86300000Y-49700000I1400000J0D01*
G01*
D11*
X56429000Y-32092755D02*
X56429000Y-42332755D01*
X59560000Y-32092755D02*
X59560000Y-42332755D01*
X61070000Y-32092755D02*
X56429000Y-32092755D01*
X61070000Y-32092755D02*
X61070000Y-42332755D01*
X61070000Y-35362755D02*
X59560000Y-35362755D01*
X61070000Y-39063755D02*
X59560000Y-39063755D01*
X61070000Y-42332755D02*
X56429000Y-42332755D01*
%LPC*%
D12*
X92000000Y-59312755D03*
D13*
X87100000Y-59332755D03*
D14*
X87100000Y-69492755D03*
D12*
X34600000Y-37212755D03*
X92000000Y-39812755D03*
D15*
X30000000Y-27700000D03*
D13*
X54500000Y-57132755D03*
D14*
X54500000Y-67292755D03*
D15*
X76000000Y-27700000D03*
D16*
X83800000Y-66922755D03*
D17*
X83800000Y-59302755D03*
D13*
X54700000Y-42292755D03*
D14*
X54700000Y-32132755D03*
D18*
X93300000Y-66112755D03*
D19*
X90760000Y-66112755D03*
D20*
X44600000Y-62212755D03*
D21*
X44600000Y-54712755D03*
D15*
X30000000Y-71700000D03*
D22*
X30000000Y-54792755D03*
D23*
X30000000Y-49712755D03*
X30000000Y-44632755D03*
D12*
X34700000Y-62212755D03*
D20*
X44600000Y-44712755D03*
D21*
X44600000Y-37212755D03*
D22*
X92000000Y-44632755D03*
D23*
X92000000Y-49712755D03*
X92000000Y-54792755D03*
D16*
X84000000Y-38720000D03*
D17*
X84000000Y-31100000D03*
D15*
X76000000Y-71700000D03*
D18*
X93375000Y-33712755D03*
D19*
X90835000Y-33712755D03*
D24*
X57700000Y-59672755D03*
D25*
X57700000Y-62212755D03*
X57700000Y-64752755D03*
D13*
X87200000Y-30132755D03*
D14*
X87200000Y-40292755D03*
D26*
X58000000Y-28412755D03*
D16*
X60000000Y-28412755D03*
D26*
X59600000Y-71312755D03*
D16*
X57600000Y-71312755D03*
D12*
X84900000Y-49700000D03*
D24*
X57800000Y-34672755D03*
D25*
X57800000Y-37212755D03*
X57800000Y-39752755D03*
%LPD*%
M02*
